<svg version="1.1" id="Layer_1" xmlns="http://www.w3.org/2000/svg" xmlns:xlink="http://www.w3.org/1999/xlink" x="0px" y="0px"
	 width="100%" viewBox="0 0 164 186" enable-background="new 0 0 164 186" xml:space="preserve">
<path fill="#FDFFFD" opacity="1.000000" stroke="none" 
	d="
M1.000000,67.000000 
	C1.000000,44.666672 1.000000,22.833344 1.000000,1.000012 
	C55.666645,1.000008 110.333290,1.000008 164.999954,1.000004 
	C164.999969,62.999969 164.999969,124.999939 164.999985,186.999939 
	C110.333382,186.999954 55.666759,186.999954 1.000069,186.999969 
	C1.000000,147.166672 1.000000,107.333336 1.000000,67.000000 
M136.997940,100.001717 
	C136.997940,100.001717 136.974411,99.981750 137.573288,99.948227 
	C137.687531,99.291855 137.801758,98.635475 137.996826,97.395531 
	C138.295776,96.910645 138.594742,96.425766 139.507187,95.934395 
	C139.642273,95.281944 139.777374,94.629486 139.989899,93.393570 
	C140.287811,92.907684 140.585739,92.421799 141.637970,91.909668 
	C142.688828,89.172882 143.739685,86.436096 144.829590,83.329437 
	C144.829590,83.329437 144.999619,82.998657 145.588364,82.955406 
	C145.718430,82.301987 145.848495,81.648560 146.036987,80.411758 
	C146.327896,79.924896 146.618805,79.438026 147.626709,78.893753 
	C149.086914,75.263031 150.547134,71.632317 152.064255,67.418602 
	C152.358688,66.936165 152.653107,66.453728 153.666931,65.890518 
	C157.094208,61.470791 158.459793,56.462040 157.914093,50.001377 
	C157.138718,44.467533 157.279343,38.601845 155.417221,33.461693 
	C149.690140,17.652653 130.960785,7.965293 113.832176,13.491022 
	C103.491486,16.826948 95.152435,22.803528 87.887955,30.526827 
	C85.145813,33.442154 83.113457,33.879173 80.153709,30.725557 
	C76.983719,27.347931 73.460487,24.203630 69.705826,21.491268 
	C58.260098,13.222876 45.900921,8.902811 31.819365,14.237144 
	C14.255946,20.890465 4.174757,41.339676 11.905447,58.283535 
	C26.673349,90.651321 42.637074,122.475594 58.242554,154.458084 
	C64.213867,166.695938 73.841972,173.173935 88.734604,172.019852 
	C91.163071,171.035721 93.591537,170.051605 96.347588,168.877502 
	C96.347588,168.877502 96.719475,168.806076 97.493057,168.928787 
	C98.975441,167.584747 100.457825,166.240723 102.199097,164.393341 
	C102.773430,163.914597 103.347763,163.435852 104.647972,162.933502 
	C107.771400,161.622208 109.463936,159.445938 108.918060,155.987930 
	C108.918060,155.987930 108.880814,155.901871 109.594467,155.883698 
	C113.071350,151.875778 116.456841,147.825592 116.076729,141.422073 
	C116.380493,140.945480 116.684258,140.468872 117.704407,139.933609 
	C118.584671,139.024063 119.752945,138.260605 120.300049,137.182068 
	C125.042709,127.832626 129.708450,118.443344 134.273880,109.006310 
	C134.649612,108.229660 134.118301,107.014198 134.104416,105.319656 
	C134.825150,103.885513 135.545883,102.451370 136.630875,100.769325 
	C136.850601,100.550407 136.968201,100.286018 136.997940,100.001717 
z"/>
<path fill="#76EC7E" opacity="1.000000" stroke="none" 
	d="
M144.999619,82.998657 
	C144.999619,82.998657 144.829590,83.329437 144.537201,83.733269 
	C143.124435,86.736702 142.004044,89.336311 140.883667,91.935913 
	C140.585739,92.421799 140.287811,92.907684 139.699768,93.839119 
	C139.237656,94.836739 139.065674,95.388802 138.893707,95.940872 
	C138.594742,96.425766 138.295776,96.910645 137.705933,97.846428 
	C137.268173,98.858803 137.121292,99.420280 136.974411,99.981750 
	C136.974411,99.981750 136.997940,100.001717 136.767365,100.076294 
	C136.252579,100.379105 136.162521,100.667892 136.266617,101.017220 
	C135.545883,102.451370 134.825150,103.885513 133.770630,105.851166 
	C127.953903,117.585884 122.470963,128.789078 116.988022,139.992279 
	C116.684258,140.468872 116.380493,140.945480 115.761307,141.905273 
	C113.257530,146.892944 111.069176,151.397415 108.880814,155.901871 
	C108.880814,155.901871 108.918060,155.987930 108.608322,156.094421 
	C106.839752,158.452957 105.380920,160.705017 103.922096,162.957092 
	C103.347763,163.435852 102.773430,163.914597 101.743561,164.703674 
	C99.765175,166.278030 98.242325,167.542053 96.719475,168.806076 
	C96.719475,168.806076 96.347588,168.877502 95.815109,168.981476 
	C92.818222,170.032776 90.353798,170.980103 87.889381,171.927429 
	C73.841972,173.173935 64.213867,166.695938 58.242554,154.458084 
	C42.637074,122.475594 26.673349,90.651321 11.905447,58.283535 
	C4.174757,41.339676 14.255946,20.890465 31.819365,14.237144 
	C45.900921,8.902811 58.260098,13.222876 69.705826,21.491268 
	C73.460487,24.203630 76.983719,27.347931 80.153709,30.725557 
	C83.113457,33.879173 85.145813,33.442154 87.887955,30.526827 
	C95.152435,22.803528 103.491486,16.826948 113.832176,13.491022 
	C130.960785,7.965293 149.690140,17.652653 155.417221,33.461693 
	C157.279343,38.601845 157.138718,44.467533 157.715210,50.756805 
	C155.993393,56.331917 154.470459,61.151604 152.947540,65.971291 
	C152.653107,66.453728 152.358688,66.936165 151.748749,67.901123 
	C149.925400,71.906143 148.417542,75.428650 146.909698,78.951157 
	C146.618805,79.438026 146.327896,79.924896 145.754059,80.863937 
	C145.313950,81.876968 145.156784,82.437813 144.999619,82.998657 
M107.315132,26.986401 
	C106.486877,27.609991 105.658623,28.233583 104.230782,29.048429 
	C103.134697,30.003485 102.038620,30.958540 100.295975,32.004002 
	C99.251274,33.035233 98.206566,34.066460 96.577980,35.379452 
	C95.422523,36.648876 94.267067,37.918297 92.463501,39.361752 
	C90.273796,41.151287 90.660240,42.741924 93.009171,44.772423 
	C93.626366,45.546825 94.243568,46.321224 94.977264,47.735714 
	C95.942909,48.874683 96.908546,50.013653 98.002098,51.702724 
	C98.339729,52.133247 98.677361,52.563770 99.039833,53.635918 
	C99.675331,54.446472 100.310829,55.257027 101.066597,56.621998 
	C101.379860,57.080570 101.693123,57.539139 102.032852,58.679695 
	C102.985718,60.163727 103.938576,61.647758 104.993546,63.560722 
	C104.993546,63.560722 105.163521,63.967564 105.185547,64.472374 
	C105.410896,64.712738 105.636238,64.953110 106.000587,65.892738 
	C106.777718,67.892387 107.554848,69.892044 108.213013,72.587959 
	C108.803909,74.058746 109.394814,75.529533 109.993866,77.731369 
	C110.113388,78.450623 110.232903,79.169868 110.168854,80.474701 
	C110.431488,80.984962 110.694122,81.495216 110.959915,82.880486 
	C110.976837,84.922028 110.993752,86.963570 110.505127,89.458771 
	C110.450066,90.341927 110.395004,91.225090 110.165108,92.729645 
	C110.137321,93.158440 110.109543,93.587242 109.590271,94.379387 
	C109.492088,94.954132 109.393906,95.528870 109.078766,96.646568 
	C108.989204,97.025429 108.899643,97.404282 108.282753,98.148315 
	C107.849968,99.095047 107.417191,100.041786 106.508484,101.352669 
	C105.988136,102.209335 105.467796,103.065994 104.328102,104.030228 
	C103.840927,104.655762 103.353745,105.281288 102.316818,106.207489 
	C101.200912,107.122322 100.085007,108.037148 98.369164,108.964783 
	C97.911743,109.303871 97.454330,109.642960 96.367973,110.094917 
	C95.604240,110.465309 94.840515,110.835709 93.475182,111.109772 
	C92.984398,111.410141 92.493622,111.710518 91.360100,112.047783 
	C90.940369,112.134468 90.520638,112.221161 89.430702,112.136154 
	C88.624481,112.440170 87.818260,112.744186 86.135643,113.008240 
	C84.088951,113.010445 82.042259,113.012650 79.561806,112.491432 
	C78.678024,112.415680 77.794235,112.339920 76.285057,112.111374 
	C75.859802,112.055634 75.434547,111.999893 74.655563,111.457153 
	C74.082420,111.359596 73.509285,111.262047 72.345169,110.800591 
	C59.527714,104.188950 54.383320,93.217667 57.335178,78.774353 
	C59.935825,66.049545 66.603615,55.368378 74.333656,45.256992 
	C75.946518,43.147263 76.995293,41.217079 74.523544,39.268024 
	C68.417015,34.452816 62.732304,28.767635 55.943436,25.221285 
	C41.003162,17.416830 24.617584,24.605513 20.527502,40.067787 
	C18.256582,48.652847 21.097292,56.468033 25.125010,64.604988 
	C25.778227,65.730370 26.431442,66.855759 27.165070,68.660194 
	C27.865194,70.090797 28.565317,71.521393 29.257128,73.438507 
	C29.380125,73.770409 29.612644,73.982063 30.044809,74.698486 
	C30.423933,75.442627 30.803055,76.186768 31.112095,77.548813 
	C31.585861,78.184166 32.059628,78.819511 32.693642,80.117119 
	C33.465679,81.743805 34.237720,83.370483 34.988979,85.603737 
	C35.325893,86.069260 35.662807,86.534782 36.112286,87.669228 
	C36.799725,89.090096 37.487164,90.510963 38.129589,92.637985 
	C39.379810,94.807297 40.630032,96.976616 42.022346,99.849342 
	C44.462292,104.882042 46.902237,109.914749 49.302597,115.415131 
	C49.434052,115.734077 49.669804,115.922974 50.156689,116.687187 
	C55.140579,126.450035 60.124466,136.212875 65.163719,146.482330 
	C65.403534,146.712189 65.643341,146.942062 65.978104,147.723312 
	C66.281036,148.174255 66.583961,148.625198 66.949883,149.714188 
	C67.563667,150.555252 68.177460,151.396317 68.908379,152.622147 
	C68.908379,152.622147 69.103714,152.973724 69.182274,153.472076 
	C69.443848,153.667252 69.705414,153.862411 70.235535,154.671417 
	C72.818642,156.476212 75.401756,158.281006 78.340042,160.575851 
	C78.919876,160.643051 79.499718,160.710251 80.710724,160.927414 
	C81.141937,160.947632 81.573158,160.967850 82.371223,161.464600 
	C83.246086,161.305481 84.120956,161.146362 85.643570,160.991577 
	C86.068230,160.917480 86.492897,160.843399 87.512436,160.911224 
	C88.013153,160.631699 88.513878,160.352158 89.667938,159.966141 
	C90.775620,159.305466 91.883293,158.644791 93.659737,157.943771 
	C94.477661,156.987854 95.295578,156.031937 96.655998,154.681381 
	C98.463058,151.493439 100.270126,148.305496 102.517044,144.876419 
	C102.625740,144.573349 102.734436,144.270279 103.021797,143.574341 
	C103.021797,143.574341 103.130318,143.156616 103.682999,142.816040 
	C104.075424,141.854080 104.467857,140.892120 105.300873,139.562286 
	C105.489021,139.032318 105.677170,138.502365 106.402840,137.668579 
	C106.568550,137.098572 106.734261,136.528564 107.087936,135.605942 
	C107.087936,135.605942 107.194069,135.220718 107.718559,134.843658 
	C108.124100,133.884521 108.529648,132.925385 109.427391,131.515137 
	C110.275703,129.674622 111.124016,127.834122 112.488922,125.683754 
	C112.665375,125.126892 112.841827,124.570030 113.451302,123.626953 
	C113.645012,123.086601 113.838722,122.546257 114.541512,121.690346 
	C114.692131,121.125931 114.842751,120.561516 115.505325,119.550003 
	C117.656197,115.030678 119.807060,110.511360 122.487907,105.692192 
	C122.647133,105.122627 122.806358,104.553062 123.456482,103.527313 
	C124.358704,101.425789 125.260918,99.324272 126.588341,96.932587 
	C126.693161,96.615318 126.797981,96.298050 127.077011,95.603172 
	C127.077011,95.603172 127.171768,95.198257 127.702591,94.831223 
	C128.084534,93.867722 128.466476,92.904228 129.203491,91.402794 
	C129.510910,90.609589 129.818344,89.816383 130.610825,88.703804 
	C130.774094,88.157639 130.937363,87.611473 131.526611,86.667511 
	C131.697281,86.114426 131.867935,85.561340 132.548676,84.691940 
	C132.700317,84.128838 132.851959,83.565735 133.445297,82.628479 
	C133.624756,82.084358 133.804214,81.540237 134.557251,80.620277 
	C135.958542,77.384338 137.359848,74.148392 139.121109,70.381752 
	C139.417572,69.593491 139.714035,68.805229 140.446259,67.817520 
	C140.731827,67.588692 140.818375,67.300179 141.070969,66.353264 
	C141.998840,64.225922 142.926727,62.098579 144.379425,59.639957 
	C144.497055,59.061310 144.614670,58.482666 145.111221,57.280472 
	C145.724426,55.183258 146.337631,53.086048 147.476807,50.549706 
	C147.539413,49.664009 147.602020,48.778313 147.792480,47.141361 
	C147.754089,46.129223 147.715683,45.117085 147.885300,43.440639 
	C147.606644,42.624538 147.327988,41.808441 147.006210,40.350361 
	C146.902740,39.934769 146.799286,39.519176 146.837555,38.501160 
	C146.526764,38.007492 146.215988,37.513824 145.864441,36.444237 
	C145.579407,35.959866 145.294373,35.475491 144.998428,34.348034 
	C144.356995,33.542862 143.715561,32.737686 143.019211,31.990517 
	C143.019211,31.990517 143.081024,31.929012 143.001404,31.281191 
	C141.964844,30.249678 140.928299,29.218166 139.503464,27.645889 
	C137.336685,26.425571 135.169907,25.205256 132.593964,23.427423 
	C131.031097,23.044302 129.468231,22.661180 127.046494,22.132738 
	C124.724304,22.163891 122.402115,22.195042 119.402222,22.070635 
	C118.605835,22.398457 117.809456,22.726276 116.321327,23.103392 
	C115.227654,23.472017 114.133980,23.840643 112.538185,24.207003 
	C112.313828,24.441162 112.089470,24.675320 111.452339,25.002750 
	C111.452339,25.002750 111.063179,25.168970 110.420647,25.110147 
	C109.598183,25.723671 108.775711,26.337194 108.001472,26.992655 
	C108.001472,26.992655 107.954651,26.943888 107.315132,26.986401 
M69.924644,96.403824 
	C75.956573,103.052788 82.378288,104.872490 90.025078,102.099609 
	C96.454842,99.768051 100.937813,93.947174 100.672264,86.763329 
	C100.149429,72.619476 92.521469,61.650017 84.000092,50.342545 
	C77.007645,58.297947 72.089325,66.476837 68.868210,75.606461 
	C66.497475,82.325867 65.534874,89.181847 69.924644,96.403824 
z"/>
<path fill="#DEFEE1" opacity="1.000000" stroke="none" 
	d="
M117.346214,139.962952 
	C122.470963,128.789078 127.953903,117.585884 133.722656,106.192657 
	C134.118301,107.014198 134.649612,108.229660 134.273880,109.006310 
	C129.708450,118.443344 125.042709,127.832626 120.300049,137.182068 
	C119.752945,138.260605 118.584671,139.024063 117.346214,139.962952 
z"/>
<path fill="#DEFEE1" opacity="1.000000" stroke="none" 
	d="
M109.237640,155.892792 
	C111.069176,151.397415 113.257530,146.892944 115.730225,142.196625 
	C116.456841,147.825592 113.071350,151.875778 109.237640,155.892792 
z"/>
<path fill="#DEFEE1" opacity="1.000000" stroke="none" 
	d="
M153.307236,65.930908 
	C154.470459,61.151604 155.993393,56.331917 157.730713,51.214165 
	C158.459793,56.462040 157.094208,61.470791 153.307236,65.930908 
z"/>
<path fill="#DEFEE1" opacity="1.000000" stroke="none" 
	d="
M147.268204,78.922455 
	C148.417542,75.428650 149.925400,71.906143 151.720291,68.192612 
	C150.547134,71.632317 149.086914,75.263031 147.268204,78.922455 
z"/>
<path fill="#DEFEE1" opacity="1.000000" stroke="none" 
	d="
M141.260818,91.922791 
	C142.004044,89.336311 143.124435,86.736702 144.517670,83.918205 
	C143.739685,86.436096 142.688828,89.172882 141.260818,91.922791 
z"/>
<path fill="#DEFEE1" opacity="1.000000" stroke="none" 
	d="
M104.285034,162.945297 
	C105.380920,160.705017 106.839752,158.452957 108.597969,156.052460 
	C109.463936,159.445938 107.771400,161.622208 104.285034,162.945297 
z"/>
<path fill="#DEFEE1" opacity="1.000000" stroke="none" 
	d="
M88.311996,171.973633 
	C90.353798,170.980103 92.818222,170.032776 95.651321,169.076462 
	C93.591537,170.051605 91.163071,171.035721 88.311996,171.973633 
z"/>
<path fill="#DEFEE1" opacity="1.000000" stroke="none" 
	d="
M97.106262,168.867432 
	C98.242325,167.542053 99.765175,166.278030 101.614120,164.955353 
	C100.457825,166.240723 98.975441,167.584747 97.106262,168.867432 
z"/>
<path fill="#DEFEE1" opacity="1.000000" stroke="none" 
	d="
M145.293991,82.977036 
	C145.156784,82.437813 145.313950,81.876968 145.724838,81.155632 
	C145.848495,81.648560 145.718430,82.301987 145.293991,82.977036 
z"/>
<path fill="#DEFEE1" opacity="1.000000" stroke="none" 
	d="
M139.200439,95.937637 
	C139.065674,95.388802 139.237656,94.836739 139.661057,94.130844 
	C139.777374,94.629486 139.642273,95.281944 139.200439,95.937637 
z"/>
<path fill="#DEFEE1" opacity="1.000000" stroke="none" 
	d="
M137.273849,99.964989 
	C137.121292,99.420280 137.268173,98.858803 137.665527,98.138214 
	C137.801758,98.635475 137.687531,99.291855 137.273849,99.964989 
z"/>
<path fill="#DEFEE1" opacity="1.000000" stroke="none" 
	d="
M136.448746,100.893272 
	C136.162521,100.667892 136.252579,100.379105 136.760223,100.063515 
	C136.968201,100.286018 136.850601,100.550407 136.448746,100.893272 
z"/>
<path fill="#FBFFFB" opacity="1.000000" stroke="none" 
	d="
M113.040306,24.209270 
	C114.133980,23.840643 115.227654,23.472017 116.858749,23.319952 
	C118.290749,23.099741 119.185341,22.662968 120.079926,22.226194 
	C122.402115,22.195042 124.724304,22.163891 127.566765,22.512550 
	C129.725739,23.256554 131.364426,23.620747 133.003128,23.984938 
	C135.169907,25.205256 137.336685,26.425571 139.722656,28.265972 
	C140.988235,29.900372 142.034622,30.914692 143.081024,31.929012 
	C143.081024,31.929012 143.019211,31.990517 143.020050,32.320114 
	C143.683716,33.430180 144.346527,34.210648 145.009338,34.991116 
	C145.294373,35.475491 145.579407,35.959866 145.678833,36.896339 
	C145.894104,37.933491 146.294968,38.518536 146.695816,39.103584 
	C146.799286,39.519176 146.902740,39.934769 146.770737,40.847717 
	C146.915939,42.265026 147.296616,43.184986 147.677292,44.104946 
	C147.715683,45.117085 147.754089,46.129223 147.441559,47.605476 
	C147.044052,49.042675 146.997452,50.015759 146.950836,50.988838 
	C146.337631,53.086048 145.724426,55.183258 144.661972,57.646767 
	C144.093353,58.665787 143.973984,59.318512 143.854614,59.971237 
	C142.926727,62.098579 141.998840,64.225922 140.708588,66.780846 
	C140.129822,67.434502 140.017914,67.704010 140.010498,68.016960 
	C139.714035,68.805229 139.417572,69.593491 138.621506,70.732574 
	C136.742493,74.387642 135.363083,77.691879 133.983673,80.996124 
	C133.804214,81.540237 133.624756,82.084358 132.930481,82.835670 
	C132.289978,83.697990 132.164276,84.353127 132.038589,85.008255 
	C131.867935,85.561340 131.697281,86.114426 131.007965,86.870377 
	C130.368134,87.723228 130.246948,88.373207 130.125778,89.023186 
	C129.818344,89.816383 129.510910,90.609589 128.684174,91.748489 
	C127.833839,93.128883 127.502808,94.163574 127.171768,95.198257 
	C127.171768,95.198257 127.077011,95.603172 126.769104,95.929291 
	C126.361839,96.577858 126.262482,96.900299 126.163132,97.222748 
	C125.260918,99.324272 124.358704,101.425789 122.923080,103.783760 
	C122.245773,104.690819 122.101860,105.341431 121.957932,105.992043 
	C119.807060,110.511360 117.656197,115.030678 114.955582,119.795395 
	C114.281380,120.695824 114.156906,121.350861 114.032433,122.005905 
	C113.838722,122.546257 113.645012,123.086601 112.942459,123.838654 
	C112.279854,124.698112 112.126091,125.345863 111.972328,125.993614 
	C111.124016,127.834122 110.275703,129.674622 108.831482,131.811066 
	C107.888412,133.144897 107.541245,134.182816 107.194077,135.220718 
	C107.194069,135.220718 107.087936,135.605942 106.716461,135.816345 
	C106.185104,136.675293 106.025215,137.323837 105.865326,137.972397 
	C105.677170,138.502365 105.489021,139.032318 104.742218,139.827148 
	C103.832489,141.113556 103.481407,142.135086 103.130318,143.156616 
	C103.130318,143.156616 103.021797,143.574341 102.723625,143.898529 
	C102.171959,144.467453 102.055878,144.765732 102.077194,145.117554 
	C100.270126,148.305496 98.463058,151.493439 96.035782,154.881531 
	C94.607368,156.049179 93.799171,157.016647 92.990974,157.984100 
	C91.883293,158.644791 90.775620,159.305466 89.190506,159.786514 
	C88.114563,159.994354 87.516060,160.381821 86.917557,160.769287 
	C86.492897,160.843399 86.068230,160.917480 85.141891,160.735840 
	C83.761597,160.649414 82.882988,160.818741 82.004372,160.988068 
	C81.573158,160.967850 81.141937,160.947632 80.339523,160.578857 
	C79.307167,160.182129 78.646019,160.133957 77.984871,160.085785 
	C75.401756,158.281006 72.818642,156.476212 70.043350,154.124939 
	C69.685959,153.273117 69.436806,153.071533 69.103714,152.973724 
	C69.103714,152.973724 68.908379,152.622147 68.912567,152.052368 
	C68.240143,150.680450 67.563515,149.878296 66.886894,149.076141 
	C66.583961,148.625198 66.281036,148.174255 65.905334,147.191513 
	C65.591164,146.431717 65.349754,146.203720 65.108353,145.975723 
	C60.124466,136.212875 55.140579,126.450035 50.036865,116.124786 
	C49.798000,115.289528 49.606377,115.084557 49.342178,114.947449 
	C46.902237,109.914749 44.462292,104.882042 41.997070,99.107414 
	C40.706062,96.220940 39.440331,94.076385 38.174599,91.931839 
	C37.487164,90.510963 36.799725,89.090096 36.284546,87.167419 
	C35.974461,86.109467 35.492111,85.553314 35.009762,84.997169 
	C34.237720,83.370483 33.465679,81.743805 32.728882,79.447784 
	C32.236805,78.162605 31.709492,77.546753 31.182178,76.930908 
	C30.803055,76.186768 30.423933,75.442627 29.967731,74.154938 
	C29.770178,73.308189 29.561773,73.088387 29.265442,72.951996 
	C28.565317,71.521393 27.865194,70.090797 27.354721,68.128113 
	C26.757792,66.374054 25.971210,65.152077 25.184631,63.930103 
	C21.097292,56.468033 18.256582,48.652847 20.527502,40.067787 
	C24.617584,24.605513 41.003162,17.416830 55.943436,25.221285 
	C62.732304,28.767635 68.417015,34.452816 74.523544,39.268024 
	C76.995293,41.217079 75.946518,43.147263 74.333656,45.256992 
	C66.603615,55.368378 59.935825,66.049545 57.335178,78.774353 
	C54.383320,93.217667 59.527714,104.188950 72.685944,111.261345 
	C73.687569,111.796120 74.348434,111.870140 75.009293,111.944160 
	C75.434547,111.999893 75.859802,112.055634 76.678711,112.484543 
	C78.046761,112.910095 79.021164,112.962471 79.995567,113.014847 
	C82.042259,113.012650 84.088951,113.010445 86.759155,113.271790 
	C88.288750,113.126175 89.194832,112.717010 90.100906,112.307854 
	C90.520638,112.221161 90.940369,112.134468 91.841339,112.251617 
	C92.907318,112.039001 93.492050,111.622551 94.076782,111.206100 
	C94.840515,110.835709 95.604240,110.465309 96.850739,110.271118 
	C97.878700,109.948875 98.423897,109.450424 98.969101,108.951981 
	C100.085007,108.037148 101.200912,107.122322 102.933212,106.057388 
	C104.015549,105.245750 104.481499,104.584206 104.947449,103.922661 
	C105.467796,103.065994 105.988136,102.209335 107.105179,101.121239 
	C108.071281,99.854256 108.440681,98.818695 108.810081,97.783142 
	C108.899643,97.404282 108.989204,97.025429 109.446716,96.315857 
	C109.903694,95.328773 109.992729,94.672401 110.081757,94.016037 
	C110.109543,93.587242 110.137321,93.158440 110.541855,92.332092 
	C110.949287,90.958061 110.979980,89.981590 111.010666,89.005112 
	C110.993752,86.963570 110.976837,84.922028 111.189362,82.299805 
	C111.063347,81.109131 110.707886,80.499123 110.352425,79.889122 
	C110.232903,79.169868 110.113388,78.450623 110.231773,77.164742 
	C109.757118,75.029305 109.044548,73.460503 108.331978,71.891693 
	C107.554848,69.892044 106.777718,67.892387 105.917381,65.289520 
	C105.610626,64.446732 105.387070,64.207146 105.163521,63.967564 
	C105.163521,63.967564 104.993546,63.560722 104.983696,62.970291 
	C103.984695,60.919144 102.995544,59.458427 102.006386,57.997711 
	C101.693123,57.539139 101.379860,57.080570 101.029030,55.986832 
	C100.332634,54.565872 99.673813,53.780083 99.014992,52.994293 
	C98.677361,52.563770 98.339729,52.133247 97.979210,51.048519 
	C96.924469,49.294750 95.892616,48.195187 94.860764,47.095627 
	C94.243568,46.321224 93.626366,45.546825 92.974792,44.062561 
	C92.997482,41.964375 93.054543,40.576050 93.111610,39.187721 
	C94.267067,37.918297 95.422523,36.648876 97.221939,35.219334 
	C98.891441,34.010677 99.916992,32.962135 100.942543,31.913597 
	C102.038620,30.958540 103.134697,30.003485 104.900383,28.999557 
	C106.364876,28.281752 107.159767,27.612822 107.954651,26.943890 
	C107.954651,26.943888 108.001472,26.992655 108.325546,26.995918 
	C109.454140,26.389111 110.258659,25.779039 111.063179,25.168968 
	C111.063179,25.168970 111.452339,25.002750 111.900543,24.929777 
	C112.665405,24.732914 112.895927,24.517069 113.040306,24.209270 
z"/>
<path fill="#F8FEF8" opacity="1.000000" stroke="none" 
	d="
M69.700348,96.100159 
	C65.534874,89.181847 66.497475,82.325867 68.868210,75.606461 
	C72.089325,66.476837 77.007645,58.297947 84.000092,50.342545 
	C92.521469,61.650017 100.149429,72.619476 100.672264,86.763329 
	C100.937813,93.947174 96.454842,99.768051 90.025078,102.099609 
	C82.378288,104.872490 75.956573,103.052788 69.700348,96.100159 
z"/>
<path fill="#D2FDD6" opacity="1.000000" stroke="none" 
	d="
M134.270477,80.808197 
	C135.363083,77.691879 136.742493,74.387642 138.441528,70.997925 
	C137.359848,74.148392 135.958542,77.384338 134.270477,80.808197 
z"/>
<path fill="#D2FDD6" opacity="1.000000" stroke="none" 
	d="
M38.152092,92.284912 
	C39.440331,94.076385 40.706062,96.220940 41.926022,98.755707 
	C40.630032,96.976616 39.379810,94.807297 38.152092,92.284912 
z"/>
<path fill="#D2FDD6" opacity="1.000000" stroke="none" 
	d="
M102.019623,58.338703 
	C102.995544,59.458427 103.984695,60.919144 104.932640,62.755825 
	C103.938576,61.647758 102.985718,60.163727 102.019623,58.338703 
z"/>
<path fill="#D2FDD6" opacity="1.000000" stroke="none" 
	d="
M132.798553,23.706181 
	C131.364426,23.620747 129.725739,23.256554 127.996201,22.585209 
	C129.468231,22.661180 131.031097,23.044302 132.798553,23.706181 
z"/>
<path fill="#D2FDD6" opacity="1.000000" stroke="none" 
	d="
M108.272491,72.239822 
	C109.044548,73.460503 109.757118,75.029305 110.227699,76.799217 
	C109.394814,75.529533 108.803909,74.058746 108.272491,72.239822 
z"/>
<path fill="#D2FDD6" opacity="1.000000" stroke="none" 
	d="
M94.919014,47.415668 
	C95.892616,48.195187 96.924469,49.294750 97.915253,50.773468 
	C96.908546,50.013653 95.942909,48.874683 94.919014,47.415668 
z"/>
<path fill="#D2FDD6" opacity="1.000000" stroke="none" 
	d="
M92.787552,39.274734 
	C93.054543,40.576050 92.997482,41.964375 92.888519,43.773537 
	C90.660240,42.741924 90.273796,41.151287 92.787552,39.274734 
z"/>
<path fill="#D2FDD6" opacity="1.000000" stroke="none" 
	d="
M25.154819,64.267548 
	C25.971210,65.152077 26.757792,66.374054 27.314516,67.788582 
	C26.431442,66.855759 25.778227,65.730370 25.154819,64.267548 
z"/>
<path fill="#D2FDD6" opacity="1.000000" stroke="none" 
	d="
M100.619263,31.958799 
	C99.916992,32.962135 98.891441,34.010677 97.513885,35.078453 
	C98.206566,34.066460 99.251274,33.035233 100.619263,31.958799 
z"/>
<path fill="#D2FDD6" opacity="1.000000" stroke="none" 
	d="
M143.041214,31.605103 
	C142.034622,30.914692 140.988235,29.900372 139.916794,28.536354 
	C140.928299,29.218166 141.964844,30.249678 143.041214,31.605103 
z"/>
<path fill="#D2FDD6" opacity="1.000000" stroke="none" 
	d="
M93.325363,157.963943 
	C93.799171,157.016647 94.607368,156.049179 95.764526,155.078857 
	C95.295578,156.031937 94.477661,156.987854 93.325363,157.963943 
z"/>
<path fill="#D2FDD6" opacity="1.000000" stroke="none" 
	d="
M119.741074,22.148415 
	C119.185341,22.662968 118.290749,23.099741 117.204620,23.295303 
	C117.809456,22.726276 118.605835,22.398457 119.741074,22.148415 
z"/>
<path fill="#D2FDD6" opacity="1.000000" stroke="none" 
	d="
M147.781296,43.772793 
	C147.296616,43.184986 146.915939,42.265026 146.792297,41.168709 
	C147.327988,41.808441 147.606644,42.624538 147.781296,43.772793 
z"/>
<path fill="#D2FDD6" opacity="1.000000" stroke="none" 
	d="
M82.187798,161.226334 
	C82.882988,160.818741 83.761597,160.649414 84.818016,160.733673 
	C84.120956,161.146362 83.246086,161.305481 82.187798,161.226334 
z"/>
<path fill="#D2FDD6" opacity="1.000000" stroke="none" 
	d="
M89.765808,112.222000 
	C89.194832,112.717010 88.288750,113.126175 87.197357,113.291779 
	C87.818260,112.744186 88.624481,112.440170 89.765808,112.222000 
z"/>
<path fill="#D2FDD6" opacity="1.000000" stroke="none" 
	d="
M79.778687,112.753143 
	C79.021164,112.962471 78.046761,112.910095 76.991409,112.560944 
	C77.794235,112.339920 78.678024,112.415680 79.778687,112.753143 
z"/>
<path fill="#D2FDD6" opacity="1.000000" stroke="none" 
	d="
M110.757904,89.231941 
	C110.979980,89.981590 110.949287,90.958061 110.629272,92.021393 
	C110.395004,91.225090 110.450066,90.341927 110.757904,89.231941 
z"/>
<path fill="#D2FDD6" opacity="1.000000" stroke="none" 
	d="
M147.213837,50.769272 
	C146.997452,50.015759 147.044052,49.042675 147.377625,47.981110 
	C147.602020,48.778313 147.539413,49.664009 147.213837,50.769272 
z"/>
<path fill="#D2FDD6" opacity="1.000000" stroke="none" 
	d="
M66.918388,149.395172 
	C67.563515,149.878296 68.240143,150.680450 68.854004,151.859985 
	C68.177460,151.396317 67.563667,150.555252 66.918388,149.395172 
z"/>
<path fill="#D2FDD6" opacity="1.000000" stroke="none" 
	d="
M110.741913,25.139557 
	C110.258659,25.779039 109.454140,26.389111 108.301437,26.974949 
	C108.775711,26.337194 109.598183,25.723671 110.741913,25.139557 
z"/>
<path fill="#D2FDD6" opacity="1.000000" stroke="none" 
	d="
M145.003876,34.669575 
	C144.346527,34.210648 143.683716,33.430180 143.047516,32.291115 
	C143.715561,32.737686 144.356995,33.542862 145.003876,34.669575 
z"/>
<path fill="#D2FDD6" opacity="1.000000" stroke="none" 
	d="
M107.456314,135.032196 
	C107.541245,134.182816 107.888412,133.144897 108.585388,132.036621 
	C108.529648,132.925385 108.124100,133.884521 107.456314,135.032196 
z"/>
<path fill="#D2FDD6" opacity="1.000000" stroke="none" 
	d="
M108.546417,97.965729 
	C108.440681,98.818695 108.071281,99.854256 107.343147,100.939163 
	C107.417191,100.041786 107.849968,99.095047 108.546417,97.965729 
z"/>
<path fill="#D2FDD6" opacity="1.000000" stroke="none" 
	d="
M103.406662,142.986328 
	C103.481407,142.135086 103.832489,141.113556 104.521927,140.011093 
	C104.467857,140.892120 104.075424,141.854080 103.406662,142.986328 
z"/>
<path fill="#D2FDD6" opacity="1.000000" stroke="none" 
	d="
M127.437180,95.014740 
	C127.502808,94.163574 127.833839,93.128883 128.506653,92.017456 
	C128.466476,92.904228 128.084534,93.867722 127.437180,95.014740 
z"/>
<path fill="#D2FDD6" opacity="1.000000" stroke="none" 
	d="
M107.634888,26.965145 
	C107.159767,27.612822 106.364876,28.281752 105.200180,28.903931 
	C105.658623,28.233583 106.486877,27.609991 107.634888,26.965145 
z"/>
<path fill="#D2FDD6" opacity="1.000000" stroke="none" 
	d="
M99.027412,53.315109 
	C99.673813,53.780083 100.332634,54.565872 100.968887,55.709625 
	C100.310829,55.257027 99.675331,54.446472 99.027412,53.315109 
z"/>
<path fill="#D2FDD6" opacity="1.000000" stroke="none" 
	d="
M93.775986,111.157928 
	C93.492050,111.622551 92.907318,112.039001 92.162712,112.233170 
	C92.493622,111.710518 92.984398,111.410141 93.775986,111.157928 
z"/>
<path fill="#D2FDD6" opacity="1.000000" stroke="none" 
	d="
M144.117004,59.805595 
	C143.973984,59.318512 144.093353,58.665787 144.472504,57.958542 
	C144.614670,58.482666 144.497055,59.061310 144.117004,59.805595 
z"/>
<path fill="#D2FDD6" opacity="1.000000" stroke="none" 
	d="
M106.134079,137.820496 
	C106.025215,137.323837 106.185104,136.675293 106.622482,135.992645 
	C106.734261,136.528564 106.568550,137.098572 106.134079,137.820496 
z"/>
<path fill="#D2FDD6" opacity="1.000000" stroke="none" 
	d="
M78.162460,160.330826 
	C78.646019,160.133957 79.307167,160.182129 80.023933,160.503876 
	C79.499718,160.710251 78.919876,160.643051 78.162460,160.330826 
z"/>
<path fill="#D2FDD6" opacity="1.000000" stroke="none" 
	d="
M87.214996,160.840256 
	C87.516060,160.381821 88.114563,159.994354 88.863831,159.839752 
	C88.513878,160.352158 88.013153,160.631699 87.214996,160.840256 
z"/>
<path fill="#D2FDD6" opacity="1.000000" stroke="none" 
	d="
M112.230621,125.838684 
	C112.126091,125.345863 112.279854,124.698112 112.725952,124.031769 
	C112.841827,124.570030 112.665375,125.126892 112.230621,125.838684 
z"/>
<path fill="#D2FDD6" opacity="1.000000" stroke="none" 
	d="
M114.286972,121.848129 
	C114.156906,121.350861 114.281380,120.695824 114.699608,120.018936 
	C114.842751,120.561516 114.692131,121.125931 114.286972,121.848129 
z"/>
<path fill="#D2FDD6" opacity="1.000000" stroke="none" 
	d="
M146.766693,38.802368 
	C146.294968,38.518536 145.894104,37.933491 145.699219,37.184303 
	C146.215988,37.513824 146.526764,38.007492 146.766693,38.802368 
z"/>
<path fill="#D2FDD6" opacity="1.000000" stroke="none" 
	d="
M110.260635,80.181915 
	C110.707886,80.499123 111.063347,81.109131 111.187782,81.862305 
	C110.694122,81.495216 110.431488,80.984962 110.260635,80.181915 
z"/>
<path fill="#D2FDD6" opacity="1.000000" stroke="none" 
	d="
M98.669128,108.958374 
	C98.423897,109.450424 97.878700,109.948875 97.165207,110.214691 
	C97.454330,109.642960 97.911743,109.303871 98.669128,108.958374 
z"/>
<path fill="#D2FDD6" opacity="1.000000" stroke="none" 
	d="
M132.293640,84.850098 
	C132.164276,84.353127 132.289978,83.697990 132.709625,83.022751 
	C132.851959,83.565735 132.700317,84.128838 132.293640,84.850098 
z"/>
<path fill="#D2FDD6" opacity="1.000000" stroke="none" 
	d="
M31.147137,77.239861 
	C31.709492,77.546753 32.236805,78.162605 32.648758,79.116653 
	C32.059628,78.819511 31.585861,78.184166 31.147137,77.239861 
z"/>
<path fill="#D2FDD6" opacity="1.000000" stroke="none" 
	d="
M34.999371,85.300453 
	C35.492111,85.553314 35.974461,86.109467 36.228264,86.832962 
	C35.662807,86.534782 35.325893,86.069260 34.999371,85.300453 
z"/>
<path fill="#D2FDD6" opacity="1.000000" stroke="none" 
	d="
M130.368301,88.863495 
	C130.246948,88.373207 130.368134,87.723228 130.794968,87.069275 
	C130.937363,87.611473 130.774094,88.157639 130.368301,88.863495 
z"/>
<path fill="#D2FDD6" opacity="1.000000" stroke="none" 
	d="
M109.836014,94.197708 
	C109.992729,94.672401 109.903694,95.328773 109.555191,96.044373 
	C109.393906,95.528870 109.492088,94.954132 109.836014,94.197708 
z"/>
<path fill="#D2FDD6" opacity="1.000000" stroke="none" 
	d="
M104.637772,103.976440 
	C104.481499,104.584206 104.015549,105.245750 103.208084,105.907059 
	C103.353745,105.281288 103.840927,104.655762 104.637772,103.976440 
z"/>
<path fill="#D2FDD6" opacity="1.000000" stroke="none" 
	d="
M122.222923,105.842117 
	C122.101860,105.341431 122.245773,104.690819 122.677635,104.011856 
	C122.806358,104.553062 122.647133,105.122627 122.222923,105.842117 
z"/>
<path fill="#D2FDD6" opacity="1.000000" stroke="none" 
	d="
M74.832428,111.700653 
	C74.348434,111.870140 73.687569,111.796120 72.981430,111.443298 
	C73.509285,111.262047 74.082420,111.359596 74.832428,111.700653 
z"/>
<path fill="#D2FDD6" opacity="1.000000" stroke="none" 
	d="
M126.375732,97.077667 
	C126.262482,96.900299 126.361839,96.577858 126.681999,96.118088 
	C126.797981,96.298050 126.693161,96.615318 126.375732,97.077667 
z"/>
<path fill="#D2FDD6" opacity="1.000000" stroke="none" 
	d="
M112.789246,24.208138 
	C112.895927,24.517069 112.665405,24.732914 112.106934,24.883141 
	C112.089470,24.675320 112.313828,24.441162 112.789246,24.208138 
z"/>
<path fill="#D2FDD6" opacity="1.000000" stroke="none" 
	d="
M102.297119,144.996979 
	C102.055878,144.765732 102.171959,144.467453 102.634293,144.094971 
	C102.734436,144.270279 102.625740,144.573349 102.297119,144.996979 
z"/>
<path fill="#D2FDD6" opacity="1.000000" stroke="none" 
	d="
M65.136032,146.229034 
	C65.349754,146.203720 65.591164,146.431717 65.857857,146.915817 
	C65.643341,146.942062 65.403534,146.712189 65.136032,146.229034 
z"/>
<path fill="#D2FDD6" opacity="1.000000" stroke="none" 
	d="
M69.142990,153.222900 
	C69.436806,153.071533 69.685959,153.273117 69.909073,153.818024 
	C69.705414,153.862411 69.443848,153.667252 69.142990,153.222900 
z"/>
<path fill="#D2FDD6" opacity="1.000000" stroke="none" 
	d="
M105.174530,64.219971 
	C105.387070,64.207146 105.610626,64.446732 105.847885,64.939896 
	C105.636238,64.953110 105.410896,64.712738 105.174530,64.219971 
z"/>
<path fill="#D2FDD6" opacity="1.000000" stroke="none" 
	d="
M29.261284,73.195251 
	C29.561773,73.088387 29.770178,73.308189 29.922672,73.842430 
	C29.612644,73.982063 29.380125,73.770409 29.261284,73.195251 
z"/>
<path fill="#D2FDD6" opacity="1.000000" stroke="none" 
	d="
M49.322388,115.181290 
	C49.606377,115.084557 49.798000,115.289528 49.963451,115.772095 
	C49.669804,115.922974 49.434052,115.734077 49.322388,115.181290 
z"/>
<path fill="#D2FDD6" opacity="1.000000" stroke="none" 
	d="
M140.228378,67.917236 
	C140.017914,67.704010 140.129822,67.434502 140.526047,67.080200 
	C140.818375,67.300179 140.731827,67.588692 140.228378,67.917236 
z"/>
</svg>