<?xml version="1.0" standalone="yes"?>
<svg xmlns="http://www.w3.org/2000/svg" width="491" height="165">
<path style="fill:#fefffe; stroke:none;" d="M0 0L0 165L491 165L491 0L0 0z"/>
<path style="fill:#c6f2c4; stroke:none;" d="M55 29L56 30L55 29z"/>
<path style="fill:#a0e8a0; stroke:none;" d="M56.6667 29.3333L57.3333 29.6667L56.6667 29.3333z"/>
<path style="fill:#8be086; stroke:none;" d="M58.6667 29.3333L59.3333 29.6667L58.6667 29.3333z"/>
<path style="fill:#74de6e; stroke:none;" d="M60 29.6134C47.9502 30.2588 37.989 41.979 39.8472 54C42.9507 74.0771 57.7209 95.1468 66.892 113C71.1877 121.362 76.5642 133.08 88 132.347C98.1402 131.697 103.335 122.065 107.222 114C114.134 99.6596 120.969 85.2302 128.104 71C133.324 60.5903 138.137 49.7142 130.892 39.0154C123.316 27.8276 108.522 27.9193 98.0147 34.659C95.0895 36.5352 90.7022 42.8153 86.9097 42.2454C77.17 40.7816 71.9083 28.9756 60 29.6134z"/>
<path style="fill:#8be086; stroke:none;" d="M62.6667 29.3333L63.3333 29.6667L62.6667 29.3333z"/>
<path style="fill:#a0e8a0; stroke:none;" d="M64.6667 29.3333L65.3333 29.6667L64.6667 29.3333z"/>
<path style="fill:#c6f2c4; stroke:none;" d="M66.6667 29.3333L67.3333 29.6667L66.6667 29.3333M107 29L108 30L107 29z"/>
<path style="fill:#a0e8a0; stroke:none;" d="M108 29L108 30L111 30L108 29z"/>
<path style="fill:#8be086; stroke:none;" d="M111.667 29.3333L112.333 29.6667L111.667 29.3333M114.667 29.3333L115.333 29.6667L114.667 29.3333z"/>
<path style="fill:#a0e8a0; stroke:none;" d="M116.667 29.3333L117.333 29.6667L116.667 29.3333z"/>
<path style="fill:#c6f2c4; stroke:none;" d="M118.667 29.3333L119.333 29.6667L118.667 29.3333M52 30L53 31L52 30z"/>
<path style="fill:#a0e8a0; stroke:none;" d="M53 30L54 31L53 30z"/>
<path style="fill:#8be086; stroke:none;" d="M54 30L55 31L54 30M66 30L66 31L71 32L71 31L66 30z"/>
<path style="fill:#c6f2c4; stroke:none;" d="M69.6667 30.3333L70.3333 30.6667L69.6667 30.3333M104 30L105 31L104 30z"/>
<path style="fill:#a0e8a0; stroke:none;" d="M105 30L106 31L105 30z"/>
<path style="fill:#8be086; stroke:none;" d="M106.667 30.3333L107.333 30.6667L106.667 30.3333M119 30L119 31L126 34L126 33L119 30z"/>
<path style="fill:#c6f2c4; stroke:none;" d="M121.667 30.3333L122.333 30.6667L121.667 30.3333M50 31L51 32L50 31z"/>
<path style="fill:#a0e8a0; stroke:none;" d="M51 31L52 32L51 31z"/>
<path style="fill:#8be086; stroke:none;" d="M52 31L53 32L52 31z"/>
<path style="fill:#a0e8a0; stroke:none;" d="M71 31L72 32L71 31z"/>
<path style="fill:#c6f2c4; stroke:none;" d="M72 31L73 32L72 31M100 33L103 32L100 33z"/>
<path style="fill:#a0e8a0; stroke:none;" d="M103 31L104 32L103 31z"/>
<path style="fill:#8be086; stroke:none;" d="M104 31L105 32L104 31z"/>
<path style="fill:#a0e8a0; stroke:none;" d="M123 31L124 32L123 31z"/>
<path style="fill:#c6f2c4; stroke:none;" d="M124 31L125 32L124 31M48 32L46 35L48 32z"/>
<path style="fill:#a0e8a0; stroke:none;" d="M49 32L50 33L49 32z"/>
<path style="fill:#8be086; stroke:none;" d="M50 32L51 33L50 32z"/>
<path style="fill:#a0e8a0; stroke:none;" d="M73 32L74 33L73 32z"/>
<path style="fill:#c6f2c4; stroke:none;" d="M74 32L74 33L79 36L74 32z"/>
<path style="fill:#8be086; stroke:none;" d="M101.667 32.3333L102.333 32.6667L101.667 32.3333z"/>
<path style="fill:#c6f2c4; stroke:none;" d="M125 32L126 33L125 32z"/>
<path style="fill:#8be086; stroke:none;" d="M48 33L49 34L48 33M74 33L75 34L74 33z"/>
<path style="fill:#c6f2c4; stroke:none;" d="M98 33L99 34L98 33z"/>
<path style="fill:#a0e8a0; stroke:none;" d="M99 33L100 34L99 33M126 33L127 34L126 33z"/>
<path style="fill:#8be086; stroke:none;" d="M47 34L48 35L47 34M76 34L77 35L76 34z"/>
<path style="fill:#c6f2c4; stroke:none;" d="M96 34L94 37L96 34z"/>
<path style="fill:#a0e8a0; stroke:none;" d="M97 34L98 35L97 34M127 34L131 38L127 34z"/>
<path style="fill:#c6f2c4; stroke:none;" d="M128 34L129 35L128 34M45 35L42 39L45 35z"/>
<path style="fill:#8be086; stroke:none;" d="M56 35L57 36L56 35z"/>
<path style="fill:#a0e8a0; stroke:none;" d="M57 35L58 36L57 35z"/>
<path style="fill:#c6f2c4; stroke:none;" d="M58 35L58 36L64 36L58 35z"/>
<path style="fill:#a0e8a0; stroke:none;" d="M64 35L65 36L64 35z"/>
<path style="fill:#8be086; stroke:none;" d="M65.6667 35.3333L66.3333 35.6667L65.6667 35.3333M77 35L78 36L77 35z"/>
<path style="fill:#a0e8a0; stroke:none;" d="M96 35L97 36L96 35z"/>
<path style="fill:#8be086; stroke:none;" d="M107.667 35.3333L108.333 35.6667L107.667 35.3333z"/>
<path style="fill:#a0e8a0; stroke:none;" d="M109 35L110 36L109 35z"/>
<path style="fill:#c6f2c4; stroke:none;" d="M110 35L110 36L116 36L110 35z"/>
<path style="fill:#a0e8a0; stroke:none;" d="M116.667 35.3333L117.333 35.6667L116.667 35.3333z"/>
<path style="fill:#8be086; stroke:none;" d="M118 35L119 36L118 35z"/>
<path style="fill:#c6f2c4; stroke:none;" d="M129 35L130 36L129 35z"/>
<path style="fill:#8be086; stroke:none;" d="M45 36L46 37L45 36M53 36L54 37L53 36z"/>
<path style="fill:#a0e8a0; stroke:none;" d="M54 36L55 37L54 36z"/>
<path style="fill:#c6f2c4; stroke:none;" d="M55.6667 36.3333L56.3333 36.6667L55.6667 36.3333z"/>
<path style="fill:#fefffe; stroke:none;" d="M82 49C74.2528 38.0323 48.1791 27.1688 46.1057 49C45.0697 59.9081 53.1578 71.5331 57.7415 81C62.9174 91.6899 67.8978 102.446 73.3588 113C75.757 117.635 78.5588 123.657 84.0147 125.157C92.9195 127.604 97.5041 118.493 100.753 112C109.265 94.9895 126.184 72.1353 127.895 53C128.802 42.8573 121.295 34.9534 111 36.186C108.547 36.4796 106.204 37.2759 104 38.3781C84.6211 48.0675 103.402 60.0726 104.823 75C105.954 86.893 94.9274 97.3467 83 94.4668C58.5416 88.5614 72.7294 61.0609 82 49z"/>
<path style="fill:#c6f2c4; stroke:none;" d="M65.6667 36.3333L66.3333 36.6667L65.6667 36.3333z"/>
<path style="fill:#a0e8a0; stroke:none;" d="M67 36L68 37L67 36z"/>
<path style="fill:#8be086; stroke:none;" d="M68 36L68 37L71 38L68 36M78 36L79 37L78 36z"/>
<path style="fill:#a0e8a0; stroke:none;" d="M79 36L81 38L79 36z"/>
<path style="fill:#c6f2c4; stroke:none;" d="M80 36L81 37L80 36z"/>
<path style="fill:#8be086; stroke:none;" d="M95 36L96 37L95 36M103 38L106 37L103 38z"/>
<path style="fill:#a0e8a0; stroke:none;" d="M106 36L107 37L106 36z"/>
<path style="fill:#c6f2c4; stroke:none;" d="M107.667 36.3333L108.333 36.6667L107.667 36.3333M118 36L119 37L118 36z"/>
<path style="fill:#a0e8a0; stroke:none;" d="M119 36L120 37L119 36z"/>
<path style="fill:#8be086; stroke:none;" d="M120 36L120 37L127 42L120 36z"/>
<path style="fill:#c6f2c4; stroke:none;" d="M130 36L131 37L130 36z"/>
<path style="fill:#8be086; stroke:none;" d="M44 37L45 38L44 37z"/>
<path style="fill:#a0e8a0; stroke:none;" d="M52 37L53 38L52 37z"/>
<path style="fill:#c6f2c4; stroke:none;" d="M53 37L54 38L53 37M68.6667 37.3333L69.3333 37.6667L68.6667 37.3333M81 37C83.5891 40.5438 86.2153 43.4603 90 40L81 37z"/>
<path style="fill:#a0e8a0; stroke:none;" d="M93 37L94 38L93 37z"/>
<path style="fill:#8be086; stroke:none;" d="M94 37L95 38L94 37z"/>
<path style="fill:#c6f2c4; stroke:none;" d="M104.667 37.3333L105.333 37.6667L104.667 37.3333M120 37L121 38L120 37z"/>
<path style="fill:#a0e8a0; stroke:none;" d="M121 37L122 38L121 37z"/>
<path style="fill:#8be086; stroke:none;" d="M43 38L44 39L43 38M50 38L48 41L50 38z"/>
<path style="fill:#a0e8a0; stroke:none;" d="M51 38L52 39L51 38z"/>
<path style="fill:#c6f2c4; stroke:none;" d="M70 38L71 39L70 38z"/>
<path style="fill:#a0e8a0; stroke:none;" d="M71 38L72 39L71 38z"/>
<path style="fill:#8be086; stroke:none;" d="M72 38L73 39L72 38M81 38L82 39L81 38z"/>
<path style="fill:#c6f2c4; stroke:none;" d="M91 38L92 39L91 38z"/>
<path style="fill:#a0e8a0; stroke:none;" d="M92 38L91 40L92 38z"/>
<path style="fill:#8be086; stroke:none;" d="M101 38L102 39L101 38z"/>
<path style="fill:#a0e8a0; stroke:none;" d="M102 38L103 39L102 38z"/>
<path style="fill:#c6f2c4; stroke:none;" d="M103 38L104 39L103 38M122 38L123 39L122 38z"/>
<path style="fill:#8be086; stroke:none;" d="M130 38L132 40L130 38z"/>
<path style="fill:#c6f2c4; stroke:none;" d="M131 38L132 39L131 38z"/>
<path style="fill:#a0e8a0; stroke:none;" d="M42 39L43 40L42 39z"/>
<path style="fill:#c6f2c4; stroke:none;" d="M50 39L51 40L50 39M72 39L74 41L72 39z"/>
<path style="fill:#a0e8a0; stroke:none;" d="M73 39L74 40L73 39z"/>
<path style="fill:#8be086; stroke:none;" d="M82 39L83 40L82 39M92 39L93 40L92 39z"/>
<path style="fill:#a0e8a0; stroke:none;" d="M100 39L99 41L100 39z"/>
<path style="fill:#c6f2c4; stroke:none;" d="M101 39L102 40L101 39M123 39L124 40L123 39M132 39L133 40L132 39M41 40L42 41L41 40M49 40L50 41L49 40z"/>
<path style="fill:#a0e8a0; stroke:none;" d="M74 40L75 41L74 40z"/>
<path style="fill:#8be086; stroke:none;" d="M75 40L79 44L75 40M83 40L84 41L83 40z"/>
<path style="fill:#a0e8a0; stroke:none;" d="M90 40L91 41L90 40z"/>
<path style="fill:#8be086; stroke:none;" d="M98 40L95 44L98 40z"/>
<path style="fill:#c6f2c4; stroke:none;" d="M100 40L101 41L100 40M124 40L125 41L124 40z"/>
<path style="fill:#a0e8a0; stroke:none;" d="M132 40L133 41L132 40M41 41L42 42L41 41z"/>
<path style="fill:#c6f2c4; stroke:none;" d="M48 41L49 42L48 41M75 41L76 42L75 41z"/>
<path style="fill:#8be086; stroke:none;" d="M84 41L85 42L84 41z"/>
<path style="fill:#a0e8a0; stroke:none;" d="M89 41L88 43L89 41z"/>
<path style="fill:#c6f2c4; stroke:none;" d="M98 41L99 42L98 41M125 41L126 42L125 41z"/>
<path style="fill:#8be086; stroke:none;" d="M132 41L133 42L132 41z"/>
<path style="fill:#c6f2c4; stroke:none;" d="M133 41L134 42L133 41M40 42L41 43L40 42z"/>
<path style="fill:#8be086; stroke:none;" d="M41 42L42 43L41 42z"/>
<path style="fill:#a0e8a0; stroke:none;" d="M47 42L48 43L47 42z"/>
<path style="fill:#c6f2c4; stroke:none;" d="M76 42L77 43L76 42z"/>
<path style="fill:#8be086; stroke:none;" d="M85 42L86 43L85 42M89 42L90 43L89 42z"/>
<path style="fill:#c6f2c4; stroke:none;" d="M97 42L98 43L97 42z"/>
<path style="fill:#a0e8a0; stroke:none;" d="M126 42L127 43L126 42M133 42L134 43L133 42M40 43L41 44L40 43z"/>
<path style="fill:#8be086; stroke:none;" d="M46 43L47 44L46 43z"/>
<path style="fill:#c6f2c4; stroke:none;" d="M47 43L48 44L47 43M77 43L78 44L77 43z"/>
<path style="fill:#8be086; stroke:none;" d="M86.6667 43.3333L87.3333 43.6667L86.6667 43.3333z"/>
<path style="fill:#c6f2c4; stroke:none;" d="M96 43L97 44L96 43M126 43L127 46L128 46L126 43z"/>
<path style="fill:#8be086; stroke:none;" d="M127 43L128 44L127 43M133 43L134 44L133 43z"/>
<path style="fill:#c6f2c4; stroke:none;" d="M134.333 43.6667L134.667 44.3333L134.333 43.6667M39 44L39 47L40 47L39 44z"/>
<path style="fill:#8be086; stroke:none;" d="M40.3333 44.6667L40.6667 45.3333L40.3333 44.6667z"/>
<path style="fill:#a0e8a0; stroke:none;" d="M46 44L47 45L46 44z"/>
<path style="fill:#c6f2c4; stroke:none;" d="M78 44L82 48L78 44z"/>
<path style="fill:#a0e8a0; stroke:none;" d="M79 44L80 45L79 44z"/>
<path style="fill:#8be086; stroke:none;" d="M80.3333 44.6667L80.6667 45.3333L80.3333 44.6667M93.3333 44.6667L93.6667 45.3333L93.3333 44.6667z"/>
<path style="fill:#a0e8a0; stroke:none;" d="M94 44L95 45L94 44z"/>
<path style="fill:#c6f2c4; stroke:none;" d="M95 44L96 45L95 44z"/>
<path style="fill:#8be086; stroke:none;" d="M45.3333 45.6667L45.6667 46.3333L45.3333 45.6667z"/>
<path style="fill:#c6f2c4; stroke:none;" d="M46 45L47 46L46 45M94 45L95 46L94 45z"/>
<path style="fill:#8be086; stroke:none;" d="M128 45L129 46L128 45z"/>
<path style="fill:#a0e8a0; stroke:none;" d="M134 45L135 46L134 45z"/>
<path style="fill:#8be086; stroke:none;" d="M81 46L82 47L81 46z"/>
<path style="fill:#a0e8a0; stroke:none;" d="M92 46L93 47L92 46z"/>
<path style="fill:#c6f2c4; stroke:none;" d="M93 46L94 47L93 46z"/>
<path style="fill:#a0e8a0; stroke:none;" d="M128.333 46.6667L128.667 47.3333L128.333 46.6667z"/>
<path style="fill:#8be086; stroke:none;" d="M134 46L135 47L134 46z"/>
<path style="fill:#a0e8a0; stroke:none;" d="M39 47L40 48L39 47M45.3333 47.6667L45.6667 48.3333L45.3333 47.6667z"/>
<path style="fill:#8be086; stroke:none;" d="M82 47L83 48L82 47M91 47L92 48L91 47z"/>
<path style="fill:#c6f2c4; stroke:none;" d="M92 47L95 52L92 47z"/>
<path style="fill:#8be086; stroke:none;" d="M39.3333 48.6667L39.6667 49.3333L39.3333 48.6667z"/>
<path style="fill:#a0e8a0; stroke:none;" d="M82 48L83 49L82 48M91 48L92 49L91 48z"/>
<path style="fill:#c6f2c4; stroke:none;" d="M128 48L128 54L129 54L128 48M45 49L45 54L46 54L45 49M81 49L80 51L81 49z"/>
<path style="fill:#8be086; stroke:none;" d="M82 49L83 50L82 49z"/>
<path style="fill:#c6f2c4; stroke:none;" d="M38 50L38 54L39 54L38 50z"/>
<path style="fill:#a0e8a0; stroke:none;" d="M81 50L82 51L81 50z"/>
<path style="fill:#8be086; stroke:none;" d="M92 50L93 51L92 50z"/>
<path style="fill:#c6f2c4; stroke:none;" d="M135.333 50.6667L135.667 51.3333L135.333 50.6667z"/>
<path style="fill:#a0e8a0; stroke:none;" d="M80 51L81 52L80 51z"/>
<path style="fill:#8be086; stroke:none;" d="M93 51L94 52L93 51M39 52L39 55L40 55L39 52z"/>
<path style="fill:#c6f2c4; stroke:none;" d="M79 52L78 54L79 52z"/>
<path style="fill:#8be086; stroke:none;" d="M80 52L81 53L80 52z"/>
<path style="fill:#a0e8a0; stroke:none;" d="M94 52L95 53L94 52z"/>
<path style="fill:#8be086; stroke:none;" d="M79 53L80 54L79 53M85 54L85 55L90 56L85 54M94 53L96 55L94 53z"/>
<path style="fill:#c6f2c4; stroke:none;" d="M95 53L96 54L95 53z"/>
<path style="fill:#a0e8a0; stroke:none;" d="M45.3333 54.6667L45.6667 55.3333L45.3333 54.6667z"/>
<path style="fill:#8be086; stroke:none;" d="M78 54L79 55L78 54z"/>
<path style="fill:#c6f2c4; stroke:none;" d="M86 54L86 55L89 56L86 54M96 54L97 55L96 54z"/>
<path style="fill:#a0e8a0; stroke:none;" d="M128.333 54.6667L128.667 55.3333L128.333 54.6667M39.3333 55.6667L39.6667 56.3333L39.3333 55.6667M77 55L78 56L77 55M85 55L84 57L85 55z"/>
<path style="fill:#fefffe; stroke:none;" d="M86 55C83.2746 59.5273 80.1373 64.0469 78.213 69C70.9207 87.77 97.2109 94.7779 96.9815 76C96.9475 73.2202 96.5207 70.605 95.5324 68C93.7333 63.2576 90.9159 59.1066 88 55L86 55z"/>
<path style="fill:#a0e8a0; stroke:none;" d="M96 55L97 56L96 55z"/>
<path style="fill:#8be086; stroke:none;" d="M134 55L135 56L134 55M45 56L47 59L45 56z"/>
<path style="fill:#c6f2c4; stroke:none;" d="M46.3333 56.6667L46.6667 57.3333L46.3333 56.6667M76 56L77 57L76 56z"/>
<path style="fill:#8be086; stroke:none;" d="M77 56L78 57L77 56z"/>
<path style="fill:#c6f2c4; stroke:none;" d="M85 56L86 57L85 56z"/>
<path style="fill:#a0e8a0; stroke:none;" d="M89 56L91 58L89 56z"/>
<path style="fill:#8be086; stroke:none;" d="M96 56L98 58L96 56z"/>
<path style="fill:#c6f2c4; stroke:none;" d="M97 56L98 57L97 56M127 56L126 60L127 60L127 56z"/>
<path style="fill:#8be086; stroke:none;" d="M128 56L129 57L128 56z"/>
<path style="fill:#a0e8a0; stroke:none;" d="M134 56L135 57L134 56z"/>
<path style="fill:#c6f2c4; stroke:none;" d="M39.3333 57.6667L39.6667 58.3333L39.3333 57.6667z"/>
<path style="fill:#8be086; stroke:none;" d="M40.3333 57.6667L40.6667 58.3333L40.3333 57.6667z"/>
<path style="fill:#a0e8a0; stroke:none;" d="M76 57L77 58L76 57z"/>
<path style="fill:#8be086; stroke:none;" d="M83 57L84 58L83 57z"/>
<path style="fill:#c6f2c4; stroke:none;" d="M84 57L85 58L84 57M89 57L90 58L89 57M98 57L99 58L98 57M134.333 57.6667L134.667 58.3333L134.333 57.6667M75 58L74 60L75 58z"/>
<path style="fill:#8be086; stroke:none;" d="M76 58L77 59L76 58z"/>
<path style="fill:#c6f2c4; stroke:none;" d="M83 58L84 59L83 58M90 58L91 59L90 58z"/>
<path style="fill:#8be086; stroke:none;" d="M91 58L92 59L91 58z"/>
<path style="fill:#a0e8a0; stroke:none;" d="M98 58L99 59L98 58z"/>
<path style="fill:#8be086; stroke:none;" d="M127.333 58.6667L127.667 59.3333L127.333 58.6667z"/>
<path style="fill:#a0e8a0; stroke:none;" d="M40 59L41 60L40 59z"/>
<path style="fill:#c6f2c4; stroke:none;" d="M47 59L48 60L47 59z"/>
<path style="fill:#8be086; stroke:none;" d="M75 59L76 60L75 59z"/>
<path style="fill:#a0e8a0; stroke:none;" d="M82 59L83 60L82 59M91 59L92 60L91 59z"/>
<path style="fill:#8be086; stroke:none;" d="M98 59L99 60L98 59z"/>
<path style="fill:#c6f2c4; stroke:none;" d="M99 59L100 60L99 59z"/>
<path style="fill:#a0e8a0; stroke:none;" d="M133 59L134 60L133 59z"/>
<path style="fill:#c6f2c4; stroke:none;" d="M40 60L41 61L40 60z"/>
<path style="fill:#8be086; stroke:none;" d="M41 60L42 61L41 60z"/>
<path style="fill:#a0e8a0; stroke:none;" d="M47 60L48 61L47 60M74 60L75 61L74 60z"/>
<path style="fill:#8be086; stroke:none;" d="M81 60L82 61L81 60z"/>
<path style="fill:#c6f2c4; stroke:none;" d="M82 60L83 61L82 60z"/>
<path style="fill:#8be086; stroke:none;" d="M92 60L94 62L92 60z"/>
<path style="fill:#a0e8a0; stroke:none;" d="M99 60L100 61L99 60M126 60L127 61L126 60z"/>
<path style="fill:#8be086; stroke:none;" d="M132 60L131 64L132 64L132 60z"/>
<path style="fill:#c6f2c4; stroke:none;" d="M133 60L134 61L133 60M307 81L308 81L308 61L316 61C304.291 56.0987 306.227 73.9691 307 81M325 60L325 61L333 61C333 66.2494 330.865 77.387 335 81C332.728 71.458 338.038 60.0461 325 60M423 110L421 114L414 114L414 61L422 61C419.439 59.9281 415.147 59.181 413.603 62.3179C409.278 71.1081 413 90.1875 413 100C413 103.651 411.951 109.326 413.603 112.682C416.207 117.97 421.616 113.262 423 110z"/>
<path style="fill:#a0e8a0; stroke:none;" d="M41 61L42 62L41 61z"/>
<path style="fill:#8be086; stroke:none;" d="M47 61L48 62L47 61z"/>
<path style="fill:#c6f2c4; stroke:none;" d="M48 61L49 62L48 61M73 61L74 62L73 61z"/>
<path style="fill:#8be086; stroke:none;" d="M74 61L75 62L74 61z"/>
<path style="fill:#a0e8a0; stroke:none;" d="M81 61L82 62L81 61z"/>
<path style="fill:#c6f2c4; stroke:none;" d="M92 61L93 62L92 61z"/>
<path style="fill:#8be086; stroke:none;" d="M99 61L100 62L99 61z"/>
<path style="fill:#c6f2c4; stroke:none;" d="M100 61L101 62L100 61M125 61L126 62L125 61z"/>
<path style="fill:#8be086; stroke:none;" d="M126 61L127 62L126 61z"/>
<path style="fill:#c6f2c4; stroke:none;" d="M166 61L166 62L170 62L166 61z"/>
<path style="fill:#74de6e; stroke:none;" d="M308 61L308 81C304.483 78.8849 301.217 76.4724 297 76.1088C271.183 73.8827 273.658 119.894 298 114.602C302.253 113.677 305.508 110.377 309 108L309 114L315 114L315 61L308 61z"/>
<path style="fill:#8be086; stroke:none;" d="M315 61L315 114L316 114L316 78L315 61z"/>
<path style="fill:#a0e8a0; stroke:none;" d="M325 61L325 114L326 114L326 78L325 61z"/>
<path style="fill:#74de6e; stroke:none;" d="M326 61L326 114L332 114L332 109C335.501 111.277 338.762 113.954 343 114.667C369.958 119.201 368.135 68.3551 341 76.804C337.787 77.8045 335.46 79.8068 333 82L333 61L326 61M414 61L414 114L421 114L421 109C424.798 111.47 428.318 114.346 433 114.799C458.271 117.247 456.6 70.5665 431 76.3943C427.212 77.2566 424.181 79.9248 421 82L421 61L414 61z"/>
<path style="fill:#a0e8a0; stroke:none;" d="M421 61L421 81L422 81L421 61z"/>
<path style="fill:#c6f2c4; stroke:none;" d="M41.3333 62.6667L41.6667 63.3333L41.3333 62.6667z"/>
<path style="fill:#8be086; stroke:none;" d="M42.3333 62.6667L42.6667 63.3333L42.3333 62.6667z"/>
<path style="fill:#a0e8a0; stroke:none;" d="M48 62L49 63L48 62M73 62L74 63L73 62z"/>
<path style="fill:#8be086; stroke:none;" d="M80 62L81 63L80 62z"/>
<path style="fill:#c6f2c4; stroke:none;" d="M81 62L82 63L81 62z"/>
<path style="fill:#a0e8a0; stroke:none;" d="M93 62L94 63L93 62M100 62L101 63L100 62M125 62L126 63L125 62M132 62L133 63L132 62z"/>
<path style="fill:#c6f2c4; stroke:none;" d="M162 62L163 63L162 62z"/>
<path style="fill:#8be086; stroke:none;" d="M163 62L164 63L163 62z"/>
<path style="fill:#74de6e; stroke:none;" d="M150 103C157.957 119.711 189.223 117.924 184.721 96C182.675 86.033 172.46 86.0842 165.015 82.7755C161.564 81.2415 158.343 78.0516 160.223 74.0432C165.525 62.7398 176.312 75.7407 184 74C176.251 48.071 137.869 70.9563 156.468 87.3619C160.353 90.7882 165.4 90.7869 169.999 92.5633C174.196 94.1842 178.685 98.0904 176.048 102.956C169.869 114.356 158.499 101.448 150 103z"/>
<path style="fill:#8be086; stroke:none;" d="M172 62L173 63L172 62z"/>
<path style="fill:#c6f2c4; stroke:none;" d="M173 62L174 63L173 62z"/>
<path style="fill:#8be086; stroke:none;" d="M48 63L50 68L51 68L48 63z"/>
<path style="fill:#c6f2c4; stroke:none;" d="M49 63L50 64L49 63M72 63L73 64L72 63z"/>
<path style="fill:#8be086; stroke:none;" d="M73 63L74 64L73 63z"/>
<path style="fill:#c6f2c4; stroke:none;" d="M80 63L78 68L79 68L80 63M93 63L94 64L93 63z"/>
<path style="fill:#8be086; stroke:none;" d="M94 63L95 64L94 63M100 63L101 64L100 63z"/>
<path style="fill:#c6f2c4; stroke:none;" d="M101 63L102 64L101 63M124 63L125 64L124 63z"/>
<path style="fill:#8be086; stroke:none;" d="M125 63L126 64L125 63z"/>
<path style="fill:#c6f2c4; stroke:none;" d="M132 63L133 64L132 63M159 63L160 64L159 63z"/>
<path style="fill:#a0e8a0; stroke:none;" d="M160 63L161 64L160 63M175 63L176 64L175 63z"/>
<path style="fill:#c6f2c4; stroke:none;" d="M176 63L177 64L176 63z"/>
<path style="fill:#a0e8a0; stroke:none;" d="M42 64L43 65L42 64M49 64L50 65L49 64M72 64L73 65L72 64M79 64L80 65L79 64M94 64L95 65L94 64M101 64L102 65L101 64M124 64L125 65L124 64M131 64L132 65L131 64z"/>
<path style="fill:#c6f2c4; stroke:none;" d="M157 64L158 65L157 64z"/>
<path style="fill:#a0e8a0; stroke:none;" d="M158 64L159 65L158 64M177 64L178 65L177 64z"/>
<path style="fill:#c6f2c4; stroke:none;" d="M42 65L43 66L42 65z"/>
<path style="fill:#8be086; stroke:none;" d="M43 65L44 66L43 65z"/>
<path style="fill:#c6f2c4; stroke:none;" d="M50.3333 65.6667L50.6667 66.3333L50.3333 65.6667M71.3333 65.6667L71.6667 66.3333L71.3333 65.6667z"/>
<path style="fill:#8be086; stroke:none;" d="M72 65L73 66L72 65M78.3333 65.6667L78.6667 66.3333L78.3333 65.6667z"/>
<path style="fill:#c6f2c4; stroke:none;" d="M94 65L95 66L94 65z"/>
<path style="fill:#8be086; stroke:none;" d="M95 65L96 66L95 65M101 65L102 66L101 65z"/>
<path style="fill:#c6f2c4; stroke:none;" d="M102.333 65.6667L102.667 66.3333L102.333 65.6667M123 65L121 71L122 71L123 65z"/>
<path style="fill:#8be086; stroke:none;" d="M124 65L125 66L124 65z"/>
<path style="fill:#c6f2c4; stroke:none;" d="M131 65L132 66L131 65M156 65L157 66L156 65M179 65L181 67L179 65z"/>
<path style="fill:#a0e8a0; stroke:none;" d="M43 66L44 67L43 66M95 66L96 67L95 66M130 66L131 67L130 66M155 66L156 67L155 66z"/>
<path style="fill:#8be086; stroke:none;" d="M179 66L180 67L179 66z"/>
<path style="fill:#c6f2c4; stroke:none;" d="M43 67L44 68L43 67z"/>
<path style="fill:#8be086; stroke:none;" d="M44 67L45 68L44 67z"/>
<path style="fill:#c6f2c4; stroke:none;" d="M51.3333 67.6667L51.6667 68.3333L51.3333 67.6667z"/>
<path style="fill:#a0e8a0; stroke:none;" d="M71 67L72 68L71 67z"/>
<path style="fill:#c6f2c4; stroke:none;" d="M95 67L96 68L95 67z"/>
<path style="fill:#8be086; stroke:none;" d="M96 67L97 68L96 67M102 67L103 68L102 67M123 67L124 68L123 67z"/>
<path style="fill:#c6f2c4; stroke:none;" d="M130 67L131 68L130 67M154 67L155 68L154 67M181 67L182 68L181 67z"/>
<path style="fill:#a0e8a0; stroke:none;" d="M44 68L45 69L44 68z"/>
<path style="fill:#c6f2c4; stroke:none;" d="M70.3333 68.6667L70.6667 69.3333L70.3333 68.6667z"/>
<path style="fill:#8be086; stroke:none;" d="M71.3333 68.6667L71.6667 69.3333L71.3333 68.6667M77 68L78 69L77 68z"/>
<path style="fill:#a0e8a0; stroke:none;" d="M96 68L97 69L96 68z"/>
<path style="fill:#c6f2c4; stroke:none;" d="M103 68L104 69L103 68z"/>
<path style="fill:#a0e8a0; stroke:none;" d="M129 68L130 69L129 68z"/>
<path style="fill:#c6f2c4; stroke:none;" d="M153 68L154 69L153 68M182 68L183 69L182 68M44 69L45 70L44 69z"/>
<path style="fill:#8be086; stroke:none;" d="M45 69L46 70L45 69z"/>
<path style="fill:#a0e8a0; stroke:none;" d="M51 69L52 70L51 69M77 69L78 70L77 69z"/>
<path style="fill:#c6f2c4; stroke:none;" d="M96.3333 69.6667L96.6667 70.3333L96.3333 69.6667z"/>
<path style="fill:#a0e8a0; stroke:none;" d="M103.333 69.6667L103.667 70.3333L103.333 69.6667M122 69L123 70L122 69z"/>
<path style="fill:#c6f2c4; stroke:none;" d="M129 69L130 70L129 69z"/>
<path style="fill:#8be086; stroke:none;" d="M153 69L154 70L153 69M164 69L165 70L164 69z"/>
<path style="fill:#a0e8a0; stroke:none;" d="M165 69L166 70L165 69z"/>
<path style="fill:#c6f2c4; stroke:none;" d="M166 69L166 70L169 70L166 69z"/>
<path style="fill:#a0e8a0; stroke:none;" d="M169 69L170 70L169 69z"/>
<path style="fill:#8be086; stroke:none;" d="M170.667 69.3333L171.333 69.6667L170.667 69.3333z"/>
<path style="fill:#a0e8a0; stroke:none;" d="M182 69L183 70L182 69M45 70L46 71L45 70z"/>
<path style="fill:#c6f2c4; stroke:none;" d="M52 70L53 71L52 70z"/>
<path style="fill:#a0e8a0; stroke:none;" d="M70.3333 70.6667L70.6667 71.3333L70.3333 70.6667z"/>
<path style="fill:#8be086; stroke:none;" d="M76.3333 70.6667L76.6667 71.3333L76.3333 70.6667z"/>
<path style="fill:#c6f2c4; stroke:none;" d="M77 70L78 71L77 70z"/>
<path style="fill:#8be086; stroke:none;" d="M97 70L98 71L97 70M122 70L123 71L122 70M128 70L127 73L128 73L128 70z"/>
<path style="fill:#a0e8a0; stroke:none;" d="M152 70L153 71L152 70z"/>
<path style="fill:#8be086; stroke:none;" d="M162 70L163 71L162 70z"/>
<path style="fill:#c6f2c4; stroke:none;" d="M163 70L164 71L163 70M171 70L172 71L171 70z"/>
<path style="fill:#a0e8a0; stroke:none;" d="M172 70L173 71L172 70z"/>
<path style="fill:#8be086; stroke:none;" d="M173 70L175 72L173 70z"/>
<path style="fill:#c6f2c4; stroke:none;" d="M183 70L184 71L183 70M45 71L46 72L45 71z"/>
<path style="fill:#8be086; stroke:none;" d="M46 71L47 72L46 71z"/>
<path style="fill:#a0e8a0; stroke:none;" d="M52 71L53 72L52 71M97 71L98 72L97 71z"/>
<path style="fill:#8be086; stroke:none;" d="M103 71L104 72L103 71M121 71L122 72L121 71z"/>
<path style="fill:#c6f2c4; stroke:none;" d="M128.333 71.6667L128.667 72.3333L128.333 71.6667z"/>
<path style="fill:#8be086; stroke:none;" d="M152 71L153 72L152 71z"/>
<path style="fill:#a0e8a0; stroke:none;" d="M161 71L162 72L161 71z"/>
<path style="fill:#c6f2c4; stroke:none;" d="M173 71L174 72L173 71z"/>
<path style="fill:#8be086; stroke:none;" d="M183 71L184 72L183 71z"/>
<path style="fill:#a0e8a0; stroke:none;" d="M46 72L47 73L46 72z"/>
<path style="fill:#8be086; stroke:none;" d="M52 72L53 73L52 72z"/>
<path style="fill:#c6f2c4; stroke:none;" d="M53 72L54 73L53 72M69 72L69 82L70 82L69 72z"/>
<path style="fill:#8be086; stroke:none;" d="M70 72L70 75L71 75L70 72z"/>
<path style="fill:#a0e8a0; stroke:none;" d="M76 72L77 73L76 72z"/>
<path style="fill:#c6f2c4; stroke:none;" d="M97 72L96 83L97 83L97 72M104.333 72.6667L104.667 73.3333L104.333 72.6667M120 72L121 73L120 72M151 72L152 73L151 72z"/>
<path style="fill:#8be086; stroke:none;" d="M160 72L161 73L160 72z"/>
<path style="fill:#c6f2c4; stroke:none;" d="M174 72L175 73L174 72M184 72L185 73L184 72M46 73L47 74L46 73z"/>
<path style="fill:#a0e8a0; stroke:none;" d="M53 73L54 74L53 73z"/>
<path style="fill:#c6f2c4; stroke:none;" d="M76 73L76 81L77 81L76 73z"/>
<path style="fill:#a0e8a0; stroke:none;" d="M120 73L121 74L120 73M127 73L128 74L127 73M151.333 73.6667L151.667 74.3333L151.333 73.6667z"/>
<path style="fill:#c6f2c4; stroke:none;" d="M160 73L161 74L160 73M175 73L176 74L175 73z"/>
<path style="fill:#a0e8a0; stroke:none;" d="M184 73L185 74L184 73M47 74L48 75L47 74z"/>
<path style="fill:#8be086; stroke:none;" d="M53 74L54 75L53 74z"/>
<path style="fill:#c6f2c4; stroke:none;" d="M54 74L55 75L54 74z"/>
<path style="fill:#8be086; stroke:none;" d="M75 74L75 80L76 80L75 74M98 74L98 81L99 81L98 74z"/>
<path style="fill:#a0e8a0; stroke:none;" d="M104 74L105 75L104 74z"/>
<path style="fill:#c6f2c4; stroke:none;" d="M119 74L118 77L119 77L119 74z"/>
<path style="fill:#8be086; stroke:none;" d="M120 74L121 75L120 74M126 74L127 75L126 74z"/>
<path style="fill:#c6f2c4; stroke:none;" d="M127 74L128 75L127 74z"/>
<path style="fill:#8be086; stroke:none;" d="M159 74L160 75L159 74z"/>
<path style="fill:#a0e8a0; stroke:none;" d="M176 74L177 75L176 74M182 74L183 75L182 74z"/>
<path style="fill:#c6f2c4; stroke:none;" d="M183 74L184 75L183 74M47 75L48 76L47 75z"/>
<path style="fill:#a0e8a0; stroke:none;" d="M54 75L55 76L54 75z"/>
<path style="fill:#8be086; stroke:none;" d="M104 75L104 79L105 79L104 75z"/>
<path style="fill:#a0e8a0; stroke:none;" d="M119 75L120 76L119 75M126 75L127 76L126 75z"/>
<path style="fill:#8be086; stroke:none;" d="M151 75L151 79L152 79L151 75z"/>
<path style="fill:#a0e8a0; stroke:none;" d="M159 75L159 78L160 78L159 75z"/>
<path style="fill:#c6f2c4; stroke:none;" d="M176 75L177 76L176 75z"/>
<path style="fill:#8be086; stroke:none;" d="M177.667 75.3333L178.333 75.6667L177.667 75.3333z"/>
<path style="fill:#c6f2c4; stroke:none;" d="M179.667 75.3333L180.333 75.6667L179.667 75.3333M207.667 75.3333L208.333 75.6667L207.667 75.3333z"/>
<path style="fill:#a0e8a0; stroke:none;" d="M209 75L209 76L213 76L209 75z"/>
<path style="fill:#c6f2c4; stroke:none;" d="M213.667 75.3333L214.333 75.6667L213.667 75.3333M250.667 75.3333L251.333 75.6667L250.667 75.3333z"/>
<path style="fill:#a0e8a0; stroke:none;" d="M252 75L252 76L255 76L252 75z"/>
<path style="fill:#c6f2c4; stroke:none;" d="M255 75L255 76L258 76L255 75M292.667 75.3333L293.333 75.6667L292.667 75.3333z"/>
<path style="fill:#a0e8a0; stroke:none;" d="M294 75L294 76L297 76L294 75z"/>
<path style="fill:#c6f2c4; stroke:none;" d="M297.667 75.3333L298.333 75.6667L297.667 75.3333M342.667 75.3333L343.333 75.6667L342.667 75.3333z"/>
<path style="fill:#a0e8a0; stroke:none;" d="M344 75L344 76L347 76L344 75z"/>
<path style="fill:#c6f2c4; stroke:none;" d="M347 75L347 76L350 76L347 75M387.667 75.3333L388.333 75.6667L387.667 75.3333z"/>
<path style="fill:#a0e8a0; stroke:none;" d="M389 75L389 76L392 76L389 75z"/>
<path style="fill:#c6f2c4; stroke:none;" d="M392.667 75.3333L393.333 75.6667L392.667 75.3333M431.667 75.3333L432.333 75.6667L431.667 75.3333z"/>
<path style="fill:#a0e8a0; stroke:none;" d="M433 75L433 76L436 76L433 75z"/>
<path style="fill:#c6f2c4; stroke:none;" d="M436.667 75.3333L437.333 75.6667L436.667 75.3333z"/>
<path style="fill:#8be086; stroke:none;" d="M48 76L49 79L50 79L48 76M54 76L55 77L54 76z"/>
<path style="fill:#c6f2c4; stroke:none;" d="M55 76L56 77L55 76z"/>
<path style="fill:#8be086; stroke:none;" d="M119 76L120 77L119 76M125 76L126 77L125 76z"/>
<path style="fill:#c6f2c4; stroke:none;" d="M126 76L127 77L126 76M204 76L205 77L204 76z"/>
<path style="fill:#a0e8a0; stroke:none;" d="M205 76L206 77L205 76z"/>
<path style="fill:#8be086; stroke:none;" d="M206 76L207 77L206 76z"/>
<path style="fill:#74de6e; stroke:none;" d="M227 106C217.578 102.324 203.094 115.799 201 97L228 97C227.996 90.3749 227.391 83.9959 221.895 79.419C210.94 70.2957 195.503 79.4837 193.329 92C190.042 110.916 217.82 125.223 227 106z"/>
<path style="fill:#8be086; stroke:none;" d="M216 76L217 77L216 76z"/>
<path style="fill:#a0e8a0; stroke:none;" d="M217 76L218 77L217 76z"/>
<path style="fill:#c6f2c4; stroke:none;" d="M218 76L219 77L218 76M246 76L247 77L246 76z"/>
<path style="fill:#a0e8a0; stroke:none;" d="M247 76L248 77L247 76z"/>
<path style="fill:#8be086; stroke:none;" d="M248 76L249 77L248 76z"/>
<path style="fill:#74de6e; stroke:none;" d="M270 106C259.101 101.53 247.588 116.085 243 97L271 97C270.943 90.2069 269.648 83.8444 263.981 79.419C254.386 71.9254 239.604 77.3891 236.558 89C231.102 109.797 257.655 125.598 270 106z"/>
<path style="fill:#8be086; stroke:none;" d="M258 76L259 77L258 76z"/>
<path style="fill:#a0e8a0; stroke:none;" d="M259 76L260 77L259 76z"/>
<path style="fill:#c6f2c4; stroke:none;" d="M260 76L261 77L260 76M288.667 76.3333L289.333 76.6667L288.667 76.3333z"/>
<path style="fill:#a0e8a0; stroke:none;" d="M290 76L291 77L290 76z"/>
<path style="fill:#8be086; stroke:none;" d="M300 76L301 77L300 76z"/>
<path style="fill:#a0e8a0; stroke:none;" d="M301 76L302 77L301 76z"/>
<path style="fill:#c6f2c4; stroke:none;" d="M302 76L303 77L302 76M339 76L340 77L339 76z"/>
<path style="fill:#a0e8a0; stroke:none;" d="M340 76L341 77L340 76z"/>
<path style="fill:#8be086; stroke:none;" d="M341 76L342 77L341 76M350 76L351 77L350 76z"/>
<path style="fill:#a0e8a0; stroke:none;" d="M351 76L352 77L351 76z"/>
<path style="fill:#c6f2c4; stroke:none;" d="M352 76L353 77L352 76M371 76L372 77L371 76z"/>
<path style="fill:#a0e8a0; stroke:none;" d="M372 76L372 77L377 77L372 76z"/>
<path style="fill:#c6f2c4; stroke:none;" d="M377 76L379 81L383 77L379 80L377 76M384 76L385 77L384 76z"/>
<path style="fill:#a0e8a0; stroke:none;" d="M385 76L386 77L385 76z"/>
<path style="fill:#74de6e; stroke:none;" d="M378 82L378 77L372 77L372 114L378 114C378 106.846 375.131 77.8955 389.985 82.7863C400.597 86.2806 397 105.566 397 114L404 114C404 102.163 407.094 68.1471 385.002 77.0077C382.254 78.1097 380.166 80.0573 378 82z"/>
<path style="fill:#a0e8a0; stroke:none;" d="M395 76L396 77L395 76z"/>
<path style="fill:#c6f2c4; stroke:none;" d="M396 76L397 77L396 76M428 76L429 77L428 76z"/>
<path style="fill:#a0e8a0; stroke:none;" d="M429 76L430 77L429 76z"/>
<path style="fill:#8be086; stroke:none;" d="M439 76L440 77L439 76z"/>
<path style="fill:#c6f2c4; stroke:none;" d="M440.667 76.3333L441.333 76.6667L440.667 76.3333M48.3333 77.6667L48.6667 78.3333L48.3333 77.6667z"/>
<path style="fill:#a0e8a0; stroke:none;" d="M55 77L56 78L55 77M118 77L119 78L118 77M125 77L126 78L125 77M202 77L203 78L202 77z"/>
<path style="fill:#8be086; stroke:none;" d="M203 77L204 78L203 77z"/>
<path style="fill:#a0e8a0; stroke:none;" d="M219 77L220 78L219 77z"/>
<path style="fill:#c6f2c4; stroke:none;" d="M220 77L221 78L220 77M244 77L245 78L244 77z"/>
<path style="fill:#8be086; stroke:none;" d="M245 77L246 78L245 77M261 77L262 78L261 77z"/>
<path style="fill:#c6f2c4; stroke:none;" d="M262 77L263 78L262 77z"/>
<path style="fill:#a0e8a0; stroke:none;" d="M287 77L288 78L287 77z"/>
<path style="fill:#8be086; stroke:none;" d="M288 77L289 78L288 77M302 77L303 78L302 77z"/>
<path style="fill:#a0e8a0; stroke:none;" d="M303 77L304 78L303 77z"/>
<path style="fill:#c6f2c4; stroke:none;" d="M337 77L338 78L337 77z"/>
<path style="fill:#8be086; stroke:none;" d="M338 77L339 78L338 77z"/>
<path style="fill:#a0e8a0; stroke:none;" d="M353 77L354 78L353 77z"/>
<path style="fill:#c6f2c4; stroke:none;" d="M354 77L355 78L354 77z"/>
<path style="fill:#8be086; stroke:none;" d="M371 77L371 114L372 114C372 103.351 375.111 86.7978 371 77M383 77L384 78L383 77z"/>
<path style="fill:#a0e8a0; stroke:none;" d="M397 77L398 78L397 77z"/>
<path style="fill:#c6f2c4; stroke:none;" d="M426 77L427 78L426 77z"/>
<path style="fill:#8be086; stroke:none;" d="M427 77L428 78L427 77M441 77L442 78L441 77z"/>
<path style="fill:#a0e8a0; stroke:none;" d="M442 77L443 78L442 77z"/>
<path style="fill:#8be086; stroke:none;" d="M55 78L56 79L55 78z"/>
<path style="fill:#c6f2c4; stroke:none;" d="M56 78L57 79L56 78M117 78L118 79L117 78z"/>
<path style="fill:#8be086; stroke:none;" d="M118 78L119 79L118 78M124 78L125 79L124 78z"/>
<path style="fill:#c6f2c4; stroke:none;" d="M125 78L126 79L125 78z"/>
<path style="fill:#8be086; stroke:none;" d="M159 78L160 79L159 78z"/>
<path style="fill:#c6f2c4; stroke:none;" d="M200 78L199 80L200 78z"/>
<path style="fill:#8be086; stroke:none;" d="M201 78L202 79L201 78z"/>
<path style="fill:#c6f2c4; stroke:none;" d="M221 78L222 79L221 78z"/>
<path style="fill:#a0e8a0; stroke:none;" d="M243 78L244 79L243 78M263 78L264 79L263 78z"/>
<path style="fill:#c6f2c4; stroke:none;" d="M285 78L286 79L285 78z"/>
<path style="fill:#8be086; stroke:none;" d="M286 78L287 79L286 78M304 78L305 79L304 78z"/>
<path style="fill:#c6f2c4; stroke:none;" d="M336 78L337 79L336 78M355 78L356 79L355 78M399 78L401 80L399 78z"/>
<path style="fill:#a0e8a0; stroke:none;" d="M425 78L426 79L425 78z"/>
<path style="fill:#8be086; stroke:none;" d="M443 78L445 80L443 78z"/>
<path style="fill:#c6f2c4; stroke:none;" d="M444 78L445 79L444 78z"/>
<path style="fill:#a0e8a0; stroke:none;" d="M49 79L50 80L49 79M56 79L57 80L56 79z"/>
<path style="fill:#8be086; stroke:none;" d="M70 79L70 82L71 82L70 79z"/>
<path style="fill:#a0e8a0; stroke:none;" d="M104 79L105 80L104 79M117 79L118 80L117 79M124 79L125 80L124 79M151.333 79.6667L151.667 80.3333L151.333 79.6667z"/>
<path style="fill:#c6f2c4; stroke:none;" d="M160 79L162 81L160 79z"/>
<path style="fill:#8be086; stroke:none;" d="M200 79L201 80L200 79z"/>
<path style="fill:#a0e8a0; stroke:none;" d="M222 79L223 80L222 79z"/>
<path style="fill:#c6f2c4; stroke:none;" d="M241 79L242 80L241 79z"/>
<path style="fill:#a0e8a0; stroke:none;" d="M242 79L243 80L242 79z"/>
<path style="fill:#8be086; stroke:none;" d="M264 79L268 83L264 79z"/>
<path style="fill:#c6f2c4; stroke:none;" d="M265 79L266 80L265 79M284 79L285 80L284 79z"/>
<path style="fill:#8be086; stroke:none;" d="M305 79L306 80L305 79z"/>
<path style="fill:#a0e8a0; stroke:none;" d="M335 79L336 80L335 79M356 79L357 80L356 79z"/>
<path style="fill:#8be086; stroke:none;" d="M399 79L400 80L399 79M424 79L425 80L424 79z"/>
<path style="fill:#c6f2c4; stroke:none;" d="M445 79L446 80L445 79M49 80L50 81L49 80z"/>
<path style="fill:#8be086; stroke:none;" d="M50 80L51 81L50 80M56 80L57 81L56 80z"/>
<path style="fill:#c6f2c4; stroke:none;" d="M57 80L59 86L60 86L57 80M104.333 80.6667L104.667 81.3333L104.333 80.6667M116 80L117 81L116 80z"/>
<path style="fill:#8be086; stroke:none;" d="M117 80L118 81L117 80M123 80L124 81L123 80z"/>
<path style="fill:#c6f2c4; stroke:none;" d="M124 80L125 81L124 80z"/>
<path style="fill:#8be086; stroke:none;" d="M160 80L161 81L160 80z"/>
<path style="fill:#c6f2c4; stroke:none;" d="M198 80L199 81L198 80z"/>
<path style="fill:#a0e8a0; stroke:none;" d="M223 80L224 81L223 80z"/>
<path style="fill:#8be086; stroke:none;" d="M241 80L242 81L241 80z"/>
<path style="fill:#c6f2c4; stroke:none;" d="M266 80L267 81L266 80z"/>
<path style="fill:#a0e8a0; stroke:none;" d="M283 80L284 81L283 80z"/>
<path style="fill:#8be086; stroke:none;" d="M306 80L307 81L306 80z"/>
<path style="fill:#a0e8a0; stroke:none;" d="M357 80L358 81L357 80M378 80L379 81L378 80z"/>
<path style="fill:#8be086; stroke:none;" d="M400 80L401 81L400 80z"/>
<path style="fill:#c6f2c4; stroke:none;" d="M422 80L423 81L422 80z"/>
<path style="fill:#8be086; stroke:none;" d="M423 80L424 81L423 80z"/>
<path style="fill:#c6f2c4; stroke:none;" d="M446 80L447 81L446 80z"/>
<path style="fill:#a0e8a0; stroke:none;" d="M50 81L51 82L50 81z"/>
<path style="fill:#8be086; stroke:none;" d="M76.3333 81.6667L76.6667 82.3333L76.3333 81.6667z"/>
<path style="fill:#a0e8a0; stroke:none;" d="M116 81L117 82L116 81M123 81L124 82L123 81z"/>
<path style="fill:#c6f2c4; stroke:none;" d="M151 81L152 82L151 81M162 81L163 82L162 81M197 81L198 82L197 81z"/>
<path style="fill:#a0e8a0; stroke:none;" d="M224 81L225 82L224 81z"/>
<path style="fill:#8be086; stroke:none;" d="M240 81L241 82L240 81z"/>
<path style="fill:#c6f2c4; stroke:none;" d="M267 81L268 82L267 81M282 81L281 83L282 81z"/>
<path style="fill:#a0e8a0; stroke:none;" d="M333 81L334 82L333 81M358 81L359 82L358 81z"/>
<path style="fill:#8be086; stroke:none;" d="M378 81L379 82L378 81z"/>
<path style="fill:#a0e8a0; stroke:none;" d="M401 81L402 82L401 81z"/>
<path style="fill:#8be086; stroke:none;" d="M421.667 81.3333L422.333 81.6667L421.667 81.3333z"/>
<path style="fill:#c6f2c4; stroke:none;" d="M447 81L449 83L447 81M50 82L51 83L50 82z"/>
<path style="fill:#8be086; stroke:none;" d="M51 82L52 83L51 82M57 82L58 83L57 82z"/>
<path style="fill:#a0e8a0; stroke:none;" d="M70.3333 82.6667L70.6667 83.3333L70.3333 82.6667z"/>
<path style="fill:#c6f2c4; stroke:none;" d="M77 82L78 83L77 82z"/>
<path style="fill:#8be086; stroke:none;" d="M97 82L94 87L97 82M103 82L104 83L103 82z"/>
<path style="fill:#c6f2c4; stroke:none;" d="M115 82L116 83L115 82z"/>
<path style="fill:#8be086; stroke:none;" d="M116 82L117 83L116 82M122 82L123 83L122 82z"/>
<path style="fill:#c6f2c4; stroke:none;" d="M123 82L124 83L123 82z"/>
<path style="fill:#8be086; stroke:none;" d="M152 82L153 83L152 82M163 82L164 83L163 82z"/>
<path style="fill:#c6f2c4; stroke:none;" d="M164.667 82.3333L165.333 82.6667L164.667 82.3333M196 82L197 83L196 82z"/>
<path style="fill:#8be086; stroke:none;" d="M206 82L207 83L206 82z"/>
<path style="fill:#a0e8a0; stroke:none;" d="M207 82L208 83L207 82z"/>
<path style="fill:#c6f2c4; stroke:none;" d="M208 82L209 83L208 82z"/>
<path style="fill:#fefffe; stroke:none;" d="M202 91L220 91C217.206 80.3325 204.305 79.6166 202 91z"/>
<path style="fill:#c6f2c4; stroke:none;" d="M213 82L214 83L213 82z"/>
<path style="fill:#a0e8a0; stroke:none;" d="M214 82L215 83L214 82z"/>
<path style="fill:#8be086; stroke:none;" d="M215 82L216 83L215 82z"/>
<path style="fill:#c6f2c4; stroke:none;" d="M225 82L227 84L225 82z"/>
<path style="fill:#a0e8a0; stroke:none;" d="M239 82L240 83L239 82M249 82L250 83L249 82z"/>
<path style="fill:#c6f2c4; stroke:none;" d="M250.667 82.3333L251.333 82.6667L250.667 82.3333z"/>
<path style="fill:#fefffe; stroke:none;" d="M244 91L263 91C258.979 80.2807 248.225 80.2688 244 91z"/>
<path style="fill:#c6f2c4; stroke:none;" d="M255.667 82.3333L256.333 82.6667L255.667 82.3333z"/>
<path style="fill:#a0e8a0; stroke:none;" d="M257 82L258 83L257 82z"/>
<path style="fill:#8be086; stroke:none;" d="M282 82L283 83L282 82M294 82L295 83L294 82z"/>
<path style="fill:#a0e8a0; stroke:none;" d="M295 82L295 83L299 83L295 82z"/>
<path style="fill:#8be086; stroke:none;" d="M299 82L300 83L299 82M341 82L342 83L341 82z"/>
<path style="fill:#a0e8a0; stroke:none;" d="M342 82L342 83L346 83L342 82z"/>
<path style="fill:#8be086; stroke:none;" d="M346 82L347 83L346 82z"/>
<path style="fill:#c6f2c4; stroke:none;" d="M359 82L361 84L359 82z"/>
<path style="fill:#8be086; stroke:none;" d="M385.667 82.3333L386.333 82.6667L385.667 82.3333z"/>
<path style="fill:#a0e8a0; stroke:none;" d="M387 82L387 83L390 83L387 82z"/>
<path style="fill:#8be086; stroke:none;" d="M390 82L391 83L390 82z"/>
<path style="fill:#c6f2c4; stroke:none;" d="M402 82L403 83L402 82z"/>
<path style="fill:#8be086; stroke:none;" d="M430 82L431 83L430 82z"/>
<path style="fill:#a0e8a0; stroke:none;" d="M431 82L431 83L434 83L431 82z"/>
<path style="fill:#8be086; stroke:none;" d="M434.667 82.3333L435.333 82.6667L434.667 82.3333M447 82L448 83L447 82z"/>
<path style="fill:#a0e8a0; stroke:none;" d="M51 83L52 84L51 83M77 83L78 84L77 83M96 83L97 84L96 83M103 83L104 84L103 83M115 83L116 84L115 83M122 83L123 84L122 83z"/>
<path style="fill:#c6f2c4; stroke:none;" d="M152 83L153 84L152 83z"/>
<path style="fill:#8be086; stroke:none;" d="M166 83L167 84L166 83z"/>
<path style="fill:#a0e8a0; stroke:none;" d="M167 83L168 84L167 83z"/>
<path style="fill:#c6f2c4; stroke:none;" d="M168 83L169 84L168 83z"/>
<path style="fill:#8be086; stroke:none;" d="M196 83L197 84L196 83z"/>
<path style="fill:#a0e8a0; stroke:none;" d="M205 83L206 84L205 83M216 83L217 84L216 83z"/>
<path style="fill:#8be086; stroke:none;" d="M225 83L226 84L225 83z"/>
<path style="fill:#c6f2c4; stroke:none;" d="M238 83L239 84L238 83z"/>
<path style="fill:#8be086; stroke:none;" d="M247 83L248 84L247 83z"/>
<path style="fill:#c6f2c4; stroke:none;" d="M248 83L249 84L248 83M258 83L259 84L258 83z"/>
<path style="fill:#8be086; stroke:none;" d="M259 83L260 84L259 83z"/>
<path style="fill:#a0e8a0; stroke:none;" d="M268 83L269 84L268 83z"/>
<path style="fill:#8be086; stroke:none;" d="M281 83L282 84L281 83z"/>
<path style="fill:#a0e8a0; stroke:none;" d="M292 83L293 84L292 83z"/>
<path style="fill:#c6f2c4; stroke:none;" d="M293 83L294 84L293 83z"/>
<path style="fill:#fefffe; stroke:none;" d="M294.015 83.6566C280.462 87.847 286.508 111.9 300.985 106.397C312.925 101.857 307.262 79.5614 294.015 83.6566z"/>
<path style="fill:#c6f2c4; stroke:none;" d="M300 83L301 84L300 83z"/>
<path style="fill:#a0e8a0; stroke:none;" d="M301 83L302 84L301 83M339 83L340 84L339 83z"/>
<path style="fill:#c6f2c4; stroke:none;" d="M340 83L341 84L340 83z"/>
<path style="fill:#fefffe; stroke:none;" d="M341.015 83.7068C327.614 88.1912 333.621 111.855 347.985 106.397C360.164 101.768 354.445 79.213 341.015 83.7068z"/>
<path style="fill:#c6f2c4; stroke:none;" d="M347 83L348 84L347 83z"/>
<path style="fill:#a0e8a0; stroke:none;" d="M348 83L349 84L348 83z"/>
<path style="fill:#8be086; stroke:none;" d="M359 83L360 84L359 83M383 83L384 84L383 83z"/>
<path style="fill:#c6f2c4; stroke:none;" d="M384 83L385 84L384 83M391 83L392 84L391 83z"/>
<path style="fill:#8be086; stroke:none;" d="M392 83L393 84L392 83z"/>
<path style="fill:#a0e8a0; stroke:none;" d="M402 83L403 84L402 83z"/>
<path style="fill:#c6f2c4; stroke:none;" d="M428.667 83.3333L429.333 83.6667L428.667 83.3333z"/>
<path style="fill:#fefffe; stroke:none;" d="M430.004 83.5764C416.707 87.2561 421.274 110.688 435.985 106.566C448.344 103.103 443.55 79.8277 430.004 83.5764z"/>
<path style="fill:#c6f2c4; stroke:none;" d="M436 83L437 84L436 83z"/>
<path style="fill:#8be086; stroke:none;" d="M437 83L438 84L437 83z"/>
<path style="fill:#a0e8a0; stroke:none;" d="M448 83L449 84L448 83z"/>
<path style="fill:#c6f2c4; stroke:none;" d="M51 84L52 85L51 84z"/>
<path style="fill:#8be086; stroke:none;" d="M52 84L53 85L52 84M58 84L59 85L58 84z"/>
<path style="fill:#c6f2c4; stroke:none;" d="M70 84L71 85L70 84z"/>
<path style="fill:#8be086; stroke:none;" d="M71 84L72 85L71 84z"/>
<path style="fill:#c6f2c4; stroke:none;" d="M78 84L80 86L78 84M95 84L96 85L95 84M103 84L104 85L103 84M114 84L113 87L114 84z"/>
<path style="fill:#8be086; stroke:none;" d="M115 84L116 85L115 84M121.333 84.6667L121.667 85.3333L121.333 84.6667z"/>
<path style="fill:#c6f2c4; stroke:none;" d="M122 84L123 85L122 84z"/>
<path style="fill:#8be086; stroke:none;" d="M153 84L156 87L153 84z"/>
<path style="fill:#a0e8a0; stroke:none;" d="M171 84L172 85L171 84z"/>
<path style="fill:#c6f2c4; stroke:none;" d="M172 84L173 85L172 84z"/>
<path style="fill:#a0e8a0; stroke:none;" d="M195 84L196 85L195 84M204 84L205 85L204 84M217 84L218 85L217 84M226 84L227 85L226 84z"/>
<path style="fill:#8be086; stroke:none;" d="M238 84L239 85L238 84z"/>
<path style="fill:#c6f2c4; stroke:none;" d="M247 84L248 85L247 84z"/>
<path style="fill:#8be086; stroke:none;" d="M260 84L262 86L260 84z"/>
<path style="fill:#c6f2c4; stroke:none;" d="M269 84L270 85L269 84z"/>
<path style="fill:#a0e8a0; stroke:none;" d="M280 84L281 85L280 84z"/>
<path style="fill:#8be086; stroke:none;" d="M290 84L291 85L290 84z"/>
<path style="fill:#c6f2c4; stroke:none;" d="M291 84L292 85L291 84M302 84L303 85L302 84z"/>
<path style="fill:#8be086; stroke:none;" d="M303 84L304 85L303 84M337 84L336 86L337 84z"/>
<path style="fill:#c6f2c4; stroke:none;" d="M338 84L339 85L338 84M349 84L350 85L349 84z"/>
<path style="fill:#8be086; stroke:none;" d="M350 84L351 85L350 84z"/>
<path style="fill:#a0e8a0; stroke:none;" d="M360 84L361 85L360 84M382 84L383 85L382 84M393 84L394 85L393 84z"/>
<path style="fill:#8be086; stroke:none;" d="M402 84L403 85L402 84z"/>
<path style="fill:#c6f2c4; stroke:none;" d="M403.333 84.6667L403.667 85.3333L403.333 84.6667z"/>
<path style="fill:#a0e8a0; stroke:none;" d="M426 84L427 85L426 84z"/>
<path style="fill:#c6f2c4; stroke:none;" d="M438 84L439 85L438 84M449 84L450 85L449 84z"/>
<path style="fill:#a0e8a0; stroke:none;" d="M52 85L53 86L52 85M71 85L72 86L71 85z"/>
<path style="fill:#8be086; stroke:none;" d="M78 85L79 86L78 85z"/>
<path style="fill:#c6f2c4; stroke:none;" d="M94 85L95 86L94 85z"/>
<path style="fill:#a0e8a0; stroke:none;" d="M102 85L103 86L102 85z"/>
<path style="fill:#c6f2c4; stroke:none;" d="M153 85L154 86L153 85z"/>
<path style="fill:#a0e8a0; stroke:none;" d="M174 85L175 86L174 85z"/>
<path style="fill:#c6f2c4; stroke:none;" d="M175 85L176 86L175 85M194 85L195 86L194 85z"/>
<path style="fill:#8be086; stroke:none;" d="M195 85L196 86L195 85z"/>
<path style="fill:#a0e8a0; stroke:none;" d="M203 85L204 86L203 85M218 85L219 86L218 85z"/>
<path style="fill:#8be086; stroke:none;" d="M226 85L227 86L226 85z"/>
<path style="fill:#c6f2c4; stroke:none;" d="M227 85L228 86L227 85z"/>
<path style="fill:#a0e8a0; stroke:none;" d="M237 85L238 86L237 85z"/>
<path style="fill:#8be086; stroke:none;" d="M245 85L246 86L245 85z"/>
<path style="fill:#c6f2c4; stroke:none;" d="M246 85L247 86L246 85M260 85L261 86L260 85z"/>
<path style="fill:#a0e8a0; stroke:none;" d="M269 85L270 86L269 85z"/>
<path style="fill:#8be086; stroke:none;" d="M280 85L281 86L280 85M289 85L290 86L289 85z"/>
<path style="fill:#a0e8a0; stroke:none;" d="M304 85L305 86L304 85z"/>
<path style="fill:#c6f2c4; stroke:none;" d="M337 85L338 86L337 85z"/>
<path style="fill:#a0e8a0; stroke:none;" d="M351 85L352 86L351 85z"/>
<path style="fill:#c6f2c4; stroke:none;" d="M361 85L362 86L361 85z"/>
<path style="fill:#a0e8a0; stroke:none;" d="M381 85L382 86L381 85M394 85L395 86L394 85M425 85L426 86L425 85z"/>
<path style="fill:#c6f2c4; stroke:none;" d="M439 85L441 87L439 85z"/>
<path style="fill:#8be086; stroke:none;" d="M440 85L441 86L440 85z"/>
<path style="fill:#a0e8a0; stroke:none;" d="M449 85L450 86L449 85z"/>
<path style="fill:#c6f2c4; stroke:none;" d="M52 86L53 87L52 86z"/>
<path style="fill:#8be086; stroke:none;" d="M53 86L54 87L53 86M59 86L60 87L59 86z"/>
<path style="fill:#c6f2c4; stroke:none;" d="M71 86L73 88L71 86z"/>
<path style="fill:#8be086; stroke:none;" d="M72 86L73 87L72 86M79 86L80 87L79 86z"/>
<path style="fill:#a0e8a0; stroke:none;" d="M80 86L82 88L80 86z"/>
<path style="fill:#c6f2c4; stroke:none;" d="M81 86L82 87L81 86M92 86L90 87L90 88L92 86z"/>
<path style="fill:#a0e8a0; stroke:none;" d="M93 86L94 87L93 86z"/>
<path style="fill:#8be086; stroke:none;" d="M101 86L100 89L101 89L101 86z"/>
<path style="fill:#c6f2c4; stroke:none;" d="M102 86L103 87L102 86z"/>
<path style="fill:#8be086; stroke:none;" d="M114 86L115 87L114 86z"/>
<path style="fill:#c6f2c4; stroke:none;" d="M121 86L122 87L121 86M154 86L155 87L154 86z"/>
<path style="fill:#8be086; stroke:none;" d="M176 86L177 87L176 86z"/>
<path style="fill:#a0e8a0; stroke:none;" d="M177 86L178 87L177 86M194 86L195 87L194 86z"/>
<path style="fill:#8be086; stroke:none;" d="M202 86L203 87L202 86M219 86L220 87L219 86z"/>
<path style="fill:#a0e8a0; stroke:none;" d="M227 86L228 87L227 86z"/>
<path style="fill:#c6f2c4; stroke:none;" d="M236 86L237 87L236 86M245 86L246 87L245 86z"/>
<path style="fill:#a0e8a0; stroke:none;" d="M261 86L262 87L261 86z"/>
<path style="fill:#8be086; stroke:none;" d="M269 86L270 87L269 86z"/>
<path style="fill:#a0e8a0; stroke:none;" d="M279 86L280 87L279 86z"/>
<path style="fill:#8be086; stroke:none;" d="M288 86L289 87L288 86M305 86L306 87L305 86M335 86L334 88L335 86M352 86L353 87L352 86z"/>
<path style="fill:#a0e8a0; stroke:none;" d="M361 86L362 87L361 86M380 86L381 87L380 86z"/>
<path style="fill:#c6f2c4; stroke:none;" d="M394 86L395 87L394 86z"/>
<path style="fill:#a0e8a0; stroke:none;" d="M403 86L404 87L403 86M424 86L425 87L424 86z"/>
<path style="fill:#c6f2c4; stroke:none;" d="M450 86L451 87L450 86z"/>
<path style="fill:#a0e8a0; stroke:none;" d="M53 87L54 88L53 87z"/>
<path style="fill:#c6f2c4; stroke:none;" d="M60 87L61 88L60 87z"/>
<path style="fill:#8be086; stroke:none;" d="M73 87L74 88L73 87z"/>
<path style="fill:#c6f2c4; stroke:none;" d="M82 87L82 88L85 88L82 87z"/>
<path style="fill:#a0e8a0; stroke:none;" d="M92 87L93 88L92 87M101 87L102 88L101 87M113 87L114 88L113 87M120 87L121 88L120 87z"/>
<path style="fill:#c6f2c4; stroke:none;" d="M155 87L156 88L155 87M179 87L180 88L179 87z"/>
<path style="fill:#8be086; stroke:none;" d="M194 87L195 88L194 87z"/>
<path style="fill:#c6f2c4; stroke:none;" d="M202 87L203 88L202 87M219.333 87.6667L219.667 88.3333L219.333 87.6667z"/>
<path style="fill:#8be086; stroke:none;" d="M227 87L228 88L227 87z"/>
<path style="fill:#a0e8a0; stroke:none;" d="M236 87L237 88L236 87z"/>
<path style="fill:#8be086; stroke:none;" d="M244 87L245 88L244 87M262 87L263 88L262 87z"/>
<path style="fill:#c6f2c4; stroke:none;" d="M270 87L271 88L270 87z"/>
<path style="fill:#8be086; stroke:none;" d="M279 87L280 88L279 87z"/>
<path style="fill:#c6f2c4; stroke:none;" d="M288 87L289 88L288 87M305 87L306 88L305 87M335 87L336 88L335 87z"/>
<path style="fill:#8be086; stroke:none;" d="M353 87L354 88L353 87z"/>
<path style="fill:#c6f2c4; stroke:none;" d="M362.333 87.6667L362.667 88.3333L362.333 87.6667M380 87L381 88L380 87z"/>
<path style="fill:#a0e8a0; stroke:none;" d="M395 87L396 88L395 87z"/>
<path style="fill:#8be086; stroke:none;" d="M403.333 87.6667L403.667 88.3333L403.333 87.6667M423 87L424 88L423 87z"/>
<path style="fill:#c6f2c4; stroke:none;" d="M441 87L442 88L441 87z"/>
<path style="fill:#a0e8a0; stroke:none;" d="M450 87L451 88L450 87z"/>
<path style="fill:#c6f2c4; stroke:none;" d="M53 88L54 89L53 88z"/>
<path style="fill:#8be086; stroke:none;" d="M60 88L61 89L60 88z"/>
<path style="fill:#a0e8a0; stroke:none;" d="M73 88L74 89L73 88z"/>
<path style="fill:#8be086; stroke:none;" d="M84 88L85 89L84 88z"/>
<path style="fill:#a0e8a0; stroke:none;" d="M85 88L85 89L89 89L85 88z"/>
<path style="fill:#8be086; stroke:none;" d="M89.6667 88.3333L90.3333 88.6667L89.6667 88.3333z"/>
<path style="fill:#c6f2c4; stroke:none;" d="M101 88L102 89L101 88M112 88L111 91L112 88z"/>
<path style="fill:#8be086; stroke:none;" d="M113 88L114 89L113 88z"/>
<path style="fill:#c6f2c4; stroke:none;" d="M120 88L121 89L120 88z"/>
<path style="fill:#a0e8a0; stroke:none;" d="M157 88L158 89L157 88M180 88L181 89L180 88z"/>
<path style="fill:#c6f2c4; stroke:none;" d="M193 88L194 89L193 88z"/>
<path style="fill:#8be086; stroke:none;" d="M201 88L202 89L201 88M220 88L221 89L220 88z"/>
<path style="fill:#c6f2c4; stroke:none;" d="M228.333 88.6667L228.667 89.3333L228.333 88.6667z"/>
<path style="fill:#8be086; stroke:none;" d="M236 88L237 89L236 88z"/>
<path style="fill:#c6f2c4; stroke:none;" d="M244.333 88.6667L244.667 89.3333L244.333 88.6667z"/>
<path style="fill:#a0e8a0; stroke:none;" d="M262 88L263 89L262 88M270 88L271 89L270 88z"/>
<path style="fill:#c6f2c4; stroke:none;" d="M278.333 88.6667L278.667 89.3333L278.333 88.6667z"/>
<path style="fill:#a0e8a0; stroke:none;" d="M287 88L288 89L287 88M306 88L307 89L306 88M334 88L335 89L334 88z"/>
<path style="fill:#c6f2c4; stroke:none;" d="M353 88L354 89L353 88z"/>
<path style="fill:#a0e8a0; stroke:none;" d="M379 88L380 89L379 88z"/>
<path style="fill:#c6f2c4; stroke:none;" d="M395 88L396 89L395 88M423 88L424 89L423 88z"/>
<path style="fill:#8be086; stroke:none;" d="M442 88L443 89L442 88M450 88L451 89L450 88z"/>
<path style="fill:#a0e8a0; stroke:none;" d="M54 89L55 90L54 89z"/>
<path style="fill:#c6f2c4; stroke:none;" d="M61 89L62 92L63 92L61 89z"/>
<path style="fill:#a0e8a0; stroke:none;" d="M74 89L75 90L74 89M99 89L100 90L99 89z"/>
<path style="fill:#c6f2c4; stroke:none;" d="M100 89L101 90L100 89z"/>
<path style="fill:#8be086; stroke:none;" d="M119 89L118 91L119 89z"/>
<path style="fill:#c6f2c4; stroke:none;" d="M158 89L159 90L158 89z"/>
<path style="fill:#a0e8a0; stroke:none;" d="M159 89L160 90L159 89z"/>
<path style="fill:#8be086; stroke:none;" d="M181 89L182 90L181 89z"/>
<path style="fill:#a0e8a0; stroke:none;" d="M193 89L194 90L193 89M201 89L202 90L201 89M220 89L221 90L220 89z"/>
<path style="fill:#c6f2c4; stroke:none;" d="M235.333 89.6667L235.667 90.3333L235.333 89.6667M262 89L263 90L262 89z"/>
<path style="fill:#8be086; stroke:none;" d="M270 89L271 90L270 89z"/>
<path style="fill:#c6f2c4; stroke:none;" d="M287 89L288 90L287 89M306 89L307 90L306 89z"/>
<path style="fill:#8be086; stroke:none;" d="M307 89L308 90L307 89z"/>
<path style="fill:#c6f2c4; stroke:none;" d="M334 89L335 90L334 89z"/>
<path style="fill:#8be086; stroke:none;" d="M354 89L355 90L354 89z"/>
<path style="fill:#a0e8a0; stroke:none;" d="M362 89L363 90L362 89z"/>
<path style="fill:#c6f2c4; stroke:none;" d="M379.333 89.6667L379.667 90.3333L379.333 89.6667z"/>
<path style="fill:#8be086; stroke:none;" d="M396.333 89.6667L396.667 90.3333L396.333 89.6667z"/>
<path style="fill:#c6f2c4; stroke:none;" d="M404 89L404 114L405 114L404 89z"/>
<path style="fill:#a0e8a0; stroke:none;" d="M422 89L423 90L422 89z"/>
<path style="fill:#c6f2c4; stroke:none;" d="M442 89L443 90L442 89M451 89L452 90L451 89M54 90L55 91L54 90z"/>
<path style="fill:#8be086; stroke:none;" d="M55 90L56 91L55 90M61.3333 90.6667L61.6667 91.3333L61.3333 90.6667z"/>
<path style="fill:#a0e8a0; stroke:none;" d="M75 90L76 91L75 90z"/>
<path style="fill:#8be086; stroke:none;" d="M76 90L78 92L76 90z"/>
<path style="fill:#a0e8a0; stroke:none;" d="M98 90L99 91L98 90z"/>
<path style="fill:#8be086; stroke:none;" d="M112 90L113 91L112 90z"/>
<path style="fill:#c6f2c4; stroke:none;" d="M119 90L120 91L119 90z"/>
<path style="fill:#a0e8a0; stroke:none;" d="M161 90L162 91L161 90M182 90L183 91L182 90z"/>
<path style="fill:#8be086; stroke:none;" d="M193 90L194 91L193 90z"/>
<path style="fill:#c6f2c4; stroke:none;" d="M201 90L201 91L221 91L221 90L201 90z"/>
<path style="fill:#a0e8a0; stroke:none;" d="M228 90L229 91L228 90z"/>
<path style="fill:#8be086; stroke:none;" d="M243.333 90.6667L243.667 91.3333L243.333 90.6667M263.333 90.6667L263.667 91.3333L263.333 90.6667z"/>
<path style="fill:#c6f2c4; stroke:none;" d="M271 90L271 93L272 93L271 90z"/>
<path style="fill:#a0e8a0; stroke:none;" d="M278 90L279 91L278 90M286 90L287 91L286 90M307 90L308 91L307 90M333 90L334 91L333 90M354 90L355 91L354 90z"/>
<path style="fill:#8be086; stroke:none;" d="M362.333 90.6667L362.667 91.3333L362.333 90.6667M378 90L378 114L379 114L378 90z"/>
<path style="fill:#c6f2c4; stroke:none;" d="M422.333 90.6667L422.667 91.3333L422.333 90.6667z"/>
<path style="fill:#8be086; stroke:none;" d="M443 90L444 91L443 90z"/>
<path style="fill:#a0e8a0; stroke:none;" d="M451.333 90.6667L451.667 91.3333L451.333 90.6667M55 91L56 92L55 91z"/>
<path style="fill:#c6f2c4; stroke:none;" d="M76 91L77 92L76 91z"/>
<path style="fill:#8be086; stroke:none;" d="M96 91L97 92L96 91z"/>
<path style="fill:#c6f2c4; stroke:none;" d="M97 91L98 92L97 91z"/>
<path style="fill:#a0e8a0; stroke:none;" d="M111.333 91.6667L111.667 92.3333L111.333 91.6667M118 91L119 92L118 91z"/>
<path style="fill:#c6f2c4; stroke:none;" d="M163 91L164 92L163 91z"/>
<path style="fill:#a0e8a0; stroke:none;" d="M164.667 91.3333L165.333 91.6667L164.667 91.3333z"/>
<path style="fill:#8be086; stroke:none;" d="M166 91L167 92L166 91z"/>
<path style="fill:#c6f2c4; stroke:none;" d="M183 91L185 93L183 91M192 91L192 99L193 99L192 91z"/>
<path style="fill:#a0e8a0; stroke:none;" d="M201 91L202 92L201 91M220 91L221 92L220 91z"/>
<path style="fill:#8be086; stroke:none;" d="M228 91L228 97L229 97L228 91z"/>
<path style="fill:#a0e8a0; stroke:none;" d="M235 91L235 100L236 100L235 91z"/>
<path style="fill:#c6f2c4; stroke:none;" d="M244 91L244 92L262 92L244 91z"/>
<path style="fill:#a0e8a0; stroke:none;" d="M262 91L263 92L262 91z"/>
<path style="fill:#8be086; stroke:none;" d="M278.333 91.6667L278.667 92.3333L278.333 91.6667z"/>
<path style="fill:#c6f2c4; stroke:none;" d="M286.333 91.6667L286.667 92.3333L286.333 91.6667M307 91L307 94L308 94L307 91M333.333 91.6667L333.667 92.3333L333.333 91.6667M354.333 91.6667L354.667 92.3333L354.333 91.6667z"/>
<path style="fill:#a0e8a0; stroke:none;" d="M396 91L396 114L397 114L396 91z"/>
<path style="fill:#8be086; stroke:none;" d="M421.333 91.6667L421.667 92.3333L421.333 91.6667z"/>
<path style="fill:#a0e8a0; stroke:none;" d="M443.333 91.6667L443.667 92.3333L443.333 91.6667z"/>
<path style="fill:#c6f2c4; stroke:none;" d="M55 92L56 93L55 92z"/>
<path style="fill:#a0e8a0; stroke:none;" d="M62 92L63 93L62 92z"/>
<path style="fill:#c6f2c4; stroke:none;" d="M77 92L78 93L77 92z"/>
<path style="fill:#a0e8a0; stroke:none;" d="M78 92L79 93L78 92z"/>
<path style="fill:#8be086; stroke:none;" d="M79 92L80 93L79 92M94 92L95 93L94 92z"/>
<path style="fill:#a0e8a0; stroke:none;" d="M95 92L96 93L95 92z"/>
<path style="fill:#c6f2c4; stroke:none;" d="M96 92L97 93L96 92M110 92L108 98L109 98L110 92M118 92L112 105L113 105L118 92M167 92L167 93L170 93L167 92z"/>
<path style="fill:#8be086; stroke:none;" d="M170 92L171 93L170 92M183 92L184 93L183 92z"/>
<path style="fill:#c6f2c4; stroke:none;" d="M363 92L363 99L364 99L363 92z"/>
<path style="fill:#8be086; stroke:none;" d="M451 92L452 93L451 92z"/>
<path style="fill:#a0e8a0; stroke:none;" d="M56 93L57 94L56 93z"/>
<path style="fill:#8be086; stroke:none;" d="M62 93L63 94L62 93z"/>
<path style="fill:#c6f2c4; stroke:none;" d="M63 93L64 94L63 93M79.6667 93.3333L80.3333 93.6667L79.6667 93.3333z"/>
<path style="fill:#a0e8a0; stroke:none;" d="M81 93L82 94L81 93z"/>
<path style="fill:#8be086; stroke:none;" d="M82 93L83 94L82 93z"/>
<path style="fill:#a0e8a0; stroke:none;" d="M92 93L93 94L92 93z"/>
<path style="fill:#c6f2c4; stroke:none;" d="M93.6667 93.3333L94.3333 93.6667L93.6667 93.3333z"/>
<path style="fill:#8be086; stroke:none;" d="M117 93L118 94L117 93z"/>
<path style="fill:#a0e8a0; stroke:none;" d="M172 93L173 94L172 93M184 93L185 94L184 93z"/>
<path style="fill:#c6f2c4; stroke:none;" d="M229 93L229 97L230 97L229 93z"/>
<path style="fill:#a0e8a0; stroke:none;" d="M271 93L271 97L272 97L271 93z"/>
<path style="fill:#c6f2c4; stroke:none;" d="M277 93L277 98L278 98L277 93z"/>
<path style="fill:#8be086; stroke:none;" d="M285 93L285 98L286 98L285 93M355 93L355 98L356 98L355 93z"/>
<path style="fill:#a0e8a0; stroke:none;" d="M421 93L421 98L422 98L421 93z"/>
<path style="fill:#c6f2c4; stroke:none;" d="M443 93L443 98L444 98L443 93M56 94L57 95L56 94z"/>
<path style="fill:#8be086; stroke:none;" d="M57 94L58 95L57 94z"/>
<path style="fill:#a0e8a0; stroke:none;" d="M63 94L64 95L63 94z"/>
<path style="fill:#c6f2c4; stroke:none;" d="M82 94L82 95L85 95L82 94z"/>
<path style="fill:#a0e8a0; stroke:none;" d="M85 94L85 95L89 95L85 94z"/>
<path style="fill:#c6f2c4; stroke:none;" d="M89 94L89 95L92 95L89 94z"/>
<path style="fill:#8be086; stroke:none;" d="M110 94L111 95L110 94z"/>
<path style="fill:#c6f2c4; stroke:none;" d="M173 94L174 95L173 94z"/>
<path style="fill:#8be086; stroke:none;" d="M174 94L175 95L174 94M332 94L332 97L333 97L332 94z"/>
<path style="fill:#a0e8a0; stroke:none;" d="M57 95L58 96L57 95z"/>
<path style="fill:#8be086; stroke:none;" d="M63 95L64 96L63 95z"/>
<path style="fill:#c6f2c4; stroke:none;" d="M64 95L65 96L64 95z"/>
<path style="fill:#8be086; stroke:none;" d="M116 95L117 96L116 95z"/>
<path style="fill:#a0e8a0; stroke:none;" d="M175 95L176 96L175 95z"/>
<path style="fill:#c6f2c4; stroke:none;" d="M185.333 95.6667L185.667 96.3333L185.333 95.6667M57 96L58 97L57 96z"/>
<path style="fill:#8be086; stroke:none;" d="M58 96L59 97L58 96z"/>
<path style="fill:#a0e8a0; stroke:none;" d="M64 96L65 97L64 96z"/>
<path style="fill:#8be086; stroke:none;" d="M109.333 96.6667L109.667 97.3333L109.333 96.6667M176 96L177 97L176 96z"/>
<path style="fill:#a0e8a0; stroke:none;" d="M58 97L59 98L58 97z"/>
<path style="fill:#c6f2c4; stroke:none;" d="M65 97L66 98L65 97z"/>
<path style="fill:#8be086; stroke:none;" d="M115 97L116 98L115 97z"/>
<path style="fill:#c6f2c4; stroke:none;" d="M176 97L176 103L177 103L176 97z"/>
<path style="fill:#a0e8a0; stroke:none;" d="M185 97L185 101L186 101L185 97z"/>
<path style="fill:#c6f2c4; stroke:none;" d="M201 100L202 100C208.065 95.4049 221.55 98 229 98C224.783 95.5705 202.071 95.0043 201 100z"/>
<path style="fill:#a0e8a0; stroke:none;" d="M243.333 97.6667L243.667 98.3333L243.333 97.6667z"/>
<path style="fill:#c6f2c4; stroke:none;" d="M244 97L244 98L272 98L244 97M307.333 97.6667L307.667 98.3333L307.333 97.6667M333.333 97.6667L333.667 98.3333L333.333 97.6667z"/>
<path style="fill:#8be086; stroke:none;" d="M451 97L452 98L451 97z"/>
<path style="fill:#c6f2c4; stroke:none;" d="M58 98L59 99L58 98z"/>
<path style="fill:#8be086; stroke:none;" d="M65.3333 98.6667L65.6667 99.3333L65.3333 98.6667M108 98L107 101L108 98M114.333 98.6667L114.667 99.3333L114.333 98.6667M278.333 98.6667L278.667 99.3333L278.333 98.6667z"/>
<path style="fill:#c6f2c4; stroke:none;" d="M286.333 98.6667L286.667 99.3333L286.333 98.6667M354.333 98.6667L354.667 99.3333L354.333 98.6667z"/>
<path style="fill:#8be086; stroke:none;" d="M362.333 98.6667L362.667 99.3333L362.333 98.6667M421.333 98.6667L421.667 99.3333L421.333 98.6667z"/>
<path style="fill:#a0e8a0; stroke:none;" d="M443.333 98.6667L443.667 99.3333L443.333 98.6667M451.333 98.6667L451.667 99.3333L451.333 98.6667z"/>
<path style="fill:#8be086; stroke:none;" d="M59 99L61 101L59 99z"/>
<path style="fill:#c6f2c4; stroke:none;" d="M66 99L67 100L66 99M107 99L108 100L107 99z"/>
<path style="fill:#8be086; stroke:none;" d="M177.333 99.6667L177.667 100.333L177.333 99.6667M243 99L244 100L243 99z"/>
<path style="fill:#a0e8a0; stroke:none;" d="M307 99L308 100L307 99M333 99L334 100L333 99z"/>
<path style="fill:#c6f2c4; stroke:none;" d="M422.333 99.6667L422.667 100.333L422.333 99.6667M59 100L60 101L59 100z"/>
<path style="fill:#a0e8a0; stroke:none;" d="M66 100L67 101L66 100z"/>
<path style="fill:#c6f2c4; stroke:none;" d="M106 100L104 105L105 105L106 100z"/>
<path style="fill:#8be086; stroke:none;" d="M193 100L194 101L193 100z"/>
<path style="fill:#a0e8a0; stroke:none;" d="M201 100L202 101L201 100z"/>
<path style="fill:#c6f2c4; stroke:none;" d="M235.333 100.667L235.667 101.333L235.333 100.667M244.333 100.667L244.667 101.333L244.333 100.667z"/>
<path style="fill:#a0e8a0; stroke:none;" d="M278 100L279 101L278 100z"/>
<path style="fill:#8be086; stroke:none;" d="M286 100L287 101L286 100M307 100L308 101L307 100M333 100L334 101L333 100z"/>
<path style="fill:#a0e8a0; stroke:none;" d="M354 100L355 101L354 100M362.333 100.667L362.667 101.333L362.333 100.667z"/>
<path style="fill:#c6f2c4; stroke:none;" d="M442 100L443 101L442 100z"/>
<path style="fill:#8be086; stroke:none;" d="M443 100L444 101L443 100z"/>
<path style="fill:#c6f2c4; stroke:none;" d="M451 100L452 101L451 100z"/>
<path style="fill:#a0e8a0; stroke:none;" d="M60 101L61 102L60 101z"/>
<path style="fill:#8be086; stroke:none;" d="M66 101L67 102L66 101z"/>
<path style="fill:#c6f2c4; stroke:none;" d="M67 101L68 102L67 101z"/>
<path style="fill:#8be086; stroke:none;" d="M113 101L114 102L113 101z"/>
<path style="fill:#c6f2c4; stroke:none;" d="M153.667 101.333L154.333 101.667L153.667 101.333z"/>
<path style="fill:#a0e8a0; stroke:none;" d="M155 101L156 102L155 101z"/>
<path style="fill:#8be086; stroke:none;" d="M156.667 101.333L157.333 101.667L156.667 101.333z"/>
<path style="fill:#c6f2c4; stroke:none;" d="M185 101L185 104L186 104L185 101z"/>
<path style="fill:#a0e8a0; stroke:none;" d="M193 101L194 102L193 101z"/>
<path style="fill:#8be086; stroke:none;" d="M201 101L202 102L201 101M236.333 101.667L236.667 102.333L236.333 101.667z"/>
<path style="fill:#c6f2c4; stroke:none;" d="M278.333 101.667L278.667 102.333L278.333 101.667M287 101L288 102L287 101M306 101L307 102L306 101M334 101L335 102L334 101M353 101L354 102L353 101z"/>
<path style="fill:#8be086; stroke:none;" d="M422 101L423 102L422 101z"/>
<path style="fill:#a0e8a0; stroke:none;" d="M442 101L443 102L442 101z"/>
<path style="fill:#c6f2c4; stroke:none;" d="M60 102L61 103L60 102z"/>
<path style="fill:#a0e8a0; stroke:none;" d="M67 102L68 103L67 102z"/>
<path style="fill:#8be086; stroke:none;" d="M106 102L107 103L106 102z"/>
<path style="fill:#c6f2c4; stroke:none;" d="M150 102L151 103L150 102z"/>
<path style="fill:#8be086; stroke:none;" d="M151.667 102.333L152.333 102.667L151.667 102.333z"/>
<path style="fill:#c6f2c4; stroke:none;" d="M158 102L159 103L158 102M193 102L194 103L193 102M202 102L203 103L202 102z"/>
<path style="fill:#8be086; stroke:none;" d="M244 102L245 103L244 102M287 102L288 103L287 102z"/>
<path style="fill:#a0e8a0; stroke:none;" d="M306 102L307 103L306 102z"/>
<path style="fill:#8be086; stroke:none;" d="M334 102L335 103L334 102z"/>
<path style="fill:#a0e8a0; stroke:none;" d="M353 102L354 103L353 102z"/>
<path style="fill:#c6f2c4; stroke:none;" d="M362 102L363 103L362 102M423 102L424 103L423 102M441 102L442 103L441 102z"/>
<path style="fill:#a0e8a0; stroke:none;" d="M450 102L451 103L450 102z"/>
<path style="fill:#8be086; stroke:none;" d="M61 103L63 105L61 103M67 103L68 104L67 103z"/>
<path style="fill:#c6f2c4; stroke:none;" d="M68 103L69 104L68 103z"/>
<path style="fill:#8be086; stroke:none;" d="M112 103L113 104L112 103z"/>
<path style="fill:#c6f2c4; stroke:none;" d="M149 103L150 104L149 103z"/>
<path style="fill:#8be086; stroke:none;" d="M158 103L159 104L158 103M176 103L177 104L176 103M194 103L195 104L194 103M202 103L203 104L202 103z"/>
<path style="fill:#c6f2c4; stroke:none;" d="M220 103L219 105L220 103z"/>
<path style="fill:#8be086; stroke:none;" d="M221 103L222 104L221 103z"/>
<path style="fill:#c6f2c4; stroke:none;" d="M222 103L223 104L222 103M236 103L237 104L236 103M245 103L249 107L245 103z"/>
<path style="fill:#a0e8a0; stroke:none;" d="M263.667 103.333L264.333 103.667L263.667 103.333z"/>
<path style="fill:#c6f2c4; stroke:none;" d="M265 103L266 104L265 103z"/>
<path style="fill:#8be086; stroke:none;" d="M279 103L280 104L279 103z"/>
<path style="fill:#c6f2c4; stroke:none;" d="M288 103L290 105L288 103M305 103L303 106L305 103M335 103L337 105L335 103M352 103L350 106L352 103z"/>
<path style="fill:#8be086; stroke:none;" d="M361 103L362 104L361 103z"/>
<path style="fill:#c6f2c4; stroke:none;" d="M424 103L425 104L424 103z"/>
<path style="fill:#a0e8a0; stroke:none;" d="M441 103L442 104L441 103z"/>
<path style="fill:#c6f2c4; stroke:none;" d="M450 103L451 104L450 103M61 104L62 105L61 104z"/>
<path style="fill:#a0e8a0; stroke:none;" d="M68 104L69 105L68 104z"/>
<path style="fill:#8be086; stroke:none;" d="M105 104L106 105L105 104z"/>
<path style="fill:#a0e8a0; stroke:none;" d="M150 104L151 105L150 104z"/>
<path style="fill:#8be086; stroke:none;" d="M159 104L160 105L159 104z"/>
<path style="fill:#a0e8a0; stroke:none;" d="M175 104L176 105L175 104z"/>
<path style="fill:#8be086; stroke:none;" d="M184 104L185 105L184 104z"/>
<path style="fill:#c6f2c4; stroke:none;" d="M194 104L195 105L194 104z"/>
<path style="fill:#a0e8a0; stroke:none;" d="M203 104L204 105L203 104z"/>
<path style="fill:#8be086; stroke:none;" d="M220 104L221 105L220 104M223 104L224 105L223 104z"/>
<path style="fill:#a0e8a0; stroke:none;" d="M224 104L225 105L224 104z"/>
<path style="fill:#c6f2c4; stroke:none;" d="M225 104L226 105L225 104z"/>
<path style="fill:#8be086; stroke:none;" d="M237 104L238 105L237 104M245 104L246 105L245 104z"/>
<path style="fill:#c6f2c4; stroke:none;" d="M262 104L263 105L262 104z"/>
<path style="fill:#8be086; stroke:none;" d="M266 104L267 105L266 104z"/>
<path style="fill:#a0e8a0; stroke:none;" d="M267 104L268 105L267 104z"/>
<path style="fill:#c6f2c4; stroke:none;" d="M268 104L269 105L268 104z"/>
<path style="fill:#a0e8a0; stroke:none;" d="M279 104L280 105L279 104z"/>
<path style="fill:#8be086; stroke:none;" d="M288 104L289 105L288 104M305 104L306 105L305 104M335 104L336 105L335 104M352 104L353 105L352 104z"/>
<path style="fill:#c6f2c4; stroke:none;" d="M361 104L362 105L361 104z"/>
<path style="fill:#a0e8a0; stroke:none;" d="M424 104L425 105L424 104M440 104L441 105L440 104z"/>
<path style="fill:#8be086; stroke:none;" d="M449 104L450 105L449 104z"/>
<path style="fill:#a0e8a0; stroke:none;" d="M62 105L63 106L62 105z"/>
<path style="fill:#c6f2c4; stroke:none;" d="M69 105L70 106L69 105z"/>
<path style="fill:#a0e8a0; stroke:none;" d="M104 105L105 106L104 105z"/>
<path style="fill:#8be086; stroke:none;" d="M111 105L112 106L111 105z"/>
<path style="fill:#c6f2c4; stroke:none;" d="M150 105L151 106L150 105z"/>
<path style="fill:#8be086; stroke:none;" d="M160 105L162 107L160 105z"/>
<path style="fill:#c6f2c4; stroke:none;" d="M161 105L162 106L161 105z"/>
<path style="fill:#a0e8a0; stroke:none;" d="M174 105L175 106L174 105z"/>
<path style="fill:#c6f2c4; stroke:none;" d="M184 105L185 106L184 105z"/>
<path style="fill:#8be086; stroke:none;" d="M195 105L196 106L195 105z"/>
<path style="fill:#a0e8a0; stroke:none;" d="M204 105L205 106L204 105z"/>
<path style="fill:#8be086; stroke:none;" d="M219 105L220 106L219 105M226 105L228 107L226 105z"/>
<path style="fill:#a0e8a0; stroke:none;" d="M227 105L228 106L227 105z"/>
<path style="fill:#c6f2c4; stroke:none;" d="M237 105L238 106L237 105z"/>
<path style="fill:#8be086; stroke:none;" d="M246 105L247 106L246 105z"/>
<path style="fill:#c6f2c4; stroke:none;" d="M261 105L262 106L261 105z"/>
<path style="fill:#8be086; stroke:none;" d="M269 105L270 106L269 105z"/>
<path style="fill:#c6f2c4; stroke:none;" d="M270.333 105.667L270.667 106.333L270.333 105.667M290 105L291 106L290 105z"/>
<path style="fill:#8be086; stroke:none;" d="M304 105L305 106L304 105z"/>
<path style="fill:#c6f2c4; stroke:none;" d="M337 105L338 106L337 105z"/>
<path style="fill:#8be086; stroke:none;" d="M351 105L352 106L351 105M360 105L361 106L360 105M425 105L426 106L425 105z"/>
<path style="fill:#a0e8a0; stroke:none;" d="M439 105L440 106L439 105M449 105L450 106L449 105z"/>
<path style="fill:#c6f2c4; stroke:none;" d="M62 106L63 107L62 106z"/>
<path style="fill:#8be086; stroke:none;" d="M63 106L64 107L63 106z"/>
<path style="fill:#a0e8a0; stroke:none;" d="M69 106L70 107L69 106z"/>
<path style="fill:#c6f2c4; stroke:none;" d="M103 106L102 109L103 106z"/>
<path style="fill:#8be086; stroke:none;" d="M104 106L105 107L104 106z"/>
<path style="fill:#c6f2c4; stroke:none;" d="M111 106L108 113L109 113L111 106z"/>
<path style="fill:#a0e8a0; stroke:none;" d="M151 106L152 107L151 106z"/>
<path style="fill:#c6f2c4; stroke:none;" d="M162 106L163 107L162 106M172 106L173 107L172 106z"/>
<path style="fill:#8be086; stroke:none;" d="M173 106L174 107L173 106M183 106L184 107L183 106z"/>
<path style="fill:#c6f2c4; stroke:none;" d="M195 106L196 107L195 106z"/>
<path style="fill:#a0e8a0; stroke:none;" d="M205 106L206 107L205 106z"/>
<path style="fill:#c6f2c4; stroke:none;" d="M217 106L218 107L217 106z"/>
<path style="fill:#8be086; stroke:none;" d="M218 106L219 107L218 106M238 106L239 107L238 106M247 106L248 107L247 106z"/>
<path style="fill:#a0e8a0; stroke:none;" d="M260 106L261 107L260 106z"/>
<path style="fill:#c6f2c4; stroke:none;" d="M280 106L281 107L280 106z"/>
<path style="fill:#a0e8a0; stroke:none;" d="M291 106L292 107L291 106M302 106L303 107L302 106M338 106L339 107L338 106z"/>
<path style="fill:#c6f2c4; stroke:none;" d="M349 106L350 107L349 106M360 106L361 107L360 106M427 106L428 107L427 106M437 106L438 107L437 106z"/>
<path style="fill:#8be086; stroke:none;" d="M438 106L439 107L438 106M448 106L449 107L448 106z"/>
<path style="fill:#c6f2c4; stroke:none;" d="M449 106L450 107L449 106z"/>
<path style="fill:#a0e8a0; stroke:none;" d="M63 107L64 108L63 107z"/>
<path style="fill:#8be086; stroke:none;" d="M69 107L70 108L69 107z"/>
<path style="fill:#c6f2c4; stroke:none;" d="M70 107L71 110L72 110L70 107z"/>
<path style="fill:#8be086; stroke:none;" d="M110 107L111 108L110 107z"/>
<path style="fill:#c6f2c4; stroke:none;" d="M151 107L153 109L151 107z"/>
<path style="fill:#8be086; stroke:none;" d="M152 107L153 108L152 107M163 107L164 108L163 107z"/>
<path style="fill:#a0e8a0; stroke:none;" d="M164 107L165 108L164 107z"/>
<path style="fill:#c6f2c4; stroke:none;" d="M165 107L165 108L170 108L165 107z"/>
<path style="fill:#a0e8a0; stroke:none;" d="M170 107L171 108L170 107z"/>
<path style="fill:#8be086; stroke:none;" d="M171 107L172 108L171 107z"/>
<path style="fill:#c6f2c4; stroke:none;" d="M183 107L184 108L183 107z"/>
<path style="fill:#a0e8a0; stroke:none;" d="M196 107L197 108L196 107z"/>
<path style="fill:#8be086; stroke:none;" d="M206 107L207 108L206 107z"/>
<path style="fill:#a0e8a0; stroke:none;" d="M207 107L208 108L207 107z"/>
<path style="fill:#c6f2c4; stroke:none;" d="M208 107L209 108L208 107M215 107L216 108L215 107z"/>
<path style="fill:#a0e8a0; stroke:none;" d="M216 107L217 108L216 107z"/>
<path style="fill:#c6f2c4; stroke:none;" d="M227 107L228 108L227 107M238 107L239 108L238 107z"/>
<path style="fill:#a0e8a0; stroke:none;" d="M249 107L250 108L249 107z"/>
<path style="fill:#c6f2c4; stroke:none;" d="M250.667 107.333L251.333 107.667L250.667 107.333M257 107L258 108L257 107z"/>
<path style="fill:#a0e8a0; stroke:none;" d="M258 107L259 108L258 107z"/>
<path style="fill:#8be086; stroke:none;" d="M259 107L260 108L259 107z"/>
<path style="fill:#a0e8a0; stroke:none;" d="M269 107L270 108L269 107M281 107L282 108L281 107z"/>
<path style="fill:#8be086; stroke:none;" d="M292 107L293 108L292 107z"/>
<path style="fill:#a0e8a0; stroke:none;" d="M293 107L294 108L293 107z"/>
<path style="fill:#c6f2c4; stroke:none;" d="M294 107L294 108L300 108L294 107z"/>
<path style="fill:#a0e8a0; stroke:none;" d="M300 107L301 108L300 107z"/>
<path style="fill:#8be086; stroke:none;" d="M301 107L302 108L301 107M339 107L340 108L339 107z"/>
<path style="fill:#a0e8a0; stroke:none;" d="M340 107L341 108L340 107z"/>
<path style="fill:#c6f2c4; stroke:none;" d="M341 107L341 108L347 108L341 107z"/>
<path style="fill:#a0e8a0; stroke:none;" d="M347 107L348 108L347 107z"/>
<path style="fill:#8be086; stroke:none;" d="M348 107L349 108L348 107z"/>
<path style="fill:#a0e8a0; stroke:none;" d="M359 107L360 108L359 107z"/>
<path style="fill:#8be086; stroke:none;" d="M428 107L429 108L428 107z"/>
<path style="fill:#a0e8a0; stroke:none;" d="M429 107L430 108L429 107z"/>
<path style="fill:#c6f2c4; stroke:none;" d="M430 107L430 108L436 108L430 107z"/>
<path style="fill:#a0e8a0; stroke:none;" d="M436 107L437 108L436 107z"/>
<path style="fill:#c6f2c4; stroke:none;" d="M448 107L449 108L448 107M63 108L64 109L63 108z"/>
<path style="fill:#8be086; stroke:none;" d="M64 108L65 109L64 108z"/>
<path style="fill:#a0e8a0; stroke:none;" d="M70 108L71 109L70 108z"/>
<path style="fill:#8be086; stroke:none;" d="M103 108L104 109L103 108M109.333 108.667L109.667 109.333L109.333 108.667z"/>
<path style="fill:#a0e8a0; stroke:none;" d="M182 108L183 109L182 108z"/>
<path style="fill:#8be086; stroke:none;" d="M197 108L200 111L197 108M209 108L209 109L215 109L209 108z"/>
<path style="fill:#a0e8a0; stroke:none;" d="M226 108L227 109L226 108M239 108L240 109L239 108z"/>
<path style="fill:#8be086; stroke:none;" d="M251 108L251 109L257 109L251 108M268 108L269 109L268 108z"/>
<path style="fill:#c6f2c4; stroke:none;" d="M269 108L270 109L269 108M281 108L283 110L281 108z"/>
<path style="fill:#8be086; stroke:none;" d="M282 108L283 109L282 108M296.667 108.333L297.333 108.667L296.667 108.333M303 113L309 109L303 113M343.667 108.333L344.333 108.667L343.667 108.333M358 108L359 109L358 108M432.667 108.333L433.333 108.667L432.667 108.333z"/>
<path style="fill:#a0e8a0; stroke:none;" d="M447 108L448 109L447 108M64 109L65 110L64 109z"/>
<path style="fill:#8be086; stroke:none;" d="M70 109L71 110L70 109z"/>
<path style="fill:#a0e8a0; stroke:none;" d="M102 109L103 110L102 109M153 109L154 110L153 109z"/>
<path style="fill:#8be086; stroke:none;" d="M181 109L182 110L181 109z"/>
<path style="fill:#c6f2c4; stroke:none;" d="M197 109L198 110L197 109z"/>
<path style="fill:#a0e8a0; stroke:none;" d="M225 109L226 110L225 109M240 109L241 110L240 109z"/>
<path style="fill:#c6f2c4; stroke:none;" d="M268 109L269 110L268 109M307 109L308 110L307 109z"/>
<path style="fill:#a0e8a0; stroke:none;" d="M308.333 109.667L308.667 110.333L308.333 109.667M332 109L332 112L333 112L332 109z"/>
<path style="fill:#c6f2c4; stroke:none;" d="M333 109L334 110L333 109M358 109L359 110L358 109z"/>
<path style="fill:#a0e8a0; stroke:none;" d="M421.667 109.333L422.333 109.667L421.667 109.333M446 109L447 110L446 109z"/>
<path style="fill:#c6f2c4; stroke:none;" d="M64 110L65 111L64 110z"/>
<path style="fill:#8be086; stroke:none;" d="M65 110L66 111L65 110z"/>
<path style="fill:#a0e8a0; stroke:none;" d="M71 110L72 111L71 110z"/>
<path style="fill:#c6f2c4; stroke:none;" d="M101 110L102 111L101 110z"/>
<path style="fill:#8be086; stroke:none;" d="M102 110L103 111L102 110z"/>
<path style="fill:#c6f2c4; stroke:none;" d="M154 110L155 111L154 110z"/>
<path style="fill:#a0e8a0; stroke:none;" d="M180 110L181 111L180 110z"/>
<path style="fill:#c6f2c4; stroke:none;" d="M198 110L199 111L198 110z"/>
<path style="fill:#a0e8a0; stroke:none;" d="M224 110L225 111L224 110M241 110L242 111L241 110z"/>
<path style="fill:#8be086; stroke:none;" d="M266 110L265 112L266 110z"/>
<path style="fill:#c6f2c4; stroke:none;" d="M267 110L268 111L267 110M283 110L284 111L283 110M306 110L307 111L306 110z"/>
<path style="fill:#a0e8a0; stroke:none;" d="M334 110L335 111L334 110z"/>
<path style="fill:#8be086; stroke:none;" d="M356 110L355 112L356 110z"/>
<path style="fill:#c6f2c4; stroke:none;" d="M357 110L358 111L357 110z"/>
<path style="fill:#8be086; stroke:none;" d="M423 110L424 111L423 110z"/>
<path style="fill:#a0e8a0; stroke:none;" d="M445 110L446 111L445 110M65 111L66 112L65 111z"/>
<path style="fill:#8be086; stroke:none;" d="M71 111L73 113L71 111z"/>
<path style="fill:#c6f2c4; stroke:none;" d="M72 111L73 112L72 111z"/>
<path style="fill:#a0e8a0; stroke:none;" d="M101 111L102 112L101 111z"/>
<path style="fill:#8be086; stroke:none;" d="M108 111L109 112L108 111z"/>
<path style="fill:#c6f2c4; stroke:none;" d="M155 111L156 112L155 111z"/>
<path style="fill:#a0e8a0; stroke:none;" d="M179 111L180 112L179 111M200 111L201 112L200 111M223 111L224 112L223 111z"/>
<path style="fill:#c6f2c4; stroke:none;" d="M242 111L243 112L242 111M266 111L267 112L266 111M284 111L286 113L284 111z"/>
<path style="fill:#8be086; stroke:none;" d="M285 111L286 112L285 111z"/>
<path style="fill:#c6f2c4; stroke:none;" d="M305 111L306 112L305 111M308 111L308 114L309 114L308 111z"/>
<path style="fill:#a0e8a0; stroke:none;" d="M335 111L336 112L335 111z"/>
<path style="fill:#c6f2c4; stroke:none;" d="M356 111L357 112L356 111z"/>
<path style="fill:#8be086; stroke:none;" d="M424 111L425 112L424 111z"/>
<path style="fill:#a0e8a0; stroke:none;" d="M444 111L445 112L444 111z"/>
<path style="fill:#c6f2c4; stroke:none;" d="M65 112L66 113L65 112z"/>
<path style="fill:#8be086; stroke:none;" d="M66 112L67 115L68 115L66 112z"/>
<path style="fill:#c6f2c4; stroke:none;" d="M100 112L101 113L100 112z"/>
<path style="fill:#8be086; stroke:none;" d="M101 112L102 113L101 112z"/>
<path style="fill:#a0e8a0; stroke:none;" d="M157 112L158 113L157 112z"/>
<path style="fill:#8be086; stroke:none;" d="M177 112L178 113L177 112z"/>
<path style="fill:#c6f2c4; stroke:none;" d="M178 112L179 113L178 112M201 112L202 113L201 112z"/>
<path style="fill:#8be086; stroke:none;" d="M221 112L222 113L221 112z"/>
<path style="fill:#c6f2c4; stroke:none;" d="M222 112L223 113L222 112z"/>
<path style="fill:#8be086; stroke:none;" d="M244 112L245 113L244 112z"/>
<path style="fill:#a0e8a0; stroke:none;" d="M264 112L265 113L264 112z"/>
<path style="fill:#8be086; stroke:none;" d="M286 112L287 113L286 112z"/>
<path style="fill:#c6f2c4; stroke:none;" d="M304 112L305 113L304 112M332.333 112.667L332.667 113.333L332.333 112.667M336 112L337 113L336 112z"/>
<path style="fill:#a0e8a0; stroke:none;" d="M354 112L355 113L354 112M425 112L426 113L425 112z"/>
<path style="fill:#8be086; stroke:none;" d="M442 112L443 113L442 112z"/>
<path style="fill:#c6f2c4; stroke:none;" d="M443 112L444 113L443 112z"/>
<path style="fill:#a0e8a0; stroke:none;" d="M66 113L67 114L66 113z"/>
<path style="fill:#c6f2c4; stroke:none;" d="M73 113L74 114L73 113z"/>
<path style="fill:#a0e8a0; stroke:none;" d="M100 113L101 114L100 113M107 113L108 114L107 113z"/>
<path style="fill:#c6f2c4; stroke:none;" d="M158 113L159 114L158 113z"/>
<path style="fill:#a0e8a0; stroke:none;" d="M159 113L160 114L159 113z"/>
<path style="fill:#8be086; stroke:none;" d="M160 113L161 114L160 113z"/>
<path style="fill:#a0e8a0; stroke:none;" d="M175 113L176 114L175 113z"/>
<path style="fill:#c6f2c4; stroke:none;" d="M176 113L177 114L176 113M202 113L203 114L202 113z"/>
<path style="fill:#a0e8a0; stroke:none;" d="M203 113L204 114L203 113z"/>
<path style="fill:#8be086; stroke:none;" d="M204 113L205 114L204 113M219 113L220 114L219 113z"/>
<path style="fill:#c6f2c4; stroke:none;" d="M220 113L221 114L220 113M245 113L246 114L245 113z"/>
<path style="fill:#a0e8a0; stroke:none;" d="M246 113L247 114L246 113z"/>
<path style="fill:#8be086; stroke:none;" d="M261 113L262 114L261 113z"/>
<path style="fill:#a0e8a0; stroke:none;" d="M262 113L263 114L262 113z"/>
<path style="fill:#c6f2c4; stroke:none;" d="M263 113L264 114L263 113M287 113L288 114L287 113z"/>
<path style="fill:#8be086; stroke:none;" d="M288 113L289 114L288 113M301 113L302 114L301 113z"/>
<path style="fill:#c6f2c4; stroke:none;" d="M302 113L303 114L302 113M337 113L338 114L337 113z"/>
<path style="fill:#a0e8a0; stroke:none;" d="M338 113L339 114L338 113M352 113L353 114L352 113z"/>
<path style="fill:#c6f2c4; stroke:none;" d="M353 113L354 114L353 113M426 113L427 114L426 113z"/>
<path style="fill:#8be086; stroke:none;" d="M427 113L428 114L427 113M440 113L441 114L440 113z"/>
<path style="fill:#a0e8a0; stroke:none;" d="M441 113L442 114L441 113z"/>
<path style="fill:#c6f2c4; stroke:none;" d="M442 113L443 114L442 113M66 114L67 115L66 114z"/>
<path style="fill:#a0e8a0; stroke:none;" d="M73 114L74 115L73 114z"/>
<path style="fill:#c6f2c4; stroke:none;" d="M99 114L100 115L99 114z"/>
<path style="fill:#8be086; stroke:none;" d="M100 114L101 115L100 114z"/>
<path style="fill:#c6f2c4; stroke:none;" d="M107 114L108 115L107 114M161 114L162 115L161 114z"/>
<path style="fill:#a0e8a0; stroke:none;" d="M162 114L163 115L162 114z"/>
<path style="fill:#8be086; stroke:none;" d="M163 114L164 115L163 114M172 114L173 115L172 114z"/>
<path style="fill:#c6f2c4; stroke:none;" d="M173.667 114.333L174.333 114.667L173.667 114.333M205 114L206 115L205 114z"/>
<path style="fill:#a0e8a0; stroke:none;" d="M206 114L207 115L206 114z"/>
<path style="fill:#8be086; stroke:none;" d="M207 114L208 115L207 114z"/>
<path style="fill:#a0e8a0; stroke:none;" d="M216 114L217 115L216 114z"/>
<path style="fill:#c6f2c4; stroke:none;" d="M217.667 114.333L218.333 114.667L217.667 114.333M247.667 114.333L248.333 114.667L247.667 114.333z"/>
<path style="fill:#a0e8a0; stroke:none;" d="M249 114L250 115L249 114z"/>
<path style="fill:#8be086; stroke:none;" d="M258 114L259 115L258 114z"/>
<path style="fill:#a0e8a0; stroke:none;" d="M259 114L260 115L259 114z"/>
<path style="fill:#c6f2c4; stroke:none;" d="M260 114L261 115L260 114M289 114L290 115L289 114z"/>
<path style="fill:#a0e8a0; stroke:none;" d="M290 114L291 115L290 114z"/>
<path style="fill:#8be086; stroke:none;" d="M291 114L292 115L291 114z"/>
<path style="fill:#a0e8a0; stroke:none;" d="M299 114L300 115L299 114z"/>
<path style="fill:#c6f2c4; stroke:none;" d="M300 114L301 115L300 114M309 114L309 115L316 115L309 114M326 114L326 115L332 115L326 114M339.667 114.333L340.333 114.667L339.667 114.333z"/>
<path style="fill:#8be086; stroke:none;" d="M341 114L342 115L341 114M349 114L350 115L349 114z"/>
<path style="fill:#c6f2c4; stroke:none;" d="M350.667 114.333L351.333 114.667L350.667 114.333M372 114L372 115L379 115L372 114M397 114L397 115L404 115L397 114M428 114L429 115L428 114z"/>
<path style="fill:#a0e8a0; stroke:none;" d="M429 114L430 115L429 114z"/>
<path style="fill:#8be086; stroke:none;" d="M430 114L431 115L430 114z"/>
<path style="fill:#a0e8a0; stroke:none;" d="M438 114L439 115L438 114z"/>
<path style="fill:#c6f2c4; stroke:none;" d="M439 114L440 115L439 114z"/>
<path style="fill:#a0e8a0; stroke:none;" d="M67 115L68 116L67 115z"/>
<path style="fill:#c6f2c4; stroke:none;" d="M74 115L76 119L77 119L74 115z"/>
<path style="fill:#a0e8a0; stroke:none;" d="M99 115L100 116L99 115z"/>
<path style="fill:#8be086; stroke:none;" d="M106 115L107 116L106 115z"/>
<path style="fill:#c6f2c4; stroke:none;" d="M166 115L166 116L170 116L166 115M210 115L210 116L213 116L210 115M252 115L252 116L256 116L252 115M294 115L294 116L297 116L294 115M344 115L344 116L347 116L344 115M432 115L432 116L436 116L432 115M67 116L68 117L67 116z"/>
<path style="fill:#8be086; stroke:none;" d="M68 116L69 117L68 116M74 116L75 117L74 116z"/>
<path style="fill:#c6f2c4; stroke:none;" d="M98 116L99 117L98 116z"/>
<path style="fill:#8be086; stroke:none;" d="M99 116L100 117L99 116z"/>
<path style="fill:#c6f2c4; stroke:none;" d="M106 116L104 121L105 121L106 116z"/>
<path style="fill:#a0e8a0; stroke:none;" d="M68 117L69 118L68 117M98 117L99 118L98 117M105 117L106 118L105 117z"/>
<path style="fill:#c6f2c4; stroke:none;" d="M68 118L69 119L68 118z"/>
<path style="fill:#8be086; stroke:none;" d="M69 118L70 119L69 118M75 118L77 121L75 118z"/>
<path style="fill:#c6f2c4; stroke:none;" d="M97 118L98 119L97 118z"/>
<path style="fill:#8be086; stroke:none;" d="M98 118L99 119L98 118z"/>
<path style="fill:#a0e8a0; stroke:none;" d="M69 119L70 120L69 119M76 119L77 120L76 119M97 119L98 120L97 119z"/>
<path style="fill:#8be086; stroke:none;" d="M104 119L105 120L104 119z"/>
<path style="fill:#c6f2c4; stroke:none;" d="M69 120L70 121L69 120z"/>
<path style="fill:#8be086; stroke:none;" d="M70 120L71 121L70 120z"/>
<path style="fill:#c6f2c4; stroke:none;" d="M77 120L79 122L77 120M96 120L92 125L96 120z"/>
<path style="fill:#a0e8a0; stroke:none;" d="M70 121L71 122L70 121M77 121L78 122L77 121z"/>
<path style="fill:#8be086; stroke:none;" d="M96 121L97 122L96 121z"/>
<path style="fill:#a0e8a0; stroke:none;" d="M103 121L104 122L103 121z"/>
<path style="fill:#c6f2c4; stroke:none;" d="M70 122L72 124L70 122z"/>
<path style="fill:#8be086; stroke:none;" d="M71 122L72 123L71 122z"/>
<path style="fill:#a0e8a0; stroke:none;" d="M78 122L79 123L78 122M95 122L96 123L95 122z"/>
<path style="fill:#8be086; stroke:none;" d="M102 122L103 123L102 122z"/>
<path style="fill:#c6f2c4; stroke:none;" d="M103 122L104 123L103 122z"/>
<path style="fill:#8be086; stroke:none;" d="M72 123L73 124L72 123z"/>
<path style="fill:#a0e8a0; stroke:none;" d="M79 123L80 124L79 123M94 123L95 124L94 123M102 123L103 124L102 123M72 124L73 125L72 124M80 124L81 125L80 124z"/>
<path style="fill:#c6f2c4; stroke:none;" d="M81 124L82 125L81 124z"/>
<path style="fill:#8be086; stroke:none;" d="M93 124L94 125L93 124M101 124L100 126L101 124z"/>
<path style="fill:#c6f2c4; stroke:none;" d="M102 124L103 125L102 124M72 125L78 131L72 125z"/>
<path style="fill:#8be086; stroke:none;" d="M73 125L74 126L73 125M81 125L82 126L81 125z"/>
<path style="fill:#a0e8a0; stroke:none;" d="M82 125L83 126L82 125z"/>
<path style="fill:#c6f2c4; stroke:none;" d="M83.6667 125.333L84.3333 125.667L83.6667 125.333M88 125L88 126L91 126L88 125z"/>
<path style="fill:#a0e8a0; stroke:none;" d="M91 125L92 126L91 125z"/>
<path style="fill:#8be086; stroke:none;" d="M92 125L93 126L92 125z"/>
<path style="fill:#c6f2c4; stroke:none;" d="M101 125L102 126L101 125z"/>
<path style="fill:#8be086; stroke:none;" d="M74 126L75 127L74 126M83 126L83 127L86 127L83 126z"/>
<path style="fill:#a0e8a0; stroke:none;" d="M86.6667 126.333L87.3333 126.667L86.6667 126.333z"/>
<path style="fill:#8be086; stroke:none;" d="M88.6667 126.333L89.3333 126.667L88.6667 126.333z"/>
<path style="fill:#c6f2c4; stroke:none;" d="M100 126L101 127L100 126z"/>
<path style="fill:#8be086; stroke:none;" d="M75 127L76 128L75 127z"/>
<path style="fill:#a0e8a0; stroke:none;" d="M99 127L100 128L99 127z"/>
<path style="fill:#8be086; stroke:none;" d="M76 128L77 129L76 128M97 128L96 130L97 128z"/>
<path style="fill:#a0e8a0; stroke:none;" d="M98 128L99 129L98 128z"/>
<path style="fill:#8be086; stroke:none;" d="M77 129L77 130L83 132L83 131L77 129z"/>
<path style="fill:#c6f2c4; stroke:none;" d="M97 129L98 130L97 129z"/>
<path style="fill:#a0e8a0; stroke:none;" d="M78 130L79 131L78 130z"/>
<path style="fill:#8be086; stroke:none;" d="M94 130L95 131L94 130z"/>
<path style="fill:#a0e8a0; stroke:none;" d="M95 130L96 131L95 130z"/>
<path style="fill:#c6f2c4; stroke:none;" d="M96 130L97 131L96 130M79 131L80 132L79 131z"/>
<path style="fill:#a0e8a0; stroke:none;" d="M80 131L81 132L80 131z"/>
<path style="fill:#8be086; stroke:none;" d="M92 131L93 132L92 131z"/>
<path style="fill:#a0e8a0; stroke:none;" d="M93 131L94 132L93 131z"/>
<path style="fill:#c6f2c4; stroke:none;" d="M94 131L95 132L94 131M81.6667 132.333L82.3333 132.667L81.6667 132.333z"/>
<path style="fill:#a0e8a0; stroke:none;" d="M83.6667 132.333L84.3333 132.667L83.6667 132.333z"/>
<path style="fill:#8be086; stroke:none;" d="M85 132L86 133L85 132M88 132L89 133L88 132z"/>
<path style="fill:#a0e8a0; stroke:none;" d="M89.6667 132.333L90.3333 132.667L89.6667 132.333z"/>
<path style="fill:#c6f2c4; stroke:none;" d="M91.6667 132.333L92.3333 132.667L91.6667 132.333z"/>
</svg>
