<?xml version="1.0" standalone="yes"?>
<svg xmlns="http://www.w3.org/2000/svg" width="572" height="211">
<path style="fill:#fefffe; stroke:none;" d="M0 0L0 211L572 211L572 0L0 0z"/>
<path style="fill:#bbeebf; stroke:none;" d="M51 44L51 45L63 41C58.6807 39.3317 54.7578 41.8175 51 44z"/>
<path style="fill:#6fee78; stroke:none;" d="M63 40.7539C47.6185 45.3519 36.334 58.2758 39.4676 75C43.979 99.0773 61.3518 124.266 72.2469 146C78.0271 157.531 86.9844 179.81 104 175.271C116.492 171.938 121.062 161.471 126.692 151C136.711 132.366 145.303 113.033 154.51 94C161.148 80.2778 167.664 68.1444 158.351 54.0147C147.675 37.8171 129.707 38.4844 115 48.1011C111.168 50.607 104.842 58.656 100 58.0787C96.2412 57.6306 92.8034 52.8676 90 50.6296C83.7208 45.617 71.3346 38.2624 63 40.7539z"/>
<path style="fill:#bbeebf; stroke:none;" d="M70 40L70 41C77.6609 42.0367 83.9468 45.2743 90 50.0147C92.8384 52.2374 97.1505 57.7991 101 57.7932C105.817 57.7858 113.04 48.8474 117 46C110.493 46.2192 106.272 57.0133 100.424 56.2299C97.157 55.7922 93.5125 50.7966 91 48.8187C84.8763 43.998 77.8755 40.3607 70 40M118 44L118 45L131 41L118 44z"/>
<path style="fill:#8ae191; stroke:none;" d="M131 40L132 41L131 40M138 40L139 41L138 40z"/>
<path style="fill:#bbeebf; stroke:none;" d="M139 40L139 41C151.213 42.8305 161.169 52.7874 163 65C167.637 52.9944 148.894 40.8692 139 40z"/>
<path style="fill:#8ae191; stroke:none;" d="M59 41L59 42L62 42L59 41M71 41L71 42L74 42L71 41M127 41L127 42L130 42L127 41M140 41L140 42L143 42L140 41M54 43L54 44L59 43L54 43M74 42L74 43L80 44L74 42M124 42L124 43L127 43L124 42M143 42L143 43L148 44L148 43L143 42M116 46L116 47L124 44L116 46M52.6667 44.3333L53.3333 44.6667L52.6667 44.3333M80 44L80 45L86 47L86 46L80 44M148.667 44.3333L149.333 44.6667L148.667 44.3333z"/>
<path style="fill:#bbeebf; stroke:none;" d="M49 45C37.0386 56.3791 35.0099 68.6589 40 84L41 84C38.808 74.5248 36.28 66.3482 40.9992 57C43.1537 52.7321 47.8988 49.5606 49 45z"/>
<path style="fill:#8ae191; stroke:none;" d="M48 48L52 45L48 48M150 45L151 46L150 45M151 46L155 49L151 46M86 47L87 48L86 47M113 49L116 47L113 49M133 47L134 48L133 47M135 47L136 48L135 47M47 48L48 49L47 48M46 63L47 63C50.0257 56.121 55.4414 50.4625 63 49C54.7967 46.1631 47.9314 56.3109 46 63z"/>
<path style="fill:#bbeebf; stroke:none;" d="M56 51L56 52C70.3801 46.64 98.3548 55.6875 88 74C96.6737 66.9322 92.6207 61.3455 84.9961 55.3642C76.428 48.6427 65.9719 45.9953 56 51z"/>
<path style="fill:#8ae191; stroke:none;" d="M70 48L70 49L76 50L70 48M87 48L91 51L87 48M118 86L119 86C116.878 79.2953 109.796 73.5661 108.458 67C106.807 58.9004 123.802 50.5626 130 49C123.243 47.0085 105.92 58.3156 106.654 66.0394C107.233 72.1207 114.862 80.6287 118 86z"/>
<path style="fill:#bbeebf; stroke:none;" d="M117 82L118 82C116.115 77.5018 108.524 69.7785 109.538 65C110.266 61.5656 114.403 58.6903 117 56.6798C131.158 45.7194 140.051 49.3891 153 59C145.469 44.6046 128.421 46.5251 117 54.7855C113.815 57.0894 108.621 60.8718 107.831 65C106.882 69.9594 114.526 77.8207 117 82z"/>
<path style="fill:#8ae191; stroke:none;" d="M139 48L139 49L144 50L139 48M46 49L47 50L46 49z"/>
<path style="fill:#fefffe; stroke:none;" d="M63 49.4684C50.2309 51.8207 44.7167 64.117 47.7608 76C53.7044 99.2014 69.0702 122.634 79.7531 144C84.116 152.726 89.6287 168.257 102 166.63C113.171 165.161 117.909 150.675 122.247 142C132.917 120.66 146.099 98.7378 153.48 76C156.673 66.1642 152.916 55.0658 142.996 50.7894C133.893 46.8648 108.343 53.0793 108.828 66C109.037 71.5685 116.333 78.9846 118.891 84C127.503 100.883 123.879 128.696 99 126.776C95.2194 126.485 91.1737 124.903 88.0039 122.867C72.6315 112.99 76.5052 94.5915 83.9005 81C86.2523 76.6776 91.481 71.91 92.2886 67C94.1073 55.9428 71.2805 47.9429 63 49.4684z"/>
<path style="fill:#8ae191; stroke:none;" d="M112 49L113 50L112 49M155 49L158 53L155 49M45 50L46 51L45 50M77.6667 50.3333L78.3333 50.6667L77.6667 50.3333M108 53L112 50L108 53M145 50L146 51L145 50M44 51L43 54L44 51M79 51L82 53L79 51M91 51L92 52L91 51M146.667 51.3333L147.333 51.6667L146.667 51.3333z"/>
<path style="fill:#bbeebf; stroke:none;" d="M54 52L55 53L54 52z"/>
<path style="fill:#8ae191; stroke:none;" d="M92 52L100 59L92 52M148 52L149 53L148 52z"/>
<path style="fill:#bbeebf; stroke:none;" d="M53 53L54 54L53 53z"/>
<path style="fill:#8ae191; stroke:none;" d="M82.6667 53.3333L83.3333 53.6667L82.6667 53.3333M107 53L108 54L107 53M149 53L151 55L151 53L149 53M158 53L159 54L158 53M42 54L40 60L41 60L42 54z"/>
<path style="fill:#bbeebf; stroke:none;" d="M52 54L53 55L52 54z"/>
<path style="fill:#8ae191; stroke:none;" d="M84 54L85 55L84 54M106 54L107 55L106 54M159.333 54.6667L159.667 55.3333L159.333 54.6667z"/>
<path style="fill:#bbeebf; stroke:none;" d="M51 55L52 56L51 55z"/>
<path style="fill:#8ae191; stroke:none;" d="M85 55L86 56L85 55M105 55L106 56L105 55M151 55L152 56L151 55z"/>
<path style="fill:#bbeebf; stroke:none;" d="M50 56L51 57L50 56z"/>
<path style="fill:#8ae191; stroke:none;" d="M86 56L87 57L86 56M104 56L105 57L104 56M152 56L155 66L156 66L152 56M160 56L161 60L162 60L160 56z"/>
<path style="fill:#bbeebf; stroke:none;" d="M49.3333 57.6667L49.6667 58.3333L49.3333 57.6667z"/>
<path style="fill:#8ae191; stroke:none;" d="M87 57L91 60L87 57M103 57L104 58L103 57M102 58L103 59L102 58z"/>
<path style="fill:#bbeebf; stroke:none;" d="M48 59L49 60L48 59z"/>
<path style="fill:#8ae191; stroke:none;" d="M39 60L39 64L40 64L39 60M91 60L95 65L91 60z"/>
<path style="fill:#bbeebf; stroke:none;" d="M153.333 60.6667L153.667 61.3333L153.333 60.6667M47.3333 61.6667L47.6667 62.3333L47.3333 61.6667z"/>
<path style="fill:#8ae191; stroke:none;" d="M162 61L162 64L163 64L162 61z"/>
<path style="fill:#bbeebf; stroke:none;" d="M154 62L154 66L155 66L154 62M46 63L48 80L49 80L46 63z"/>
<path style="fill:#8ae191; stroke:none;" d="M38 64L39 79L40 79L38 64M45 64L45 75L46 75L45 64M94 66L94 68L96 66L94 66z"/>
<path style="fill:#bbeebf; stroke:none;" d="M155 66L155 71L156 71L155 66z"/>
<path style="fill:#8ae191; stroke:none;" d="M93 68L94 69L93 68M92 69L91 72L92 69M155 71L143.247 100L120 148L121 148C131.302 130.367 139.243 111.307 148.244 93C151.062 87.2675 157.464 77.3766 155 71M90 72C84.8248 79.1236 80.3006 87.1931 79 96L80 96L90 72M93 117C86.603 107.605 84.3923 101.914 89.3117 91C93.2526 82.2571 98.8567 69.1614 107 81C107.171 77.607 103.382 71.5062 99.1806 73.1759C95.7071 74.5564 93.3878 79.9851 91.6049 83C85.5988 93.1562 79.8844 109.865 93 117z"/>
<path style="fill:#bbeebf; stroke:none;" d="M154 72L154 76L155 76L154 72M89 91L90 91L100 74L110 88C110.039 84.0498 104.42 71.8216 99.1698 74.7515C94.2146 77.5167 91.0739 86.02 89 91z"/>
<path style="fill:#8ae191; stroke:none;" d="M163 73L162 77L163 77L163 73z"/>
<path style="fill:#fefffe; stroke:none;" d="M100 74C96.5314 78.8436 93.3561 83.6863 90.6412 89C87.2898 95.5593 84.9266 105.398 89.7029 111.895C100.255 126.248 115.475 111.331 113.815 98C113.286 93.7524 111.352 89.7369 109.359 86C106.888 81.3685 104.182 77.2079 100 74z"/>
<path style="fill:#bbeebf; stroke:none;" d="M163 74L159 87L160 87L163 74z"/>
<path style="fill:#8ae191; stroke:none;" d="M46 75L54 95L55 95L46 75z"/>
<path style="fill:#bbeebf; stroke:none;" d="M87 75L88 76L87 75M86.3333 76.6667L86.6667 77.3333L86.3333 76.6667M153.333 76.6667L153.667 77.3333L153.333 76.6667M85 78L86 79L85 78M152 78L152 81L153 81L152 78z"/>
<path style="fill:#8ae191; stroke:none;" d="M161.333 78.6667L161.667 79.3333L161.333 78.6667M40 79L49 101L50 101L40 79z"/>
<path style="fill:#bbeebf; stroke:none;" d="M84.3333 79.6667L84.6667 80.3333L84.3333 79.6667z"/>
<path style="fill:#8ae191; stroke:none;" d="M160 80L159 85L160 85L160 80z"/>
<path style="fill:#bbeebf; stroke:none;" d="M49.3333 81.6667L49.6667 82.3333L49.3333 81.6667M83.3333 81.6667L83.6667 82.3333L83.3333 81.6667M151.333 81.6667L151.667 82.3333L151.333 81.6667z"/>
<path style="fill:#8ae191; stroke:none;" d="M108 82L109 83L108 82z"/>
<path style="fill:#bbeebf; stroke:none;" d="M50.3333 83.6667L50.6667 84.3333L50.3333 83.6667M82.3333 83.6667L82.6667 84.3333L82.3333 83.6667z"/>
<path style="fill:#8ae191; stroke:none;" d="M109 83L114 96L115 96L109 83z"/>
<path style="fill:#bbeebf; stroke:none;" d="M118 83L119 84L118 83M150.333 83.6667L150.667 84.3333L150.333 83.6667M360 83L359 105L356 103L360 106L360 83z"/>
<path style="fill:#8ae191; stroke:none;" d="M361 83L361 84L369 85L361 83z"/>
<path style="fill:#bbeebf; stroke:none;" d="M368 83L369 84L368 83M379 83L380 84L379 83z"/>
<path style="fill:#8ae191; stroke:none;" d="M388 139L393 143L388 138L387 144L380 144L380 84L388 84C385.439 82.9281 381.147 82.181 379.603 85.3179C377.732 89.1221 379 95.8451 379 100C379 112.439 375.784 129.949 379.318 141.852C381.239 148.321 387.638 143.643 388 139z"/>
<path style="fill:#bbeebf; stroke:none;" d="M388 83L389 107L394 102L389 106L388 83M479 83L479 145L480 145L480 103L479 83z"/>
<path style="fill:#8ae191; stroke:none;" d="M480 83L480 84L488 84L489 108C490.527 98.2167 492.144 83.0429 480 83z"/>
<path style="fill:#bbeebf; stroke:none;" d="M488 83L489 84L488 83M119 84L122 95L123 95L119 84M200 84L200 85L204 85L200 84z"/>
<path style="fill:#4dbe55; stroke:none;" d="M360 84L360 107C356.16 104.495 352.738 101.556 348 101.106C318.607 98.3142 320.035 150.208 349 144.66C353.64 143.771 357.169 140.521 361 138L361 144L369 144L369 103L368.397 86.3179L360 84M380 84L380 144L387 144L388 138C390.72 140.573 393.341 143.05 397 144.196C428.688 154.118 430.376 93.0798 398 101.558C393.99 102.608 390.986 105.282 388 108L388 84L380 84M480 84L480 144L487 144L488 138C490.986 140.717 493.99 143.392 498 144.442C531.206 153.138 527.925 90.1849 497.001 101.995C493.708 103.252 491.303 105.43 489 108L488 84L480 84z"/>
<path style="fill:#bbeebf; stroke:none;" d="M41 85L42 86L41 85M51.3333 85.6667L51.6667 86.3333L51.3333 85.6667M149.333 85.6667L149.667 86.3333L149.333 85.6667z"/>
<path style="fill:#8ae191; stroke:none;" d="M158 85L157 89L158 89L158 85z"/>
<path style="fill:#bbeebf; stroke:none;" d="M195.667 85.3333L196.333 85.6667L195.667 85.3333z"/>
<path style="fill:#8ae191; stroke:none;" d="M197 85L197 86L206 86L197 85z"/>
<path style="fill:#bbeebf; stroke:none;" d="M206.667 85.3333L207.333 85.6667L206.667 85.3333M369 85L369 144L370 144L370 104L369 85M81 86L82 87L81 86M189 88L189 89L194 87L189 88z"/>
<path style="fill:#8ae191; stroke:none;" d="M194.667 86.3333L195.333 86.6667L194.667 86.3333z"/>
<path style="fill:#4dbe55; stroke:none;" d="M182 132C188.534 152.406 223.118 147.635 220.895 125C219.696 112.79 207.7 112.974 199.001 109.03C195.218 107.315 190.891 103.586 193.047 99.0154C198.856 86.7008 211.088 100.095 220 99C215.848 81.5374 185.599 81.2312 183.189 100C181.385 114.052 193.872 116.111 203.999 119.765C208.991 121.566 213.716 126.354 210.678 131.906C203.443 145.132 191.338 128.534 182 132z"/>
<path style="fill:#8ae191; stroke:none;" d="M208 86L208 87L213 89L213 88L208 86z"/>
<path style="fill:#bbeebf; stroke:none;" d="M210 86L211 87L210 86M42.3333 87.6667L42.6667 88.3333L42.3333 87.6667M52.3333 87.6667L52.6667 88.3333L52.3333 87.6667z"/>
<path style="fill:#8ae191; stroke:none;" d="M119.333 87.6667L119.667 88.3333L119.333 87.6667z"/>
<path style="fill:#bbeebf; stroke:none;" d="M148 87L147 92L148 92L148 87z"/>
<path style="fill:#8ae191; stroke:none;" d="M192 87L193 88L192 87z"/>
<path style="fill:#bbeebf; stroke:none;" d="M212 87L213 88L212 87M80.3333 88.6667L80.6667 89.3333L80.3333 88.6667M158 88L147 112L148 112C151.302 106.322 159.079 94.4794 158 88z"/>
<path style="fill:#8ae191; stroke:none;" d="M190 88L191 89L190 88z"/>
<path style="fill:#bbeebf; stroke:none;" d="M213 88L214 89L213 88M43.3333 89.6667L43.6667 90.3333L43.3333 89.6667M53.3333 89.6667L53.6667 90.3333L53.3333 89.6667M111.333 89.6667L111.667 90.3333L111.333 89.6667z"/>
<path style="fill:#8ae191; stroke:none;" d="M120.333 89.6667L120.667 90.3333L120.333 89.6667M188 89L189 90L188 89M214 89L218 93L214 89z"/>
<path style="fill:#bbeebf; stroke:none;" d="M215 89L216 90L215 89M79 90L79 93L80 93L79 90z"/>
<path style="fill:#8ae191; stroke:none;" d="M156 90L155 94L156 94L156 90M187 90L188 91L187 90z"/>
<path style="fill:#bbeebf; stroke:none;" d="M216 90L217 91L216 90M44.3333 91.6667L44.6667 92.3333L44.3333 91.6667M54.3333 91.6667L54.6667 92.3333L54.3333 91.6667M112.333 91.6667L112.667 92.3333L112.333 91.6667M186 91L187 92L186 91M217 91L218 92L217 91M88.3333 92.6667L88.6667 93.3333L88.3333 92.6667z"/>
<path style="fill:#8ae191; stroke:none;" d="M121 92C122.501 110.374 118.473 124.078 97 125L97 126C114.289 125.857 131.842 109.982 121 92z"/>
<path style="fill:#bbeebf; stroke:none;" d="M146.333 92.6667L146.667 93.3333L146.333 92.6667M185 92L184 94L185 92M45.3333 93.6667L45.6667 94.3333L45.3333 93.6667M78 93L78 97L79 97L78 93M113 93L113 96L114 96L113 93z"/>
<path style="fill:#8ae191; stroke:none;" d="M185 93L186 94L185 93M198 93L198 94L205 94L198 93z"/>
<path style="fill:#bbeebf; stroke:none;" d="M218 93L219 94L218 93M55 94L61 108L62 108L55 94M145.333 94.6667L145.667 95.3333L145.333 94.6667z"/>
<path style="fill:#8ae191; stroke:none;" d="M154 94L153 98L154 98L154 94M184 94L185 95L184 94M196 94L197 95L196 94z"/>
<path style="fill:#bbeebf; stroke:none;" d="M197 94L197 95L200 95L197 94M203 94L203 95L208 96L208 95L203 94z"/>
<path style="fill:#8ae191; stroke:none;" d="M206 94L207 95L206 94M218 94L219 95L218 94z"/>
<path style="fill:#bbeebf; stroke:none;" d="M46.3333 95.6667L46.6667 96.3333L46.3333 95.6667M87 95L87 110L88 110L87 95M183 95L184 96L183 95M195.667 95.3333L196.333 95.6667L195.667 95.3333z"/>
<path style="fill:#8ae191; stroke:none;" d="M219 95L220 96L219 95M55.3333 96.6667L55.6667 97.3333L55.3333 96.6667z"/>
<path style="fill:#bbeebf; stroke:none;" d="M114 96C114 111.239 107.782 119.175 92 115L92 116C105.674 121.77 120.346 111.123 114 96M123 96L123 100L124 100L123 96M144.333 96.6667L144.667 97.3333L144.333 96.6667z"/>
<path style="fill:#8ae191; stroke:none;" d="M183.333 96.6667L183.667 97.3333L183.333 96.6667z"/>
<path style="fill:#bbeebf; stroke:none;" d="M194 96L195 97L194 96M208 96L209 97L208 96M47.3333 97.6667L47.6667 98.3333L47.3333 97.6667z"/>
<path style="fill:#8ae191; stroke:none;" d="M78 97C78 109.944 81.0604 122.751 96 125L96 124C80.0716 119.974 82.8582 108.578 78 97M193 97L192 100L193 100L193 97z"/>
<path style="fill:#bbeebf; stroke:none;" d="M209 97L210 98L209 97M220 97L221 98L220 97z"/>
<path style="fill:#8ae191; stroke:none;" d="M56.3333 98.6667L56.6667 99.3333L56.3333 98.6667z"/>
<path style="fill:#bbeebf; stroke:none;" d="M77 98L77 109L78 109L77 98z"/>
<path style="fill:#8ae191; stroke:none;" d="M115 98L115 109L116 109L115 98z"/>
<path style="fill:#bbeebf; stroke:none;" d="M143.333 98.6667L143.667 99.3333L143.333 98.6667z"/>
<path style="fill:#8ae191; stroke:none;" d="M152.333 98.6667L152.667 99.3333L152.333 98.6667z"/>
<path style="fill:#bbeebf; stroke:none;" d="M182 98L182 101L183 101L182 98M193 98L194 99L193 98z"/>
<path style="fill:#8ae191; stroke:none;" d="M210 98L215 101L215 100L210 98M220 98L221 99L220 98z"/>
<path style="fill:#bbeebf; stroke:none;" d="M48.3333 99.6667L48.6667 100.333L48.3333 99.6667M210 99L211 100L210 99z"/>
<path style="fill:#8ae191; stroke:none;" d="M216 99L216 100L219 100L216 99z"/>
<path style="fill:#bbeebf; stroke:none;" d="M219.667 99.3333L220.333 99.6667L219.667 99.3333z"/>
<path style="fill:#8ae191; stroke:none;" d="M57.3333 100.667L57.6667 101.333L57.3333 100.667z"/>
<path style="fill:#bbeebf; stroke:none;" d="M142.333 100.667L142.667 101.333L142.333 100.667z"/>
<path style="fill:#8ae191; stroke:none;" d="M151.333 100.667L151.667 101.333L151.333 100.667z"/>
<path style="fill:#bbeebf; stroke:none;" d="M192 100L192 103L193 103L192 100M211 100L212 101L211 100M215 100L215 101L218 101L215 100M245 100L245 101L248 101L245 100z"/>
<path style="fill:#8ae191; stroke:none;" d="M248 100L248 101L253 101L248 100z"/>
<path style="fill:#bbeebf; stroke:none;" d="M253 100L253 101L257 101L253 100M293 100L293 101L296 101L293 100z"/>
<path style="fill:#8ae191; stroke:none;" d="M296 100L296 101L301 101L296 100z"/>
<path style="fill:#bbeebf; stroke:none;" d="M301 100L301 101L305 101L301 100M340 100L340 101L344 101L340 100z"/>
<path style="fill:#8ae191; stroke:none;" d="M344 100L344 101L348 101L344 100z"/>
<path style="fill:#bbeebf; stroke:none;" d="M348 100L348 101L351 101L348 100M397 100L397 101L401 101L397 100z"/>
<path style="fill:#8ae191; stroke:none;" d="M401 100L401 101L405 101L401 100z"/>
<path style="fill:#bbeebf; stroke:none;" d="M405 100L405 101L408 101L405 100M448 100L448 101L451 101L448 100z"/>
<path style="fill:#8ae191; stroke:none;" d="M451 100L451 101L455 101L451 100z"/>
<path style="fill:#bbeebf; stroke:none;" d="M455 100L455 101L458 101L455 100M495 101L495 102L501 101L495 101z"/>
<path style="fill:#8ae191; stroke:none;" d="M501 100L501 101L505 101L501 100z"/>
<path style="fill:#bbeebf; stroke:none;" d="M505 100L505 101L508 101L505 100M49 101L58 122L59 122L49 101z"/>
<path style="fill:#8ae191; stroke:none;" d="M182.333 101.667L182.667 102.333L182.333 101.667z"/>
<path style="fill:#bbeebf; stroke:none;" d="M212 101L213 102L212 101M242.667 101.333L243.333 101.667L242.667 101.333z"/>
<path style="fill:#8ae191; stroke:none;" d="M244.667 101.333L245.333 101.667L244.667 101.333z"/>
<path style="fill:#4dbe55; stroke:none;" d="M269 135C258.636 130.304 241.323 146.385 239 125L270 125C269.995 116.935 268.812 109.704 261.985 104.419C250.23 95.3209 233.018 104.505 230.468 118C226.255 140.294 257.251 157.166 269 135z"/>
<path style="fill:#8ae191; stroke:none;" d="M256.667 101.333L257.333 101.667L256.667 101.333z"/>
<path style="fill:#bbeebf; stroke:none;" d="M258 101L259 102L258 101M290.667 101.333L291.333 101.667L290.667 101.333z"/>
<path style="fill:#8ae191; stroke:none;" d="M292.667 101.333L293.333 101.667L292.667 101.333z"/>
<path style="fill:#4dbe55; stroke:none;" d="M317 135C306.773 130.366 289.374 146.313 287 125L318 125C317.995 116.935 316.812 109.704 309.985 104.419C298.248 95.3349 281.061 104.512 278.468 118C274.179 140.317 305.27 157.13 317 135z"/>
<path style="fill:#8ae191; stroke:none;" d="M304.667 101.333L305.333 101.667L304.667 101.333z"/>
<path style="fill:#bbeebf; stroke:none;" d="M306 101L307 102L306 101M338 101L339 102L338 101z"/>
<path style="fill:#8ae191; stroke:none;" d="M339.667 101.333L340.333 101.667L339.667 101.333M351 101L352 102L351 101z"/>
<path style="fill:#bbeebf; stroke:none;" d="M352 101L352 102L355 103L352 101M395 101L396 102L395 101z"/>
<path style="fill:#8ae191; stroke:none;" d="M396.667 101.333L397.333 101.667L396.667 101.333M407.667 101.333L408.333 101.667L407.667 101.333z"/>
<path style="fill:#bbeebf; stroke:none;" d="M409 101L409 102L412 103L409 101M431 101L431 102L440 102L431 101M446 101L447 102L446 101z"/>
<path style="fill:#8ae191; stroke:none;" d="M447.667 101.333L448.333 101.667L447.667 101.333z"/>
<path style="fill:#4dbe55; stroke:none;" d="M439 107L439 102L432 102L432 144L440 144C440 135.885 437.407 122.334 441.179 115.015C443.872 109.79 450.756 106.367 455.786 110.515C463.511 116.885 460 135.031 460 144L469 144C469 130.037 472.757 94.0891 448 101.804C444.654 102.847 441.897 105.116 439 107z"/>
<path style="fill:#8ae191; stroke:none;" d="M458 101L459 102L458 101z"/>
<path style="fill:#bbeebf; stroke:none;" d="M459 101L459 102L462 103L459 101z"/>
<path style="fill:#8ae191; stroke:none;" d="M497 101L498 102L497 101M508 101L509 102L508 101z"/>
<path style="fill:#bbeebf; stroke:none;" d="M509.667 101.333L510.333 101.667L509.667 101.333z"/>
<path style="fill:#8ae191; stroke:none;" d="M50 102L52 108L53 108L50 102M58.3333 102.667L58.6667 103.333L58.3333 102.667z"/>
<path style="fill:#bbeebf; stroke:none;" d="M141.333 102.667L141.667 103.333L141.333 102.667z"/>
<path style="fill:#8ae191; stroke:none;" d="M150.333 102.667L150.667 103.333L150.333 102.667z"/>
<path style="fill:#bbeebf; stroke:none;" d="M240 102L239 104L240 102z"/>
<path style="fill:#8ae191; stroke:none;" d="M241.667 102.333L242.333 102.667L241.667 102.333M259 102L260 103L259 102z"/>
<path style="fill:#bbeebf; stroke:none;" d="M260 102L261 103L260 102M288 102L287 104L288 102z"/>
<path style="fill:#8ae191; stroke:none;" d="M289.667 102.333L290.333 102.667L289.667 102.333M307 102L308 103L307 102z"/>
<path style="fill:#bbeebf; stroke:none;" d="M308 102L309 103L308 102M336 102L335 104L336 102z"/>
<path style="fill:#8ae191; stroke:none;" d="M337 102L338 103L337 102M353 102L354 103L353 102M394 102L395 103L394 102M410 102L411 103L410 102M431 102L431 132L432.028 143.397L439 145L439 144L432 144C432 132.043 435.611 112.988 431 102M439 102L441 107L439 102z"/>
<path style="fill:#bbeebf; stroke:none;" d="M444 102L445 103L444 102z"/>
<path style="fill:#8ae191; stroke:none;" d="M445 102L446 103L445 102M460 102L461 103L460 102z"/>
<path style="fill:#bbeebf; stroke:none;" d="M493 102L491 105L493 102z"/>
<path style="fill:#8ae191; stroke:none;" d="M494.667 102.333L495.333 102.667L494.667 102.333M510 102L510 103L513 104L510 102z"/>
<path style="fill:#bbeebf; stroke:none;" d="M512 102L513 103L512 102M182 103L182 106L183 106L182 103z"/>
<path style="fill:#8ae191; stroke:none;" d="M192 103L194 106L192 103M240 103L241 104L240 103z"/>
<path style="fill:#bbeebf; stroke:none;" d="M261 103L262 104L261 103z"/>
<path style="fill:#8ae191; stroke:none;" d="M288 103L289 104L288 103z"/>
<path style="fill:#bbeebf; stroke:none;" d="M309 103L310 104L309 103z"/>
<path style="fill:#8ae191; stroke:none;" d="M336 103L337 104L336 103M355 103L356 104L355 103M393 103L394 104L393 103M412 103L413 104L412 103z"/>
<path style="fill:#bbeebf; stroke:none;" d="M413 103L414 104L413 103M443 103L444 104L443 103z"/>
<path style="fill:#8ae191; stroke:none;" d="M462 103L463 104L462 103M493 103L494 104L493 103z"/>
<path style="fill:#bbeebf; stroke:none;" d="M513 103L514 104L513 103z"/>
<path style="fill:#8ae191; stroke:none;" d="M59 104L62 112L63 112L59 104z"/>
<path style="fill:#bbeebf; stroke:none;" d="M140.333 104.667L140.667 105.333L140.333 104.667M193 104L194 105L193 104M237 104L234 108L237 104z"/>
<path style="fill:#8ae191; stroke:none;" d="M238 104L239 105L238 104M262 104L267 109L262 104z"/>
<path style="fill:#bbeebf; stroke:none;" d="M263 104L264 105L263 104M285 104L282 108L285 104z"/>
<path style="fill:#8ae191; stroke:none;" d="M286 104L287 105L286 104M310 104L315 109L310 104z"/>
<path style="fill:#bbeebf; stroke:none;" d="M311 104L312 105L311 104M333 104L331 107L333 104z"/>
<path style="fill:#8ae191; stroke:none;" d="M334 104L335 105L334 104M356 104L357 105L356 104z"/>
<path style="fill:#bbeebf; stroke:none;" d="M414 104L415 105L414 104z"/>
<path style="fill:#8ae191; stroke:none;" d="M442 104L443 105L442 104M463 104L464 105L463 104M492 104L493 105L492 104M514 104L515 105L514 104M149 105L148 109L149 109L149 105M237 105L238 106L237 105z"/>
<path style="fill:#bbeebf; stroke:none;" d="M264 105L265 106L264 105z"/>
<path style="fill:#8ae191; stroke:none;" d="M285 105L286 106L285 105z"/>
<path style="fill:#bbeebf; stroke:none;" d="M312 105L313 106L312 105z"/>
<path style="fill:#8ae191; stroke:none;" d="M333 105L334 106L333 105M357 105L358 106L357 105M415 105L416 106L415 105z"/>
<path style="fill:#bbeebf; stroke:none;" d="M440.667 105.333L441.333 105.667L440.667 105.333z"/>
<path style="fill:#8ae191; stroke:none;" d="M464 105L465 106L464 105z"/>
<path style="fill:#bbeebf; stroke:none;" d="M490 105L491 106L490 105z"/>
<path style="fill:#8ae191; stroke:none;" d="M515 105L517 107L515 105z"/>
<path style="fill:#bbeebf; stroke:none;" d="M516 105L517 106L516 105M123 106L123 109L124 109L123 106z"/>
<path style="fill:#8ae191; stroke:none;" d="M194 106L195 107L194 106M236 106L237 107L236 106z"/>
<path style="fill:#bbeebf; stroke:none;" d="M265 106L266 107L265 106z"/>
<path style="fill:#8ae191; stroke:none;" d="M284 106L285 107L284 106z"/>
<path style="fill:#bbeebf; stroke:none;" d="M313 106L314 107L313 106z"/>
<path style="fill:#8ae191; stroke:none;" d="M332 106L333 107L332 106M358.667 106.333L359.333 106.667L358.667 106.333M388.333 106.667L388.667 107.333L388.333 106.667M416 106L417 107L416 106z"/>
<path style="fill:#bbeebf; stroke:none;" d="M465 106L466 107L465 106M489 106L490 107L489 106M139 107L140 108L139 107z"/>
<path style="fill:#8ae191; stroke:none;" d="M183 107L184 108L183 107M195 107L196 108L195 107z"/>
<path style="fill:#bbeebf; stroke:none;" d="M196 107L197 108L196 107z"/>
<path style="fill:#8ae191; stroke:none;" d="M235 107L236 108L235 107M248 107L248 108L253 108L248 107z"/>
<path style="fill:#bbeebf; stroke:none;" d="M266 107L267 108L266 107z"/>
<path style="fill:#8ae191; stroke:none;" d="M283 107L284 108L283 107M296 107L296 108L301 108L296 107z"/>
<path style="fill:#bbeebf; stroke:none;" d="M314 107L315 108L314 107z"/>
<path style="fill:#8ae191; stroke:none;" d="M331 107L332 108L331 107z"/>
<path style="fill:#bbeebf; stroke:none;" d="M417 107L418 108L417 107M466 107L467 108L466 107z"/>
<path style="fill:#8ae191; stroke:none;" d="M517 107L518 108L517 107M53.3333 108.667L53.6667 109.333L53.3333 108.667z"/>
<path style="fill:#bbeebf; stroke:none;" d="M138 108L138 111L139 111L138 108M183 108L184 109L183 108z"/>
<path style="fill:#8ae191; stroke:none;" d="M197 108L198 109L197 108z"/>
<path style="fill:#bbeebf; stroke:none;" d="M198.667 108.333L199.333 108.667L198.667 108.333z"/>
<path style="fill:#8ae191; stroke:none;" d="M234 108L235 109L234 108M246 108L247 109L246 108z"/>
<path style="fill:#bbeebf; stroke:none;" d="M247.667 108.333L248.333 108.667L247.667 108.333z"/>
<path style="fill:#fefffe; stroke:none;" d="M240 118L260 118C258.244 104.9 243.332 106.815 240 118z"/>
<path style="fill:#bbeebf; stroke:none;" d="M252.667 108.333L253.333 108.667L252.667 108.333z"/>
<path style="fill:#8ae191; stroke:none;" d="M254 108L255 109L254 108M282 108L283 109L282 108M294 108L295 109L294 108z"/>
<path style="fill:#bbeebf; stroke:none;" d="M295.667 108.333L296.333 108.667L295.667 108.333z"/>
<path style="fill:#fefffe; stroke:none;" d="M288 118L308 118C306.244 104.9 291.332 106.815 288 118z"/>
<path style="fill:#bbeebf; stroke:none;" d="M300.667 108.333L301.333 108.667L300.667 108.333z"/>
<path style="fill:#8ae191; stroke:none;" d="M302 108L303 109L302 108M330 108L331 109L330 108M345 108L345 109L350 109L345 108M398 108L398 109L403 109L398 108z"/>
<path style="fill:#bbeebf; stroke:none;" d="M418 108L419 109L418 108z"/>
<path style="fill:#8ae191; stroke:none;" d="M448 108L448 109L453 109L448 108M466 108L467 109L466 108M498 108L498 109L504 109L498 108z"/>
<path style="fill:#bbeebf; stroke:none;" d="M518 108L520 110L518 108M62 109L63 110L62 109M78 109L78 112L79 112L78 109z"/>
<path style="fill:#8ae191; stroke:none;" d="M114.333 109.667L114.667 110.333L114.333 109.667M147.333 109.667L147.667 110.333L147.333 109.667M184 109L185 110L184 109M199.667 109.333L200.333 109.667L199.667 109.333z"/>
<path style="fill:#bbeebf; stroke:none;" d="M201 109L201 110L204 110L201 109M233 109L234 110L233 109z"/>
<path style="fill:#8ae191; stroke:none;" d="M244 109L245 110L244 109z"/>
<path style="fill:#bbeebf; stroke:none;" d="M245 109L246 110L245 109M255 109L256 110L255 109z"/>
<path style="fill:#8ae191; stroke:none;" d="M256 109L257 110L256 109z"/>
<path style="fill:#bbeebf; stroke:none;" d="M267 109L269 114L270 114L267 109M281 109L280 111L281 109z"/>
<path style="fill:#8ae191; stroke:none;" d="M292 109L293 110L292 109z"/>
<path style="fill:#bbeebf; stroke:none;" d="M293 109L294 110L293 109M303 109L304 110L303 109z"/>
<path style="fill:#8ae191; stroke:none;" d="M304 109L305 110L304 109z"/>
<path style="fill:#bbeebf; stroke:none;" d="M315 109L317 114L318 114L315 109M329 109L328 111L329 109z"/>
<path style="fill:#8ae191; stroke:none;" d="M342.667 109.333L343.333 109.667L342.667 109.333z"/>
<path style="fill:#bbeebf; stroke:none;" d="M344.667 109.333L345.333 109.667L344.667 109.333z"/>
<path style="fill:#fefffe; stroke:none;" d="M346 109.576C331.118 112.335 333.235 138.406 349 136.293C364.546 134.21 361.471 106.708 346 109.576z"/>
<path style="fill:#bbeebf; stroke:none;" d="M350 109L350 110L358 115L350 109z"/>
<path style="fill:#8ae191; stroke:none;" d="M352 109L353 110L352 109M394 111L397 110L394 111z"/>
<path style="fill:#bbeebf; stroke:none;" d="M397.667 109.333L398.333 109.667L397.667 109.333z"/>
<path style="fill:#fefffe; stroke:none;" d="M399 109.573C383.708 112.526 386.914 139.25 402.999 136.201C417.971 133.362 414.461 106.588 399 109.573z"/>
<path style="fill:#bbeebf; stroke:none;" d="M403.667 109.333L404.333 109.667L403.667 109.333z"/>
<path style="fill:#8ae191; stroke:none;" d="M405 109L406 110L405 109M418 109L419 110L418 109M446 109L447 110L446 109z"/>
<path style="fill:#bbeebf; stroke:none;" d="M447.667 109.333L448.333 109.667L447.667 109.333M452.667 109.333L453.333 109.667L452.667 109.333z"/>
<path style="fill:#8ae191; stroke:none;" d="M454 109L454 110L458 112L454 109z"/>
<path style="fill:#bbeebf; stroke:none;" d="M467.333 109.667L467.667 110.333L467.333 109.667z"/>
<path style="fill:#8ae191; stroke:none;" d="M494 111L497 110L494 111z"/>
<path style="fill:#bbeebf; stroke:none;" d="M497.667 109.333L498.333 109.667L497.667 109.333z"/>
<path style="fill:#fefffe; stroke:none;" d="M499 109.573C483.711 112.544 486.864 138.971 502.999 136.225C518.152 133.646 514.748 106.513 499 109.573z"/>
<path style="fill:#bbeebf; stroke:none;" d="M503.667 109.333L504.333 109.667L503.667 109.333z"/>
<path style="fill:#8ae191; stroke:none;" d="M505 109L506 110L505 109M518 109L519 110L518 109M54.3333 110.667L54.6667 111.333L54.3333 110.667z"/>
<path style="fill:#bbeebf; stroke:none;" d="M63 110C65.666 124.956 77.3259 142.815 84.8727 156C88.0936 161.627 91.4118 165.806 98 167L98 166C89.7111 163.182 85.9354 155.372 82.2469 148C76.0295 135.573 70.743 121.511 63 110M88.3333 110.667L88.6667 111.333L88.3333 110.667M184 110L185 111L184 110z"/>
<path style="fill:#8ae191; stroke:none;" d="M203.667 110.333L204.333 110.667L203.667 110.333z"/>
<path style="fill:#bbeebf; stroke:none;" d="M205 110L205 111L208 111L205 110M232 110L233 111L232 110z"/>
<path style="fill:#8ae191; stroke:none;" d="M243 110L244 111L243 110M257 110L258 111L257 110M267 110L268 111L267 110M281 110L282 111L281 110M291 110L292 111L291 110M305 110L306 111L305 110M315 110L316 111L315 110M329 110L330 111L329 110M340 110L338 113L340 110z"/>
<path style="fill:#bbeebf; stroke:none;" d="M341.667 110.333L342.333 110.667L341.667 110.333z"/>
<path style="fill:#8ae191; stroke:none;" d="M354 110L355 111L354 110z"/>
<path style="fill:#bbeebf; stroke:none;" d="M395 110L396 111L395 110M406 110L408 112L406 110z"/>
<path style="fill:#8ae191; stroke:none;" d="M407 110L408 111L407 110z"/>
<path style="fill:#bbeebf; stroke:none;" d="M419 110L420 111L419 110z"/>
<path style="fill:#8ae191; stroke:none;" d="M444 110L443 112L444 110z"/>
<path style="fill:#bbeebf; stroke:none;" d="M445 110L446 111L445 110M455 110L456 111L455 110M495 110L496 111L495 110M506 110L507 111L506 110z"/>
<path style="fill:#8ae191; stroke:none;" d="M507 110L508 111L507 110M519 110L520 111L519 110M113 111L114 112L113 111z"/>
<path style="fill:#bbeebf; stroke:none;" d="M122.333 111.667L122.667 112.333L122.333 111.667M137.333 111.667L137.667 112.333L137.333 111.667z"/>
<path style="fill:#8ae191; stroke:none;" d="M146 111L140 125L141 125L146 111z"/>
<path style="fill:#bbeebf; stroke:none;" d="M185 111L186 112L185 111z"/>
<path style="fill:#8ae191; stroke:none;" d="M207.667 111.333L208.333 111.667L207.667 111.333z"/>
<path style="fill:#bbeebf; stroke:none;" d="M209.667 111.333L210.333 111.667L209.667 111.333z"/>
<path style="fill:#8ae191; stroke:none;" d="M232 111L233 112L232 111M242 111L243 112L242 111M258 111L260 113L258 111M280 111L281 112L280 111M290 111L291 112L290 111M306 111L308 113L306 111M328.333 111.667L328.667 112.333L328.333 111.667z"/>
<path style="fill:#bbeebf; stroke:none;" d="M340 111L341 112L340 111z"/>
<path style="fill:#8ae191; stroke:none;" d="M355 111L356 112L355 111M392 111L391 113L392 111z"/>
<path style="fill:#bbeebf; stroke:none;" d="M393 111L394 112L393 111z"/>
<path style="fill:#8ae191; stroke:none;" d="M408 111L409 112L408 111z"/>
<path style="fill:#bbeebf; stroke:none;" d="M420 111L421 112L420 111M444 111L445 112L444 111M456 111L457 112L456 111z"/>
<path style="fill:#8ae191; stroke:none;" d="M467 111L468 112L467 111z"/>
<path style="fill:#bbeebf; stroke:none;" d="M493 111L494 112L493 111z"/>
<path style="fill:#8ae191; stroke:none;" d="M508 111L509 112L508 111z"/>
<path style="fill:#bbeebf; stroke:none;" d="M520 111L521 112L520 111z"/>
<path style="fill:#8ae191; stroke:none;" d="M55 112L56 116L57 116L55 112z"/>
<path style="fill:#bbeebf; stroke:none;" d="M79.3333 112.667L79.6667 113.333L79.3333 112.667M89 112L90 113L89 112z"/>
<path style="fill:#8ae191; stroke:none;" d="M186 112L187 113L186 112M210.667 112.333L211.333 112.667L210.667 112.333z"/>
<path style="fill:#bbeebf; stroke:none;" d="M212 112L213 113L212 112M231 112L232 113L231 112z"/>
<path style="fill:#8ae191; stroke:none;" d="M241 112L242 113L241 112z"/>
<path style="fill:#bbeebf; stroke:none;" d="M258 112L259 113L258 112z"/>
<path style="fill:#8ae191; stroke:none;" d="M268 112L269 113L268 112z"/>
<path style="fill:#bbeebf; stroke:none;" d="M279 112L280 113L279 112z"/>
<path style="fill:#8ae191; stroke:none;" d="M289 112L290 113L289 112z"/>
<path style="fill:#bbeebf; stroke:none;" d="M306 112L307 113L306 112z"/>
<path style="fill:#8ae191; stroke:none;" d="M316 112L317 113L316 112z"/>
<path style="fill:#bbeebf; stroke:none;" d="M327.333 112.667L327.667 113.333L327.333 112.667M339 112L340 113L339 112z"/>
<path style="fill:#8ae191; stroke:none;" d="M356 112L357 113L356 112z"/>
<path style="fill:#bbeebf; stroke:none;" d="M392 112L393 113L392 112z"/>
<path style="fill:#8ae191; stroke:none;" d="M409 112L410 113L409 112M420 112L421 113L420 112M442 112L441 114L442 112z"/>
<path style="fill:#bbeebf; stroke:none;" d="M457 112L458 113L457 112M468.333 112.667L468.667 113.333L468.333 112.667M492 112L493 113L492 112M509 112L510 113L509 112z"/>
<path style="fill:#8ae191; stroke:none;" d="M520 112L521 113L520 112M63.3333 113.667L63.6667 114.333L63.3333 113.667z"/>
<path style="fill:#bbeebf; stroke:none;" d="M90 113L91 114L90 113z"/>
<path style="fill:#8ae191; stroke:none;" d="M112 113L113 114L112 113z"/>
<path style="fill:#bbeebf; stroke:none;" d="M121.333 113.667L121.667 114.333L121.333 113.667M136.333 113.667L136.667 114.333L136.333 113.667M146.333 113.667L146.667 114.333L146.333 113.667z"/>
<path style="fill:#8ae191; stroke:none;" d="M187 113L188 114L187 113M213 113L215 115L213 113z"/>
<path style="fill:#bbeebf; stroke:none;" d="M214 113L215 114L214 113z"/>
<path style="fill:#8ae191; stroke:none;" d="M231 113L232 114L231 113z"/>
<path style="fill:#bbeebf; stroke:none;" d="M241 113L242 114L241 113M259 113L260 114L259 113z"/>
<path style="fill:#8ae191; stroke:none;" d="M279 113L280 114L279 113z"/>
<path style="fill:#bbeebf; stroke:none;" d="M289 113L290 114L289 113M307 113L308 114L307 113M338 113L339 114L338 113z"/>
<path style="fill:#8ae191; stroke:none;" d="M357 113L358 114L357 113z"/>
<path style="fill:#bbeebf; stroke:none;" d="M391 113L392 114L391 113z"/>
<path style="fill:#8ae191; stroke:none;" d="M410 113L411 116L412 116L410 113z"/>
<path style="fill:#bbeebf; stroke:none;" d="M442 113L443 114L442 113z"/>
<path style="fill:#8ae191; stroke:none;" d="M458 113L459 114L458 113z"/>
<path style="fill:#bbeebf; stroke:none;" d="M491 113L492 114L491 113z"/>
<path style="fill:#8ae191; stroke:none;" d="M510 113L512 115L510 113z"/>
<path style="fill:#bbeebf; stroke:none;" d="M521.333 113.667L521.667 114.333L521.333 113.667M80.3333 114.667L80.6667 115.333L80.3333 114.667M91 114L92 115L91 114z"/>
<path style="fill:#8ae191; stroke:none;" d="M111 114L112 115L111 114z"/>
<path style="fill:#bbeebf; stroke:none;" d="M188 114L189 115L188 114M215 114L216 115L215 114z"/>
<path style="fill:#8ae191; stroke:none;" d="M240 114L241 115L240 114M260.333 114.667L260.667 115.333L260.333 114.667M269.333 114.667L269.667 115.333L269.333 114.667M288 114L289 115L288 114M308 114L309 115L308 114M317.333 114.667L317.667 115.333L317.333 114.667M327 114L328 115L327 114z"/>
<path style="fill:#bbeebf; stroke:none;" d="M337 114L338 115L337 114z"/>
<path style="fill:#8ae191; stroke:none;" d="M390 114L391 115L390 114z"/>
<path style="fill:#bbeebf; stroke:none;" d="M410 114L411 115L410 114M421 114L422 115L421 114M441.333 114.667L441.667 115.333L441.333 114.667M458 114L459 115L458 114z"/>
<path style="fill:#8ae191; stroke:none;" d="M468 114L468 117L469 117L468 114M490 114L491 115L490 114z"/>
<path style="fill:#bbeebf; stroke:none;" d="M510 114L511 115L510 114z"/>
<path style="fill:#8ae191; stroke:none;" d="M64.3333 115.667L64.6667 116.333L64.3333 115.667M108 117L111 115L108 117z"/>
<path style="fill:#bbeebf; stroke:none;" d="M120.333 115.667L120.667 116.333L120.333 115.667M135.333 115.667L135.667 116.333L135.333 115.667M145.333 115.667L145.667 116.333L145.333 115.667M189 115L189 116L194 118L194 117L189 115z"/>
<path style="fill:#8ae191; stroke:none;" d="M190 115L191 116L190 115z"/>
<path style="fill:#bbeebf; stroke:none;" d="M216 115L217 116L216 115M230 115L231 116L230 115M240 115L241 116L240 115M278 115L279 116L278 115M288 115L289 116L288 115M308 115C304.599 120.246 293.676 118 288 118L288 119C292.101 119 309.42 121.322 308 115M326.333 115.667L326.667 116.333L326.333 115.667z"/>
<path style="fill:#8ae191; stroke:none;" d="M336 115L337 116L336 115M358 115L359 116L358 115z"/>
<path style="fill:#bbeebf; stroke:none;" d="M390 115L391 116L390 115z"/>
<path style="fill:#8ae191; stroke:none;" d="M421.333 115.667L421.667 116.333L421.333 115.667M440.333 115.667L440.667 116.333L440.333 115.667M459.333 115.667L459.667 116.333L459.333 115.667z"/>
<path style="fill:#bbeebf; stroke:none;" d="M490 115L491 116L490 115M511 115L512 116L511 115z"/>
<path style="fill:#8ae191; stroke:none;" d="M521 115L522 116L521 115M57.3333 116.667L57.6667 117.333L57.3333 116.667z"/>
<path style="fill:#bbeebf; stroke:none;" d="M81 116L82 117L81 116z"/>
<path style="fill:#8ae191; stroke:none;" d="M192 116L193 117L192 116M217 116L218 117L217 116M230.333 116.667L230.667 117.333L230.333 116.667M239 116L239 119L240 119L239 116z"/>
<path style="fill:#bbeebf; stroke:none;" d="M260 116L240 118L240 119C243.683 119 260.806 120.89 260 116M270.333 116.667L270.667 117.333L270.333 116.667z"/>
<path style="fill:#8ae191; stroke:none;" d="M278.333 116.667L278.667 117.333L278.333 116.667M287 116L287 119L288 119L287 116z"/>
<path style="fill:#bbeebf; stroke:none;" d="M318.333 116.667L318.667 117.333L318.333 116.667M336 116L337 117L336 116M358 116L359 117L358 116z"/>
<path style="fill:#8ae191; stroke:none;" d="M389 116L390 117L389 116z"/>
<path style="fill:#bbeebf; stroke:none;" d="M411 116L412 117L411 116z"/>
<path style="fill:#8ae191; stroke:none;" d="M489 116L490 117L489 116M512.333 116.667L512.667 117.333L512.333 116.667z"/>
<path style="fill:#bbeebf; stroke:none;" d="M522 116L522 119L523 119L522 116z"/>
<path style="fill:#8ae191; stroke:none;" d="M65.3333 117.667L65.6667 118.333L65.3333 117.667z"/>
<path style="fill:#bbeebf; stroke:none;" d="M82 117L84 120L82 117z"/>
<path style="fill:#8ae191; stroke:none;" d="M94.6667 117.333L95.3333 117.667L94.6667 117.333M96 118L96 119L107 118L96 118z"/>
<path style="fill:#bbeebf; stroke:none;" d="M119 117L120 118L119 117M134.333 117.667L134.667 118.333L134.333 117.667M144.333 117.667L144.667 118.333L144.333 117.667z"/>
<path style="fill:#8ae191; stroke:none;" d="M194.667 117.333L195.333 117.667L194.667 117.333z"/>
<path style="fill:#bbeebf; stroke:none;" d="M218 117L219 118L218 117z"/>
<path style="fill:#8ae191; stroke:none;" d="M309 117L310 118L309 117M326.333 117.667L326.667 118.333L326.333 117.667M335.333 117.667L335.667 118.333L335.333 117.667M359.333 117.667L359.667 118.333L359.333 117.667z"/>
<path style="fill:#bbeebf; stroke:none;" d="M389 117L390 118L389 117z"/>
<path style="fill:#8ae191; stroke:none;" d="M412 117L413 118L412 117z"/>
<path style="fill:#bbeebf; stroke:none;" d="M422 117L422 120L423 120L422 117M440 117L439 145C443.292 141.249 442.155 122.137 440 117M459 117C459 123.47 456.025 140.653 461 145L459 117M489 117L490 118L489 117z"/>
<path style="fill:#8ae191; stroke:none;" d="M58.3333 118.667L58.6667 119.333L58.3333 118.667z"/>
<path style="fill:#bbeebf; stroke:none;" d="M118 118L119 119L118 118M195.667 118.333L196.333 118.667L195.667 118.333z"/>
<path style="fill:#8ae191; stroke:none;" d="M197 118L197 119L200 119L197 118z"/>
<path style="fill:#bbeebf; stroke:none;" d="M219 118L220 119L219 118M229 118L229 128L230 128L229 118z"/>
<path style="fill:#8ae191; stroke:none;" d="M260 118L261 119L260 118M270 118L270 125L271 125L270 118z"/>
<path style="fill:#bbeebf; stroke:none;" d="M277 118L277 128L278 128L277 118z"/>
<path style="fill:#8ae191; stroke:none;" d="M308 118L309 119L308 118M318 118L318 125L319 125L318 118M388.333 118.667L388.667 119.333L388.333 118.667z"/>
<path style="fill:#bbeebf; stroke:none;" d="M412.333 118.667L412.667 119.333L412.333 118.667M512 118L513 119L512 118z"/>
<path style="fill:#8ae191; stroke:none;" d="M66.3333 119.667L66.6667 120.333L66.3333 119.667z"/>
<path style="fill:#bbeebf; stroke:none;" d="M117 119L118 120L117 119M133.333 119.667L133.667 120.333L133.333 119.667M143.333 119.667L143.667 120.333L143.333 119.667M199 119L199 120L202 120L199 119z"/>
<path style="fill:#8ae191; stroke:none;" d="M202.667 119.333L203.333 119.667L202.667 119.333M219 119L220 120L219 119z"/>
<path style="fill:#bbeebf; stroke:none;" d="M335 119L335 127L336 127L335 119M359 119L359 122L360 122L359 119z"/>
<path style="fill:#8ae191; stroke:none;" d="M488 119L488 122L489 122L488 119M522 119L522 126L523 126L522 119M59 120C60.3382 126.944 64.6667 133.732 67.892 140C74.8158 153.457 80.9403 173.434 98 176L98 175C74.1122 166.853 73.3384 137.305 59 120z"/>
<path style="fill:#bbeebf; stroke:none;" d="M84 120L87 122L84 120M116 120L117 121L116 120M204 120L205 121L204 120z"/>
<path style="fill:#8ae191; stroke:none;" d="M205.667 120.333L206.333 120.667L205.667 120.333z"/>
<path style="fill:#bbeebf; stroke:none;" d="M220 120L221 121L220 120M325 120L325 126L326 126L325 120M388 120L388 126L389 126L388 120z"/>
<path style="fill:#8ae191; stroke:none;" d="M422 120L422 125L423 125L422 120M513 120L513 126L514 126L513 120M67.3333 121.667L67.6667 122.333L67.3333 121.667z"/>
<path style="fill:#bbeebf; stroke:none;" d="M113 123L116 121L113 123M132.333 121.667L132.667 122.333L132.333 121.667M142.333 121.667L142.667 122.333L142.333 121.667M206 121L206 122L211 125L206 121z"/>
<path style="fill:#8ae191; stroke:none;" d="M208 121L209 122L208 121M220 121L221 122L220 121M413 121L413 125L414 125L413 121z"/>
<path style="fill:#bbeebf; stroke:none;" d="M87 122L88 123L87 122z"/>
<path style="fill:#8ae191; stroke:none;" d="M209 122L210 123L209 122z"/>
<path style="fill:#bbeebf; stroke:none;" d="M221.333 122.667L221.667 123.333L221.333 122.667M488.333 122.667L488.667 123.333L488.333 122.667M59 123L60 124L59 123z"/>
<path style="fill:#8ae191; stroke:none;" d="M68 123L69 127L70 127L68 123z"/>
<path style="fill:#bbeebf; stroke:none;" d="M88.6667 123.333L89.3333 123.667L88.6667 123.333M111.667 123.333L112.333 123.667L111.667 123.333M131.333 123.667L131.667 124.333L131.333 123.667M141.333 123.667L141.667 124.333L141.333 123.667z"/>
<path style="fill:#8ae191; stroke:none;" d="M210 123L211 124L210 123z"/>
<path style="fill:#bbeebf; stroke:none;" d="M90 124L90 125L93 125L90 124M109.667 124.333L110.333 124.667L109.667 124.333z"/>
<path style="fill:#8ae191; stroke:none;" d="M221 124L221 131L222 131L221 124z"/>
<path style="fill:#bbeebf; stroke:none;" d="M359 124L359 127L360 127L359 124z"/>
<path style="fill:#8ae191; stroke:none;" d="M488 124L488 127L489 127L488 124z"/>
<path style="fill:#bbeebf; stroke:none;" d="M60 125L62 130L63 130L60 125M93 125L93 126L104 127L93 125M104 125L104 126L109 126L104 125M130.333 125.667L130.667 126.333L130.333 125.667M140 125C133.546 140.503 123.52 169.796 106 175L106 176C121.761 173.155 127.964 152.565 134.247 140C136.405 135.683 140.815 129.892 140 125z"/>
<path style="fill:#8ae191; stroke:none;" d="M211 125L212 126L211 125M239 125L240 126L239 125z"/>
<path style="fill:#bbeebf; stroke:none;" d="M240 125L240 126L271 126L240 125z"/>
<path style="fill:#8ae191; stroke:none;" d="M287 125L288 126L287 125z"/>
<path style="fill:#bbeebf; stroke:none;" d="M288 125L288 126L319 126L288 125M422 125L422 129L423 129L422 125z"/>
<path style="fill:#8ae191; stroke:none;" d="M139 126L140 127L139 126z"/>
<path style="fill:#bbeebf; stroke:none;" d="M211 126L211 130L212 130L211 126M239.333 126.667L239.667 127.333L239.333 126.667M287.333 126.667L287.667 127.333L287.333 126.667z"/>
<path style="fill:#8ae191; stroke:none;" d="M388.333 126.667L388.667 127.333L388.333 126.667z"/>
<path style="fill:#bbeebf; stroke:none;" d="M412.333 126.667L412.667 127.333L412.333 126.667M522 126L522 129L523 129L522 126z"/>
<path style="fill:#8ae191; stroke:none;" d="M70.3333 127.667L70.6667 128.333L70.3333 127.667z"/>
<path style="fill:#bbeebf; stroke:none;" d="M129.333 127.667L129.667 128.333L129.333 127.667z"/>
<path style="fill:#8ae191; stroke:none;" d="M138.333 127.667L138.667 128.333L138.333 127.667M326.333 127.667L326.667 128.333L326.333 127.667M335.333 127.667L335.667 128.333L335.333 127.667M359.333 127.667L359.667 128.333L359.333 127.667z"/>
<path style="fill:#bbeebf; stroke:none;" d="M512 127L513 128L512 127z"/>
<path style="fill:#8ae191; stroke:none;" d="M230.333 128.667L230.667 129.333L230.333 128.667M239.333 128.667L239.667 129.333L239.333 128.667M278.333 128.667L278.667 129.333L278.333 128.667M287.333 128.667L287.667 129.333L287.333 128.667z"/>
<path style="fill:#bbeebf; stroke:none;" d="M389 128L390 129L389 128z"/>
<path style="fill:#8ae191; stroke:none;" d="M412 128L413 129L412 128z"/>
<path style="fill:#bbeebf; stroke:none;" d="M489 128L490 129L489 128z"/>
<path style="fill:#8ae191; stroke:none;" d="M512.333 128.667L512.667 129.333L512.333 128.667M71.3333 129.667L71.6667 130.333L71.3333 129.667z"/>
<path style="fill:#bbeebf; stroke:none;" d="M128.333 129.667L128.667 130.333L128.333 129.667z"/>
<path style="fill:#8ae191; stroke:none;" d="M137.333 129.667L137.667 130.333L137.333 129.667z"/>
<path style="fill:#bbeebf; stroke:none;" d="M186 129L186 130L189 130L186 129z"/>
<path style="fill:#8ae191; stroke:none;" d="M189 129L191 131L189 129z"/>
<path style="fill:#bbeebf; stroke:none;" d="M190 129L191 130L190 129M240.333 129.667L240.667 130.333L240.333 129.667M288.333 129.667L288.667 130.333L288.333 129.667M326.333 129.667L326.667 130.333L326.333 129.667M336 129L337 130L336 129M358 129L359 130L358 129z"/>
<path style="fill:#8ae191; stroke:none;" d="M389 129L390 130L389 129z"/>
<path style="fill:#bbeebf; stroke:none;" d="M411 129L412 130L411 129z"/>
<path style="fill:#8ae191; stroke:none;" d="M421.333 129.667L421.667 130.333L421.333 129.667M489 129L490 130L489 129z"/>
<path style="fill:#bbeebf; stroke:none;" d="M511 129L510 132L511 129z"/>
<path style="fill:#8ae191; stroke:none;" d="M521.333 129.667L521.667 130.333L521.333 129.667z"/>
<path style="fill:#bbeebf; stroke:none;" d="M181 131L181 132L185 131L181 131z"/>
<path style="fill:#8ae191; stroke:none;" d="M185.667 130.333L186.333 130.667L185.667 130.333M211.333 130.667L211.667 131.333L211.333 130.667z"/>
<path style="fill:#bbeebf; stroke:none;" d="M230.333 130.667L230.667 131.333L230.333 130.667M278 130L279 131L278 130z"/>
<path style="fill:#8ae191; stroke:none;" d="M336 130L337 131L336 130M358 130L359 131L358 130z"/>
<path style="fill:#bbeebf; stroke:none;" d="M390 130L391 131L390 130z"/>
<path style="fill:#8ae191; stroke:none;" d="M411 130L412 131L411 130z"/>
<path style="fill:#bbeebf; stroke:none;" d="M490 130L491 131L490 130M63 131L64 132L63 131z"/>
<path style="fill:#8ae191; stroke:none;" d="M72.3333 131.667L72.6667 132.333L72.3333 131.667z"/>
<path style="fill:#bbeebf; stroke:none;" d="M127.333 131.667L127.667 132.333L127.333 131.667z"/>
<path style="fill:#8ae191; stroke:none;" d="M136.333 131.667L136.667 132.333L136.333 131.667M182 131L183 132L182 131z"/>
<path style="fill:#bbeebf; stroke:none;" d="M191 131L197 136L197 135L191 131M221.333 131.667L221.667 132.333L221.333 131.667z"/>
<path style="fill:#8ae191; stroke:none;" d="M240 131L241 132L240 131z"/>
<path style="fill:#bbeebf; stroke:none;" d="M261.667 131.333L262.333 131.667L261.667 131.333z"/>
<path style="fill:#8ae191; stroke:none;" d="M288 131L289 132L288 131z"/>
<path style="fill:#bbeebf; stroke:none;" d="M309.667 131.333L310.333 131.667L309.667 131.333z"/>
<path style="fill:#8ae191; stroke:none;" d="M327.333 131.667L327.667 132.333L327.333 131.667z"/>
<path style="fill:#bbeebf; stroke:none;" d="M337 131L338 132L337 131M357 131L349 136L349 137C352.677 136.258 356.034 134.847 357 131z"/>
<path style="fill:#8ae191; stroke:none;" d="M390 131L391 132L390 131z"/>
<path style="fill:#bbeebf; stroke:none;" d="M410 131L411 132L410 131M421 131L422 132L421 131z"/>
<path style="fill:#8ae191; stroke:none;" d="M490 131L491 132L490 131M511 131L512 132L511 131z"/>
<path style="fill:#bbeebf; stroke:none;" d="M521 131L522 132L521 131z"/>
<path style="fill:#8ae191; stroke:none;" d="M181 132L182 133L181 132M191 132L192 133L191 132z"/>
<path style="fill:#bbeebf; stroke:none;" d="M210 132L211 133L210 132z"/>
<path style="fill:#8ae191; stroke:none;" d="M231 132L232 133L231 132z"/>
<path style="fill:#bbeebf; stroke:none;" d="M241 132L242 133L241 132z"/>
<path style="fill:#8ae191; stroke:none;" d="M261 132L262 133L261 132M263 132L264 133L263 132z"/>
<path style="fill:#bbeebf; stroke:none;" d="M264.667 132.333L265.333 132.667L264.667 132.333z"/>
<path style="fill:#8ae191; stroke:none;" d="M279 132L280 133L279 132z"/>
<path style="fill:#bbeebf; stroke:none;" d="M289 132L290 133L289 132z"/>
<path style="fill:#8ae191; stroke:none;" d="M309 132L310 133L309 132M311 132L312 133L311 132z"/>
<path style="fill:#bbeebf; stroke:none;" d="M312.667 132.333L313.333 132.667L312.667 132.333M338 132L347 137L347 136L338 132z"/>
<path style="fill:#8ae191; stroke:none;" d="M357 132L358 133L357 132z"/>
<path style="fill:#bbeebf; stroke:none;" d="M391 132L394 135L391 132z"/>
<path style="fill:#8ae191; stroke:none;" d="M410 132L411 133L410 132M420 132L421 133L420 132z"/>
<path style="fill:#bbeebf; stroke:none;" d="M491 132L492 133L491 132z"/>
<path style="fill:#8ae191; stroke:none;" d="M510 132L511 133L510 132z"/>
<path style="fill:#bbeebf; stroke:none;" d="M64 133L65 134L64 133z"/>
<path style="fill:#8ae191; stroke:none;" d="M73.3333 133.667L73.6667 134.333L73.3333 133.667z"/>
<path style="fill:#bbeebf; stroke:none;" d="M126.333 133.667L126.667 134.333L126.333 133.667z"/>
<path style="fill:#8ae191; stroke:none;" d="M135.333 133.667L135.667 134.333L135.333 133.667z"/>
<path style="fill:#bbeebf; stroke:none;" d="M181 133L182 134L181 133z"/>
<path style="fill:#8ae191; stroke:none;" d="M192 133L193 134L192 133z"/>
<path style="fill:#bbeebf; stroke:none;" d="M209 133L208 135L209 133z"/>
<path style="fill:#8ae191; stroke:none;" d="M220 133L221 134L220 133z"/>
<path style="fill:#bbeebf; stroke:none;" d="M231 133L232 134L231 133M242 133L244 135L242 133z"/>
<path style="fill:#8ae191; stroke:none;" d="M260 133L261 134L260 133M265.667 133.333L266.333 133.667L265.667 133.333z"/>
<path style="fill:#bbeebf; stroke:none;" d="M267 133L268 134L267 133M279 133L280 134L279 133M290 133L291 134L290 133z"/>
<path style="fill:#8ae191; stroke:none;" d="M308 133L309 134L308 133M313.667 133.333L314.333 133.667L313.667 133.333z"/>
<path style="fill:#bbeebf; stroke:none;" d="M315 133L316 134L315 133M327 133L328 134L327 133z"/>
<path style="fill:#8ae191; stroke:none;" d="M338 133L339 134L338 133M356 133L357 134L356 133M391 133L392 134L391 133M409 133L410 134L409 133z"/>
<path style="fill:#bbeebf; stroke:none;" d="M420 133L421 134L420 133M492 133L493 134L492 133M509 133L510 134L509 133z"/>
<path style="fill:#8ae191; stroke:none;" d="M520 133L521 134L520 133M182 134L183 135L182 134M193 134L194 135L193 134M209 134L210 135L209 134z"/>
<path style="fill:#bbeebf; stroke:none;" d="M220 134L221 135L220 134z"/>
<path style="fill:#8ae191; stroke:none;" d="M232 134L233 135L232 134M242 134L243 135L242 134M259 134L260 135L259 134M268 134L269 135L268 134z"/>
<path style="fill:#bbeebf; stroke:none;" d="M269 134L268 138L269 138L269 134z"/>
<path style="fill:#8ae191; stroke:none;" d="M280 134L281 135L280 134z"/>
<path style="fill:#bbeebf; stroke:none;" d="M291 134L292 135L291 134z"/>
<path style="fill:#8ae191; stroke:none;" d="M307 134L308 135L307 134M316 134L317 135L316 134z"/>
<path style="fill:#bbeebf; stroke:none;" d="M317 134L316 138L317 138L317 134z"/>
<path style="fill:#8ae191; stroke:none;" d="M328 134L329 135L328 134M339 134L340 135L339 134M355 134L356 135L355 134M392 134L393 135L392 134z"/>
<path style="fill:#bbeebf; stroke:none;" d="M407 134L406 136L407 134z"/>
<path style="fill:#8ae191; stroke:none;" d="M408 134L409 135L408 134M419 134L420 135L419 134z"/>
<path style="fill:#bbeebf; stroke:none;" d="M493 134L494 135L493 134M508 134L509 135L508 134M520 134L521 135L520 134M65 135L66 136L65 135z"/>
<path style="fill:#8ae191; stroke:none;" d="M74.3333 135.667L74.6667 136.333L74.3333 135.667z"/>
<path style="fill:#bbeebf; stroke:none;" d="M125.333 135.667L125.667 136.333L125.333 135.667z"/>
<path style="fill:#8ae191; stroke:none;" d="M134 135L133 139L134 139L134 135z"/>
<path style="fill:#bbeebf; stroke:none;" d="M182 135L183 136L182 135z"/>
<path style="fill:#8ae191; stroke:none;" d="M194 135L195 136L194 135z"/>
<path style="fill:#bbeebf; stroke:none;" d="M206 135L207 136L206 135z"/>
<path style="fill:#8ae191; stroke:none;" d="M207 135L208 136L207 135M219 135L220 136L219 135z"/>
<path style="fill:#bbeebf; stroke:none;" d="M232 135L233 136L232 135M244 135L244 136L248 137L248 136L244 135M257 135L258 136L257 135z"/>
<path style="fill:#8ae191; stroke:none;" d="M258 135L259 136L258 135z"/>
<path style="fill:#bbeebf; stroke:none;" d="M280 135L281 136L280 135M292 135L292 136L296 137L296 136L292 135M305 135L306 136L305 135z"/>
<path style="fill:#8ae191; stroke:none;" d="M306 135L307 136L306 135z"/>
<path style="fill:#bbeebf; stroke:none;" d="M328 135L329 136L328 135z"/>
<path style="fill:#8ae191; stroke:none;" d="M340 135L341 136L340 135M354 135L355 136L354 135M394 135L397 137L397 136L394 135z"/>
<path style="fill:#bbeebf; stroke:none;" d="M395 135L396 136L395 135z"/>
<path style="fill:#8ae191; stroke:none;" d="M407 135L408 136L407 135z"/>
<path style="fill:#bbeebf; stroke:none;" d="M419 135L420 136L419 135z"/>
<path style="fill:#8ae191; stroke:none;" d="M494 135L497 137L497 136L494 135z"/>
<path style="fill:#bbeebf; stroke:none;" d="M495 135L496 136L495 135M506 135L507 136L506 135z"/>
<path style="fill:#8ae191; stroke:none;" d="M507 135L508 136L507 135z"/>
<path style="fill:#bbeebf; stroke:none;" d="M519 135L520 136L519 135z"/>
<path style="fill:#8ae191; stroke:none;" d="M183 136L185 138L183 136M196.667 136.333L197.333 136.667L196.667 136.333z"/>
<path style="fill:#bbeebf; stroke:none;" d="M198 136L198 137L205 137L198 136z"/>
<path style="fill:#8ae191; stroke:none;" d="M205.667 136.333L206.333 136.667L205.667 136.333z"/>
<path style="fill:#bbeebf; stroke:none;" d="M219 136L220 137L219 136z"/>
<path style="fill:#8ae191; stroke:none;" d="M233 136L234 137L233 136M245 136L246 137L245 136z"/>
<path style="fill:#bbeebf; stroke:none;" d="M255 136L256 137L255 136z"/>
<path style="fill:#8ae191; stroke:none;" d="M256.667 136.333L257.333 136.667L256.667 136.333M268 136L269 137L268 136M281 136L282 137L281 136M293 136L294 137L293 136z"/>
<path style="fill:#bbeebf; stroke:none;" d="M303 136L304 137L303 136z"/>
<path style="fill:#8ae191; stroke:none;" d="M304.667 136.333L305.333 136.667L304.667 136.333M316 136L317 137L316 136M329 136L331 138L329 136M342 136L343 137L342 136M352 136L353 137L352 136z"/>
<path style="fill:#bbeebf; stroke:none;" d="M397 136L397 137L400 137L397 136M402 136L402 137L405 137L402 136z"/>
<path style="fill:#8ae191; stroke:none;" d="M405 136L406 137L405 136M418 136L417 138L418 136z"/>
<path style="fill:#bbeebf; stroke:none;" d="M497 136L497 137L500 137L497 136M502 136L502 137L505 137L502 136z"/>
<path style="fill:#8ae191; stroke:none;" d="M505 136L506 137L505 136M518 136L517 138L518 136z"/>
<path style="fill:#bbeebf; stroke:none;" d="M66.3333 137.667L66.6667 138.333L66.3333 137.667z"/>
<path style="fill:#8ae191; stroke:none;" d="M75.3333 137.667L75.6667 138.333L75.3333 137.667z"/>
<path style="fill:#bbeebf; stroke:none;" d="M124.333 137.667L124.667 138.333L124.333 137.667M183 137L184 138L183 137z"/>
<path style="fill:#8ae191; stroke:none;" d="M201 137L202 138L201 137M218 137L214 142L218 137M234 137L239 142L234 137M247 137L247 138L255 138L247 137M282 137L287 142L282 137M295 137L295 138L303 138L295 137z"/>
<path style="fill:#bbeebf; stroke:none;" d="M329 137L330 138L329 137z"/>
<path style="fill:#8ae191; stroke:none;" d="M345 137L345 138L350 138L345 137M398 137L398 138L403 138L398 137z"/>
<path style="fill:#bbeebf; stroke:none;" d="M418 137L419 138L418 137z"/>
<path style="fill:#8ae191; stroke:none;" d="M498 137L498 138L503 138L498 137z"/>
<path style="fill:#bbeebf; stroke:none;" d="M518 137L519 138L518 137M184 138L185 139L184 138M218 138L219 139L218 138M234 138L235 139L234 138z"/>
<path style="fill:#8ae191; stroke:none;" d="M267 138L268 139L267 138z"/>
<path style="fill:#bbeebf; stroke:none;" d="M282 138L283 139L282 138z"/>
<path style="fill:#8ae191; stroke:none;" d="M315 138L316 139L315 138z"/>
<path style="fill:#bbeebf; stroke:none;" d="M330 138L331 139L330 138M359 138L360 139L359 138z"/>
<path style="fill:#8ae191; stroke:none;" d="M360 138L360 141L361 141L360 138z"/>
<path style="fill:#bbeebf; stroke:none;" d="M417 138L418 139L417 138z"/>
<path style="fill:#8ae191; stroke:none;" d="M488 138L490 140L488 138z"/>
<path style="fill:#bbeebf; stroke:none;" d="M517 138L518 139L517 138M67 139L68 143L69 143L67 139z"/>
<path style="fill:#8ae191; stroke:none;" d="M76.3333 139.667L76.6667 140.333L76.3333 139.667z"/>
<path style="fill:#bbeebf; stroke:none;" d="M123.333 139.667L123.667 140.333L123.333 139.667M185 139L186 140L185 139M217 139L218 140L217 139M235 139L236 140L235 139z"/>
<path style="fill:#8ae191; stroke:none;" d="M266 139L267 140L266 139z"/>
<path style="fill:#bbeebf; stroke:none;" d="M283 139L284 140L283 139z"/>
<path style="fill:#8ae191; stroke:none;" d="M314 139L315 140L314 139z"/>
<path style="fill:#bbeebf; stroke:none;" d="M331 139L332 140L331 139z"/>
<path style="fill:#8ae191; stroke:none;" d="M358 139L356 142L358 139z"/>
<path style="fill:#bbeebf; stroke:none;" d="M388 139L389 140L388 139M416 139L417 140L416 139M488 139L488 142L489 142L488 139M516 139L517 140L516 139z"/>
<path style="fill:#8ae191; stroke:none;" d="M132 140L133 141L132 140z"/>
<path style="fill:#bbeebf; stroke:none;" d="M186 140L188 142L186 140z"/>
<path style="fill:#8ae191; stroke:none;" d="M187 140L188 141L187 140z"/>
<path style="fill:#bbeebf; stroke:none;" d="M216 140L217 141L216 140M236 140L237 141L236 140z"/>
<path style="fill:#8ae191; stroke:none;" d="M265 140L266 141L265 140z"/>
<path style="fill:#bbeebf; stroke:none;" d="M284 140L285 141L284 140z"/>
<path style="fill:#8ae191; stroke:none;" d="M313 140L314 141L313 140z"/>
<path style="fill:#bbeebf; stroke:none;" d="M332 140L335 143L332 140z"/>
<path style="fill:#8ae191; stroke:none;" d="M333 140L334 141L333 140z"/>
<path style="fill:#bbeebf; stroke:none;" d="M358 140L359 141L358 140M389 140L390 141L389 140M415 140L416 141L415 140z"/>
<path style="fill:#8ae191; stroke:none;" d="M490 140L491 141L490 140z"/>
<path style="fill:#bbeebf; stroke:none;" d="M515 140L516 141L515 140z"/>
<path style="fill:#8ae191; stroke:none;" d="M77.3333 141.667L77.6667 142.333L77.3333 141.667z"/>
<path style="fill:#bbeebf; stroke:none;" d="M122.333 141.667L122.667 142.333L122.333 141.667z"/>
<path style="fill:#8ae191; stroke:none;" d="M131.333 141.667L131.667 142.333L131.333 141.667M188 141L189 142L188 141z"/>
<path style="fill:#bbeebf; stroke:none;" d="M215 141L216 142L215 141M237 141L238 142L237 141z"/>
<path style="fill:#8ae191; stroke:none;" d="M263 141L262 143L263 141z"/>
<path style="fill:#bbeebf; stroke:none;" d="M264 141L265 142L264 141M285 141L286 142L285 141z"/>
<path style="fill:#8ae191; stroke:none;" d="M311 141L310 143L311 141z"/>
<path style="fill:#bbeebf; stroke:none;" d="M312 141L313 142L312 141z"/>
<path style="fill:#8ae191; stroke:none;" d="M334 141L335 142L334 141z"/>
<path style="fill:#bbeebf; stroke:none;" d="M357 141L358 142L357 141M360 141L360 144L361 144L360 141M390 141L391 142L390 141z"/>
<path style="fill:#8ae191; stroke:none;" d="M413 141L412 143L413 141z"/>
<path style="fill:#bbeebf; stroke:none;" d="M414 141L415 142L414 141z"/>
<path style="fill:#8ae191; stroke:none;" d="M487 141L480 144L480 145C483.15 144.963 487.953 145.242 487 141M491 141L492 142L491 141M513 141L512 143L513 141z"/>
<path style="fill:#bbeebf; stroke:none;" d="M514 141L515 142L514 141M189 142L189 143L194 145L194 144L189 142z"/>
<path style="fill:#8ae191; stroke:none;" d="M190 142L191 143L190 142M212 142L213 143L212 142z"/>
<path style="fill:#bbeebf; stroke:none;" d="M213 142L214 143L213 142M239 142L242 144L242 143L239 142z"/>
<path style="fill:#8ae191; stroke:none;" d="M240 142L241 143L240 142z"/>
<path style="fill:#bbeebf; stroke:none;" d="M263 142L264 143L263 142M287 142L290 144L290 143L287 142z"/>
<path style="fill:#8ae191; stroke:none;" d="M288 142L289 143L288 142z"/>
<path style="fill:#bbeebf; stroke:none;" d="M311 142L312 143L311 142z"/>
<path style="fill:#8ae191; stroke:none;" d="M335 142L336 143L335 142M354 142L353 144L354 142z"/>
<path style="fill:#bbeebf; stroke:none;" d="M355 142L356 143L355 142M391 142L392 143L391 142M413 142L414 143L413 142M492 142L494 144L492 142z"/>
<path style="fill:#8ae191; stroke:none;" d="M493 142L494 143L493 142z"/>
<path style="fill:#bbeebf; stroke:none;" d="M513 142L514 143L513 142M69 143L70 144L69 143z"/>
<path style="fill:#8ae191; stroke:none;" d="M78 143L79 147L80 147L78 143z"/>
<path style="fill:#bbeebf; stroke:none;" d="M121.333 143.667L121.667 144.333L121.333 143.667z"/>
<path style="fill:#8ae191; stroke:none;" d="M130.333 143.667L130.667 144.333L130.333 143.667M192 143L193 144L192 143M210 143L211 144L210 143z"/>
<path style="fill:#bbeebf; stroke:none;" d="M211.667 143.333L212.333 143.667L211.667 143.333z"/>
<path style="fill:#8ae191; stroke:none;" d="M242 143L243 144L242 143M260 143L261 144L260 143z"/>
<path style="fill:#bbeebf; stroke:none;" d="M261 143L262 144L261 143z"/>
<path style="fill:#8ae191; stroke:none;" d="M290 143L291 144L290 143M308 143L309 144L308 143z"/>
<path style="fill:#bbeebf; stroke:none;" d="M309 143L310 144L309 143M336 143L337 144L336 143z"/>
<path style="fill:#8ae191; stroke:none;" d="M337 143L338 144L337 143z"/>
<path style="fill:#bbeebf; stroke:none;" d="M354 143L355 144L354 143M393 143L394 144L393 143z"/>
<path style="fill:#8ae191; stroke:none;" d="M394 143L395 144L394 143M410 143L411 144L410 143z"/>
<path style="fill:#bbeebf; stroke:none;" d="M411 143L412 144L411 143z"/>
<path style="fill:#8ae191; stroke:none;" d="M494 143L495 144L494 143M510 143L511 144L510 143z"/>
<path style="fill:#bbeebf; stroke:none;" d="M511 143L512 144L511 143z"/>
<path style="fill:#8ae191; stroke:none;" d="M194.667 144.333L195.333 144.667L194.667 144.333M207.667 144.333L208.333 144.667L207.667 144.333z"/>
<path style="fill:#bbeebf; stroke:none;" d="M209 144L210 145L209 144M243 144L244 145L243 144z"/>
<path style="fill:#8ae191; stroke:none;" d="M244.667 144.333L245.333 144.667L244.667 144.333M257.667 144.333L258.333 144.667L257.667 144.333z"/>
<path style="fill:#bbeebf; stroke:none;" d="M259 144L260 145L259 144M291 144L292 145L291 144z"/>
<path style="fill:#8ae191; stroke:none;" d="M292.667 144.333L293.333 144.667L292.667 144.333M305.667 144.333L306.333 144.667L305.667 144.333z"/>
<path style="fill:#bbeebf; stroke:none;" d="M307 144L308 145L307 144M338 144L339 145L338 144z"/>
<path style="fill:#8ae191; stroke:none;" d="M339.667 144.333L340.333 144.667L339.667 144.333M350.667 144.333L351.333 144.667L350.667 144.333z"/>
<path style="fill:#bbeebf; stroke:none;" d="M352 144L353 145L352 144z"/>
<path style="fill:#8ae191; stroke:none;" d="M361 144L361 145L368 145L361 144z"/>
<path style="fill:#bbeebf; stroke:none;" d="M368 144L369 145L368 144M379 144L380 145L379 144M387 144L388 145L387 144M395 144L396 145L395 144z"/>
<path style="fill:#8ae191; stroke:none;" d="M396.667 144.333L397.333 144.667L396.667 144.333M407.667 144.333L408.333 144.667L407.667 144.333z"/>
<path style="fill:#bbeebf; stroke:none;" d="M409 144L410 145L409 144M431 144L432 145L431 144z"/>
<path style="fill:#8ae191; stroke:none;" d="M461 144L461 145L468 145L461 144z"/>
<path style="fill:#bbeebf; stroke:none;" d="M468 144L469 145L468 144M487 144L488 145L487 144M495 144L496 145L495 144z"/>
<path style="fill:#8ae191; stroke:none;" d="M496.667 144.333L497.333 144.667L496.667 144.333M507.667 144.333L508.333 144.667L507.667 144.333z"/>
<path style="fill:#bbeebf; stroke:none;" d="M509 144L510 145L509 144M70 145L71 146L70 145M120.333 145.667L120.667 146.333L120.333 145.667z"/>
<path style="fill:#8ae191; stroke:none;" d="M129.333 145.667L129.667 146.333L129.333 145.667z"/>
<path style="fill:#bbeebf; stroke:none;" d="M195 145L195 146L199 146L195 145z"/>
<path style="fill:#8ae191; stroke:none;" d="M199 145L199 146L204 146L199 145z"/>
<path style="fill:#bbeebf; stroke:none;" d="M204 145L204 146L208 146L204 145M245 145L245 146L249 146L245 145z"/>
<path style="fill:#8ae191; stroke:none;" d="M249 145L249 146L254 146L249 145z"/>
<path style="fill:#bbeebf; stroke:none;" d="M254 145L254 146L257 146L254 145M293 145L293 146L297 146L293 145z"/>
<path style="fill:#8ae191; stroke:none;" d="M297 145L297 146L302 146L297 145z"/>
<path style="fill:#bbeebf; stroke:none;" d="M302 145L302 146L305 146L302 145M340 145L340 146L343 146L340 145z"/>
<path style="fill:#8ae191; stroke:none;" d="M343 145L343 146L348 146L343 145z"/>
<path style="fill:#bbeebf; stroke:none;" d="M348 145L348 146L351 146L348 145M397 145L397 146L400 146L397 145z"/>
<path style="fill:#8ae191; stroke:none;" d="M400 145L400 146L405 146L400 145z"/>
<path style="fill:#bbeebf; stroke:none;" d="M405 145L405 146L408 146L405 145M497 145L497 146L500 146L497 145z"/>
<path style="fill:#8ae191; stroke:none;" d="M500 145L500 146L505 146L500 145z"/>
<path style="fill:#bbeebf; stroke:none;" d="M505 145L505 146L508 146L505 145M71 147L72 148L71 147z"/>
<path style="fill:#8ae191; stroke:none;" d="M80.3333 147.667L80.6667 148.333L80.3333 147.667z"/>
<path style="fill:#bbeebf; stroke:none;" d="M119 147L117 152L118 152L119 147z"/>
<path style="fill:#8ae191; stroke:none;" d="M128.333 147.667L128.667 148.333L128.333 147.667z"/>
<path style="fill:#bbeebf; stroke:none;" d="M72.3333 148.667L72.6667 149.333L72.3333 148.667z"/>
<path style="fill:#8ae191; stroke:none;" d="M81.3333 149.667L81.6667 150.333L81.3333 149.667M119.333 149.667L119.667 150.333L119.333 149.667M127.333 149.667L127.667 150.333L127.333 149.667z"/>
<path style="fill:#bbeebf; stroke:none;" d="M73 150L74 154L75 154L73 150z"/>
<path style="fill:#8ae191; stroke:none;" d="M82.3333 151.667L82.6667 152.333L82.3333 151.667M118 151C111.971 161.318 107.836 167.747 95 167L95 168C104.394 169.666 119.921 162.755 118 151M126.333 151.667L126.667 152.333L126.333 151.667M83.3333 153.667L83.6667 154.333L83.3333 153.667z"/>
<path style="fill:#bbeebf; stroke:none;" d="M116 153L117 154L116 153z"/>
<path style="fill:#8ae191; stroke:none;" d="M125 153L123 159L124 159L125 153z"/>
<path style="fill:#bbeebf; stroke:none;" d="M75.3333 154.667L75.6667 155.333L75.3333 154.667z"/>
<path style="fill:#8ae191; stroke:none;" d="M84.3333 155.667L84.6667 156.333L84.3333 155.667z"/>
<path style="fill:#bbeebf; stroke:none;" d="M115 155L116 156L115 155M76.3333 156.667L76.6667 157.333L76.3333 156.667M114.333 156.667L114.667 157.333L114.333 156.667z"/>
<path style="fill:#8ae191; stroke:none;" d="M85 157L87 160L85 157z"/>
<path style="fill:#bbeebf; stroke:none;" d="M77.3333 158.667L77.6667 159.333L77.3333 158.667M113.333 158.667L113.667 159.333L113.333 158.667z"/>
<path style="fill:#8ae191; stroke:none;" d="M122 159L120 164L121 164L122 159z"/>
<path style="fill:#bbeebf; stroke:none;" d="M78.3333 160.667L78.6667 161.333L78.3333 160.667z"/>
<path style="fill:#8ae191; stroke:none;" d="M87 160L89 163L87 160z"/>
<path style="fill:#bbeebf; stroke:none;" d="M112 160L113 161L112 160M111 161L112 162L111 161M79.3333 162.667L79.6667 163.333L79.3333 162.667M110 162L109 164L111 164L110 162z"/>
<path style="fill:#8ae191; stroke:none;" d="M89 163L90 164L89 163z"/>
<path style="fill:#bbeebf; stroke:none;" d="M80 164L82 167L80 164z"/>
<path style="fill:#8ae191; stroke:none;" d="M90 164L91 165L90 164z"/>
<path style="fill:#bbeebf; stroke:none;" d="M108 164L109 165L108 164z"/>
<path style="fill:#8ae191; stroke:none;" d="M119 164L118 167L119 164M91 165L91 166L95 167L95 166L91 165z"/>
<path style="fill:#bbeebf; stroke:none;" d="M106.667 165.333L107.333 165.667L106.667 165.333M103 166L103 167L106 167L103 166M82 167L83 168L82 167M99 167L99 168L102 168L99 167z"/>
<path style="fill:#8ae191; stroke:none;" d="M117 167L118 168L117 167z"/>
<path style="fill:#bbeebf; stroke:none;" d="M83 168L84 169L83 168z"/>
<path style="fill:#8ae191; stroke:none;" d="M116 168L117 169L116 168z"/>
<path style="fill:#bbeebf; stroke:none;" d="M84 169L85 170L84 169z"/>
<path style="fill:#8ae191; stroke:none;" d="M115 169L116 170L115 169z"/>
<path style="fill:#bbeebf; stroke:none;" d="M85 170L86 171L85 170z"/>
<path style="fill:#8ae191; stroke:none;" d="M114 170L115 171L114 170z"/>
<path style="fill:#bbeebf; stroke:none;" d="M86 171L87 172L86 171z"/>
<path style="fill:#8ae191; stroke:none;" d="M111 173L114 171L111 173z"/>
<path style="fill:#bbeebf; stroke:none;" d="M87.6667 172.333L88.3333 172.667L87.6667 172.333M89 173L90 174L89 173z"/>
<path style="fill:#8ae191; stroke:none;" d="M109.667 173.333L110.333 173.667L109.667 173.333z"/>
<path style="fill:#bbeebf; stroke:none;" d="M90.6667 174.333L91.3333 174.667L90.6667 174.333z"/>
<path style="fill:#8ae191; stroke:none;" d="M104 175L104 176L109 175L104 175z"/>
<path style="fill:#bbeebf; stroke:none;" d="M93.6667 175.333L94.3333 175.667L93.6667 175.333M97 176L97 177L105 177L97 176z"/>
</svg>
